Awaragira.glyphspackage
{
glyphname = exclam;
layers = (
{
layerId = m001;
shapes = (
{
closed = 1;
nodes = (
(164,166,l),
(175,687,l),
(97,687,l),
(108,166,l)
);
},
{
closed = 1;
nodes = (
(159,-11,o),
(182,6,o),
(182,41,cs),
(182,74,o),
(161,90,o),
(136,90,cs),
(113,90,o),
(91,75,o),
(91,41,cs),
(91,3,o),
(115,-11,o),
(136,-11,cs)
);
}
);
width = 277;
}
);
unicode = 33;
}
{
glyphname = parenleft;
layers = (
{
layerId = m001;
shapes = (
{
closed = 1;
nodes = (
(299,-168,l),
(253,-92,o),
(218,-11,o),
(195,75,cs),
(171,161,o),
(159,248,o),
(159,336,cs),
(159,424,o),
(171,511,o),
(194,596,cs),
(217,681,o),
(252,762,o),
(299,838,c),
(237,869,l),
(188,787,o),
(150,700,o),
(125,609,cs),
(100,518,o),
(87,425,o),
(87,332,cs),
(87,241,o),
(100,150,o),
(125,60,cs),
(150,-31,o),
(187,-117,o),
(237,-200,c)
);
}
);
width = 316;
}
);
unicode = 40;
}
{
glyphname = parenright;
layers = (
{
layerId = m001;
shapes = (
{
closed = 1;
nodes = (
(131,-105,o),
(169,-18,o),
(194,73,cs),
(219,164,o),
(231,256,o),
(231,349,cs),
(231,441,o),
(219,532,o),
(194,623,cs),
(169,713,o),
(131,799,o),
(81,881,c),
(19,849,l),
(66,773,o),
(101,692,o),
(124,606,cs),
(147,520,o),
(159,433,o),
(159,345,cs),
(159,258,o),
(147,171,o),
(124,86,cs),
(101,0,o),
(66,-81,o),
(20,-157,c),
(81,-188,l)
);
}
);
width = 315;
}
);
unicode = 41;
}
{
glyphname = asterisk;
layers = (
{
layerId = m001;
shapes = (
{
closed = 1;
nodes = (
(318,510,o),
(327,520,o),
(335,537,c),
(237,635,l),
(214,618,l),
(254,534,ls),
(260,521,o),
(268,511,o),
(278,506,cs),
(287,500,o),
(297,500,o),
(308,505,cs)
);
},
{
closed = 1;
nodes = (
(203,619,l),
(182,636,l),
(113,573,ls),
(102,563,o),
(95,553,o),
(93,543,cs),
(91,532,o),
(94,523,o),
(102,515,cs),
(110,506,o),
(123,500,o),
(142,496,c)
);
},
{
closed = 1;
nodes = (
(187,670,l),
(106,715,ls),
(93,723,o),
(81,726,o),
(70,725,cs),
(59,724,o),
(51,718,o),
(46,708,cs),
(41,697,o),
(39,683,o),
(41,664,c),
(178,644,l)
);
},
{
closed = 1;
nodes = (
(223,678,l),
(241,767,ls),
(244,782,o),
(244,795,o),
(239,804,cs),
(234,813,o),
(225,819,o),
(214,821,cs),
(203,823,o),
(189,820,o),
(172,813,c),
(194,678,l)
);
},
{
closed = 1;
nodes = (
(329,656,ls),
(345,657,o),
(357,661,o),
(365,668,cs),
(372,675,o),
(375,684,o),
(374,696,cs),
(373,707,o),
(365,720,o),
(352,734,c),
(231,671,l),
(240,644,l)
);
}
);
width = 420;
}
);
unicode = 42;
}
{
glyphname = comma;
layers = (
{
layerId = m001;
shapes = (
{
closed = 1;
nodes = (
(81,-128,o),
(98,-108,o),
(112,-85,cs),
(127,-63,o),
(138,-41,o),
(146,-19,cs),
(154,3,o),
(158,23,o),
(158,41,cs),
(158,65,o),
(152,83,o),
(139,94,cs),
(127,105,o),
(114,111,o),
(99,111,cs),
(85,111,o),
(72,106,o),
(60,95,cs),
(48,84,o),
(42,69,o),
(42,48,cs),
(42,36,o),
(45,24,o),
(52,13,cs),
(59,2,o),
(70,-5,o),
(85,-9,c),
(83,-20,o),
(79,-32,o),
(74,-46,cs),
(69,-59,o),
(62,-73,o),
(55,-86,cs),
(33,-124,l),
(62,-147,l)
);
}
);
width = 212;
}
);
unicode = 44;
}
{
glyphname = hyphen;
layers = (
{
layerId = m001;
shapes = (
{
closed = 1;
nodes = (
(320,275,l),
(320,335,l),
(51,335,l),
(51,275,l)
);
}
);
width = 372;
}
);
unicode = 45;
}
{
glyphname = period;
layers = (
{
layerId = m001;
shapes = (
{
closed = 1;
nodes = (
(140,-9,o),
(167,11,o),
(167,52,cs),
(167,91,o),
(142,110,o),
(113,110,cs),
(86,110,o),
(60,92,o),
(60,52,cs),
(60,7,o),
(88,-9,o),
(113,-9,cs)
);
}
);
width = 227;
}
);
unicode = 46;
}
{
glyphname = slash;
layers = (
{
layerId = m001;
shapes = (
{
closed = 1;
nodes = (
(394,737,l),
(327,737,l),
(62,1,l),
(132,0,l)
);
}
);
width = 442;
}
);
unicode = 47;
}
{
glyphname = three;
layers = (
{
layerId = m001;
shapes = (
{
closed = 1;
nodes = (
(335,-10,o),
(436,51,o),
(436,179,cs),
(436,236,o),
(405,348,o),
(268,348,c),
(268,332,l),
(381,332,o),
(422,416,o),
(422,476,cs),
(422,585,o),
(327,640,o),
(237,640,cs),
(100,640,o),
(49,560,o),
(49,497,c),
(117,497,l),
(117,530,o),
(157,572,o),
(237,572,cs),
(284,572,o),
(354,547,o),
(354,476,cs),
(354,433,o),
(320,362,o),
(194,362,cs),
(156,362,l),
(156,307,l),
(194,307,ls),
(325,307,o),
(368,234,o),
(368,179,cs),
(368,99,o),
(304,58,o),
(239,58,cs),
(180,58,o),
(108,87,o),
(108,160,c),
(40,160,l),
(40,38,o),
(139,-10,o),
(239,-10,cs)
);
}
);
width = 476;
}
);
unicode = 51;
}
{
glyphname = five;
layers = (
{
layerId = m001;
shapes = (
{
closed = 1;
nodes = (
(342,-10,o),
(436,70,o),
(436,204,cs),
(436,300,o),
(392,420,o),
(235,420,cs),
(178,420,o),
(150,405,o),
(132,394,c),
(132,573,l),
(409,573,l),
(409,640,l),
(64,640,l),
(64,328,l),
(130,328,l),
(143,337,o),
(176,360,o),
(230,360,cs),
(345,360,o),
(368,264,o),
(368,204,cs),
(368,118,o),
(311,58,o),
(236,58,cs),
(179,58,o),
(108,87,o),
(108,160,c),
(40,160,l),
(40,38,o),
(137,-10,o),
(236,-10,cs)
);
}
);
width = 476;
}
);
unicode = 53;
}
{
glyphname = eight;
layers = (
{
layerId = m001;
shapes = (
{
closed = 1;
nodes = (
(335,-10,o),
(438,51,o),
(438,179,cs),
(438,236,o),
(407,348,o),
(270,348,c),
(270,332,l),
(383,332,o),
(424,416,o),
(424,476,cs),
(424,585,o),
(329,640,o),
(239,640,cs),
(149,640,o),
(54,585,o),
(54,476,cs),
(54,416,o),
(95,332,o),
(208,332,c),
(208,348,l),
(71,348,o),
(40,236,o),
(40,179,cs),
(40,51,o),
(143,-10,o),
(239,-10,cs)
);
},
{
closed = 1;
nodes = (
(174,58,o),
(108,99,o),
(108,179,cs),
(108,234,o),
(146,307,o),
(239,307,cs),
(332,307,o),
(370,234,o),
(370,179,cs),
(370,99,o),
(304,58,o),
(239,58,cs)
);
},
{
closed = 1;
nodes = (
(145,362,o),
(122,433,o),
(122,476,cs),
(122,547,o),
(192,572,o),
(239,572,cs),
(286,572,o),
(356,547,o),
(356,476,cs),
(356,433,o),
(333,362,o),
(239,362,cs)
);
}
);
width = 478;
}
);
unicode = 56;
}
{
glyphname = colon;
layers = (
{
layerId = m001;
shapes = (
{
closed = 1;
nodes = (
(141,333,o),
(154,339,o),
(164,350,cs),
(175,361,o),
(180,375,o),
(180,394,cs),
(180,412,o),
(175,426,o),
(165,437,cs),
(155,447,o),
(142,452,o),
(126,452,cs),
(111,452,o),
(98,447,o),
(88,437,cs),
(78,426,o),
(73,412,o),
(73,394,cs),
(73,375,o),
(78,360,o),
(88,349,cs),
(98,338,o),
(111,333,o),
(126,333,cs)
);
},
{
closed = 1;
nodes = (
(141,-9,o),
(154,-3,o),
(164,8,cs),
(175,19,o),
(180,33,o),
(180,52,cs),
(180,70,o),
(175,84,o),
(165,95,cs),
(155,105,o),
(142,110,o),
(126,110,cs),
(111,110,o),
(98,105,o),
(88,95,cs),
(78,84,o),
(73,70,o),
(73,52,cs),
(73,33,o),
(78,18,o),
(88,7,cs),
(98,-4,o),
(111,-9,o),
(126,-9,cs)
);
}
);
width = 251;
}
);
unicode = 58;
}
{
glyphname = semicolon;
layers = (
{
layerId = m001;
shapes = (
{
closed = 1;
nodes = (
(116,-110,o),
(138,-79,o),
(155,-46,cs),
(172,-13,o),
(180,17,o),
(180,44,cs),
(180,65,o),
(175,82,o),
(164,93,cs),
(153,104,o),
(140,110,o),
(124,110,cs),
(109,110,o),
(96,104,o),
(85,93,cs),
(74,82,o),
(69,68,o),
(69,51,cs),
(69,39,o),
(72,28,o),
(79,17,cs),
(86,7,o),
(96,0,o),
(110,-4,c),
(109,-15,o),
(106,-27,o),
(101,-40,cs),
(96,-53,o),
(89,-66,o),
(82,-79,cs),
(75,-92,o),
(67,-104,o),
(60,-115,c),
(88,-137,l)
);
},
{
closed = 1;
nodes = (
(138,313,o),
(151,318,o),
(162,329,cs),
(172,340,o),
(177,355,o),
(177,374,cs),
(177,392,o),
(172,406,o),
(162,416,cs),
(152,427,o),
(139,432,o),
(123,432,cs),
(108,432,o),
(95,427,o),
(85,416,cs),
(75,406,o),
(70,392,o),
(70,374,cs),
(70,355,o),
(75,340,o),
(85,329,cs),
(95,318,o),
(108,313,o),
(123,313,cs)
);
}
);
width = 249;
}
);
unicode = 59;
}
{
glyphname = question;
layers = (
{
layerId = m001;
shapes = (
{
closed = 1;
nodes = (
(169,168,l),
(169,224,ls),
(169,346,o),
(378,356,o),
(378,524,cs),
(378,642,o),
(277,697,o),
(197,697,cs),
(85,697,o),
(20,612,o),
(20,548,c),
(89,548,l),
(89,591,o),
(122,632,o),
(192,632,cs),
(242,632,o),
(309,600,o),
(309,524,cs),
(309,384,o),
(101,400,o),
(101,225,cs),
(101,168,l)
);
},
{
closed = 1;
nodes = (
(161,-11,o),
(184,6,o),
(184,41,cs),
(184,74,o),
(163,90,o),
(138,90,cs),
(115,90,o),
(93,75,o),
(93,41,cs),
(93,3,o),
(117,-11,o),
(138,-11,cs)
);
}
);
width = 503;
}
);
unicode = 63;
}
{
glyphname = exclamdown;
layers = (
{
layerId = m001;
shapes = (
{
closed = 1;
nodes = (
(185,-226,l),
(172,379,l),
(111,379,l),
(97,-226,l)
);
},
{
closed = 1;
nodes = (
(156,461,o),
(169,466,o),
(179,477,cs),
(189,487,o),
(194,501,o),
(194,520,cs),
(194,539,o),
(189,554,o),
(179,565,cs),
(169,576,o),
(156,581,o),
(141,581,cs),
(126,581,o),
(113,576,o),
(103,565,cs),
(92,554,o),
(87,539,o),
(87,520,cs),
(87,501,o),
(92,487,o),
(103,477,cs),
(113,466,o),
(126,461,o),
(141,461,cs)
);
}
);
width = 277;
}
);
unicode = 161;
}
{
glyphname = guillemotleft;
layers = (
{
layerId = m001;
shapes = (
{
closed = 1;
nodes = (
(467,132,l),
(328,301,l),
(469,469,l),
(419,510,l),
(246,300,l),
(416,89,l)
);
},
{
closed = 1;
nodes = (
(267,131,l),
(134,301,l),
(270,470,l),
(219,510,l),
(53,300,l),
(216,89,l)
);
}
);
width = 544;
}
);
unicode = 171;
}
{
glyphname = uni00AD;
layers = (
{
layerId = m001;
shapes = (
{
closed = 1;
nodes = (
(320,275,l),
(320,335,l),
(51,335,l),
(51,275,l)
);
}
);
width = 682;
}
);
unicode = 173;
}
{
glyphname = uni00B2;
layers = (
{
layerId = m001;
shapes = (
{
closed = 1;
nodes = (
(344,307,l),
(344,366,l),
(116,366,l),
(126,346,l),
(214,447,l),
(271,509,ls),
(290,529,o),
(305,550,o),
(318,571,cs),
(331,592,o),
(337,615,o),
(337,639,cs),
(337,668,o),
(330,692,o),
(315,713,cs),
(300,734,o),
(282,751,o),
(259,762,cs),
(236,773,o),
(211,779,o),
(185,779,cs),
(157,779,o),
(130,772,o),
(104,759,cs),
(77,746,o),
(55,727,o),
(38,700,c),
(87,671,l),
(99,688,o),
(113,701,o),
(129,710,cs),
(144,719,o),
(161,724,o),
(178,724,cs),
(202,724,o),
(223,716,o),
(242,701,cs),
(260,686,o),
(269,664,o),
(269,637,cs),
(269,612,o),
(260,587,o),
(241,564,cs),
(222,541,o),
(198,513,o),
(169,482,cs),
(40,340,l),
(40,307,l)
);
}
);
width = 394;
}
);
unicode = 178;
}
{
glyphname = uni00B3;
layers = (
{
layerId = m001;
shapes = (
{
closed = 1;
nodes = (
(217,294,o),
(245,300,o),
(270,311,cs),
(295,322,o),
(316,338,o),
(332,359,cs),
(347,380,o),
(355,406,o),
(355,436,cs),
(355,458,o),
(349,478,o),
(337,497,cs),
(325,516,o),
(307,531,o),
(284,543,cs),
(260,555,o),
(229,561,o),
(192,561,c),
(192,549,l),
(225,549,o),
(251,554,o),
(272,565,cs),
(293,576,o),
(308,590,o),
(319,607,cs),
(329,624,o),
(334,642,o),
(334,661,cs),
(334,688,o),
(327,710,o),
(313,727,cs),
(299,744,o),
(281,757,o),
(258,766,cs),
(235,775,o),
(211,779,o),
(186,779,cs),
(159,779,o),
(132,773,o),
(106,761,cs),
(79,749,o),
(58,730,o),
(43,704,c),
(90,675,l),
(100,692,o),
(114,705,o),
(132,713,cs),
(149,721,o),
(167,725,o),
(184,725,cs),
(205,725,o),
(225,719,o),
(242,707,cs),
(259,695,o),
(267,678,o),
(267,655,cs),
(267,635,o),
(258,617,o),
(240,601,cs),
(222,585,o),
(194,577,o),
(157,577,cs),
(126,577,l),
(126,525,l),
(175,525,ls),
(214,525,o),
(243,517,o),
(261,500,cs),
(279,483,o),
(288,463,o),
(288,441,cs),
(288,412,o),
(278,390,o),
(258,375,cs),
(237,360,o),
(213,352,o),
(184,352,cs),
(164,352,o),
(144,356,o),
(123,364,cs),
(102,371,o),
(82,382,o),
(64,397,c),
(31,349,l),
(54,331,o),
(80,317,o),
(108,308,cs),
(135,299,o),
(162,294,o),
(187,294,cs)
);
}
);
width = 410;
}
);
unicode = 179;
}
{
glyphname = periodcentered;
layers = (
{
layerId = m001;
shapes = (
{
closed = 1;
nodes = (
(126,254,o),
(136,257,o),
(146,262,cs),
(155,267,o),
(163,274,o),
(169,284,cs),
(174,294,o),
(177,306,o),
(177,320,cs),
(177,343,o),
(171,359,o),
(158,370,cs),
(145,381,o),
(131,386,o),
(116,386,cs),
(101,386,o),
(88,381,o),
(75,370,cs),
(62,359,o),
(56,343,o),
(56,320,cs),
(56,298,o),
(62,282,o),
(75,271,cs),
(88,260,o),
(101,254,o),
(116,254,cs)
);
}
);
width = 233;
}
);
unicode = 183;
}
{
glyphname = uni00B9;
layers = (
{
layerId = m001;
shapes = (
{
closed = 1;
nodes = (
(232,307,l),
(232,768,l),
(177,768,l),
(33,708,l),
(54,653,l),
(187,709,l),
(165,735,l),
(165,307,l)
);
},
{
closed = 1;
nodes = (
(301,307,l),
(301,361,l),
(69,361,l),
(69,307,l)
);
}
);
width = 328;
}
);
unicode = 185;
}
{
glyphname = guillemotright;
layers = (
{
layerId = m001;
shapes = (
{
closed = 1;
nodes = (
(277,299,l),
(107,510,l),
(56,467,l),
(195,298,l),
(54,130,l),
(104,89,l)
);
},
{
closed = 1;
nodes = (
(470,299,l),
(307,510,l),
(256,468,l),
(389,298,l),
(253,129,l),
(304,89,l)
);
}
);
width = 542;
}
);
unicode = 187;
}
{
glyphname = onequarter;
layers = (
{
layerId = m001;
shapes = (
{
closed = 1;
nodes = (
(717,836,l),
(647,836,l),
(172,-11,l),
(244,-13,l)
);
},
{
closed = 1;
nodes = (
(281,307,l),
(281,361,l),
(49,361,l),
(49,307,l)
);
},
{
closed = 1;
nodes = (
(212,307,l),
(212,768,l),
(157,768,l),
(13,708,l),
(34,653,l),
(167,709,l),
(145,735,l),
(145,307,l)
);
},
{
closed = 1;
nodes = (
(810,0,l),
(810,463,l),
(733,463,l),
(525,150,l),
(531,106,l),
(867,107,l),
(867,162,l),
(573,162,l),
(587,146,l),
(761,412,l),
(744,412,l),
(744,0,l)
);
}
);
width = 897;
}
);
unicode = 188;
}
{
glyphname = onehalf;
layers = (
{
layerId = m001;
shapes = (
{
closed = 1;
nodes = (
(744,836,l),
(674,836,l),
(200,-11,l),
(272,-13,l)
);
},
{
closed = 1;
nodes = (
(281,307,l),
(281,361,l),
(49,361,l),
(49,307,l)
);
},
{
closed = 1;
nodes = (
(212,307,l),
(212,768,l),
(157,768,l),
(13,708,l),
(34,653,l),
(168,709,l),
(145,735,l),
(145,307,l)
);
},
{
closed = 1;
nodes = (
(876,4,l),
(876,63,l),
(649,63,l),
(658,43,l),
(746,144,l),
(803,205,ls),
(822,225,o),
(837,246,o),
(850,267,cs),
(863,288,o),
(869,311,o),
(869,335,cs),
(869,364,o),
(862,390,o),
(847,411,cs),
(832,432,o),
(814,448,o),
(791,459,cs),
(768,470,o),
(743,475,o),
(717,475,cs),
(690,475,o),
(663,469,o),
(637,456,cs),
(610,443,o),
(588,424,o),
(570,397,c),
(619,367,l),
(631,386,o),
(645,399,o),
(661,407,cs),
(676,416,o),
(693,420,o),
(710,420,cs),
(734,420,o),
(755,412,o),
(774,397,cs),
(792,382,o),
(801,361,o),
(801,334,cs),
(801,308,o),
(792,283,o),
(773,260,cs),
(754,237,o),
(730,210,o),
(701,179,cs),
(572,37,l),
(572,4,l)
);
}
);
width = 920;
}
);
unicode = 189;
}
{
glyphname = threequarters;
layers = (
{
layerId = m001;
shapes = (
{
closed = 1;
nodes = (
(752,836,l),
(682,836,l),
(207,-11,l),
(279,-13,l)
);
},
{
closed = 1;
nodes = (
(216,294,o),
(244,300,o),
(269,311,cs),
(294,322,o),
(315,338,o),
(331,359,cs),
(346,380,o),
(354,406,o),
(354,436,cs),
(354,458,o),
(348,478,o),
(336,497,cs),
(324,516,o),
(306,531,o),
(283,543,cs),
(259,555,o),
(228,561,o),
(191,561,c),
(191,549,l),
(224,549,o),
(250,554,o),
(271,565,cs),
(292,576,o),
(307,590,o),
(318,607,cs),
(328,624,o),
(333,642,o),
(333,661,cs),
(333,688,o),
(326,710,o),
(312,727,cs),
(298,744,o),
(280,757,o),
(257,766,cs),
(234,775,o),
(210,779,o),
(185,779,cs),
(158,779,o),
(131,773,o),
(105,761,cs),
(78,749,o),
(57,730,o),
(42,704,c),
(89,675,l),
(99,692,o),
(113,705,o),
(131,713,cs),
(148,721,o),
(166,725,o),
(183,725,cs),
(204,725,o),
(224,719,o),
(241,707,cs),
(258,695,o),
(266,678,o),
(266,655,cs),
(266,635,o),
(257,617,o),
(239,601,cs),
(221,585,o),
(193,577,o),
(156,577,cs),
(125,577,l),
(125,525,l),
(174,525,ls),
(213,525,o),
(242,517,o),
(260,500,cs),
(278,483,o),
(287,463,o),
(287,441,cs),
(287,412,o),
(277,390,o),
(257,375,cs),
(236,360,o),
(212,352,o),
(183,352,cs),
(163,352,o),
(143,356,o),
(122,364,cs),
(101,371,o),
(81,382,o),
(63,397,c),
(30,349,l),
(53,331,o),
(79,317,o),
(107,308,cs),
(134,299,o),
(161,294,o),
(186,294,cs)
);
},
{
closed = 1;
nodes = (
(844,0,l),
(844,463,l),
(767,463,l),
(559,150,l),
(565,106,l),
(901,107,l),
(901,162,l),
(607,162,l),
(621,146,l),
(795,412,l),
(778,412,l),
(778,0,l)
);
}
);
width = 930;
}
);
unicode = 190;
}
{
glyphname = questiondown;
layers = (
{
layerId = m001;
shapes = (
{
closed = 1;
nodes = (
(308,-250,o),
(333,-246,o),
(358,-237,cs),
(383,-228,o),
(406,-215,o),
(427,-197,cs),
(448,-179,o),
(465,-156,o),
(479,-129,c),
(414,-102,l),
(401,-131,o),
(382,-152,o),
(359,-165,cs),
(336,-178,o),
(312,-185,o),
(288,-185,cs),
(264,-185,o),
(241,-179,o),
(220,-167,cs),
(198,-155,o),
(180,-138,o),
(167,-116,cs),
(153,-93,o),
(146,-66,o),
(146,-34,cs),
(146,-5,o),
(152,20,o),
(165,40,cs),
(177,60,o),
(193,78,o),
(213,93,cs),
(232,108,o),
(253,123,o),
(275,138,cs),
(296,153,o),
(317,170,o),
(337,187,cs),
(356,205,o),
(372,227,o),
(385,252,cs),
(397,277,o),
(403,308,o),
(403,344,cs),
(403,351,o),
(403,359,o),
(402,368,cs),
(401,377,o),
(398,387,o),
(395,400,c),
(327,392,l),
(330,381,o),
(332,372,o),
(333,364,cs),
(334,357,o),
(334,350,o),
(334,345,cs),
(334,317,o),
(328,293,o),
(315,272,cs),
(302,251,o),
(286,232,o),
(266,215,cs),
(201,165,ls),
(178,149,o),
(157,132,o),
(137,113,cs),
(117,94,o),
(101,73,o),
(88,49,cs),
(75,25,o),
(69,-4,o),
(69,-37,cs),
(69,-82,o),
(79,-120,o),
(100,-152,cs),
(120,-183,o),
(147,-208,o),
(180,-225,cs),
(213,-242,o),
(247,-250,o),
(283,-250,cs)
);
},
{
closed = 1;
nodes = (
(367,462,o),
(380,467,o),
(390,477,cs),
(400,488,o),
(405,502,o),
(405,520,cs),
(405,539,o),
(400,554,o),
(390,565,cs),
(380,576,o),
(367,581,o),
(352,581,cs),
(337,581,o),
(324,576,o),
(314,565,cs),
(303,554,o),
(298,539,o),
(298,520,cs),
(298,502,o),
(303,488,o),
(313,477,cs),
(323,467,o),
(336,462,o),
(352,462,cs)
);
}
);
width = 503;
}
);
unicode = 191;
}
{
glyphname = sinAnusvara;
layers = (
{
layerId = m001;
shapes = (
{
closed = 1;
nodes = (
(263,89,o),
(330,156,o),
(330,239,cs),
(330,322,o),
(263,389,o),
(180,389,cs),
(97,389,o),
(30,322,o),
(30,239,cs),
(30,156,o),
(97,89,o),
(180,89,cs)
);
},
{
closed = 1;
nodes = (
(130,149,o),
(90,189,o),
(90,239,cs),
(90,289,o),
(130,329,o),
(180,329,cs),
(230,329,o),
(270,289,o),
(270,239,cs),
(270,189,o),
(230,149,o),
(180,149,cs)
);
}
);
userData = {
com.fontlab.hintData = {
hhints = (
{
position = 89;
width = 60;
},
{
position = 329;
width = 60;
}
);
vhints = (
{
position = 30;
width = 60;
},
{
position = 270;
width = 60;
}
);
};
};
width = 360;
}
);
unicode = 3458;
}
{
glyphname = sinVisarga;
layers = (
{
layerId = m001;
shapes = (
{
closed = 1;
nodes = (
(172,316,o),
(207,353,o),
(207,396,cs),
(207,439,o),
(172,475,o),
(129,475,cs),
(86,475,o),
(50,439,o),
(50,396,cs),
(50,353,o),
(86,316,o),
(129,316,cs)
);
},
{
closed = 1;
nodes = (
(172,70,o),
(207,105,o),
(207,148,cs),
(207,191,o),
(172,227,o),
(129,227,cs),
(86,227,o),
(50,191,o),
(50,148,cs),
(50,105,o),
(86,70,o),
(129,70,cs)
);
},
{
closed = 1;
nodes = (
(113,117,o),
(97,132,o),
(97,148,cs),
(97,164,o),
(113,180,o),
(129,180,cs),
(145,180,o),
(160,164,o),
(160,148,cs),
(160,132,o),
(145,117,o),
(129,117,cs)
);
},
{
closed = 1;
nodes = (
(113,364,o),
(97,380,o),
(97,396,cs),
(97,412,o),
(113,427,o),
(129,427,cs),
(145,427,o),
(160,412,o),
(160,396,cs),
(160,380,o),
(145,364,o),
(129,364,cs)
);
}
);
userData = {
com.fontlab.hintData = {
hhints = (
{
position = 70;
width = 47;
},
{
position = 180;
width = 47;
},
{
position = 316;
width = 48;
},
{
position = 427;
width = 48;
}
);
vhints = (
{
position = 50;
width = 47;
},
{
position = 160;
width = 47;
}
);
};
};
width = 257;
}
);
unicode = 3459;
}
{
glyphname = sinA;
layers = (
{
layerId = m001;
shapes = (
{
closed = 1;
nodes = (
(413,-12,o),
(487,17,o),
(534,55,c),
(508,112,l),
(467,80,o),
(402,54,o),
(304,54,cs),
(175,54,o),
(108,102,o),
(108,194,cs),
(108,290,o),
(186,323,o),
(277,323,cs),
(326,323,o),
(371,319,o),
(423,300,c),
(423,361,l),
(376,376,o),
(332,389,o),
(277,389,cs),
(143,389,o),
(40,328,o),
(40,194,cs),
(40,61,o),
(142,-12,o),
(304,-12,cs)
);
},
{
closed = 1;
nodes = (
(431,-185,l),
(431,393,l),
(434,430,o),
(472,461,o),
(489,467,c),
(474,419,o),
(500,394,o),
(500,370,cs),
(500,347,o),
(486,330,o),
(456,330,cs),
(441,330,o),
(424,332,o),
(405,343,c),
(405,289,l),
(420,281,o),
(444,275,o),
(461,275,cs),
(532,275,o),
(563,313,o),
(563,364,cs),
(563,398,o),
(532,432,o),
(532,459,cs),
(532,476,o),
(536,489,o),
(549,500,c),
(538,542,l),
(465,542,o),
(416,498,o),
(397,454,c),
(383,435,o),
(393,377,o),
(361,377,c),
(364,-185,l)
);
},
{
closed = 1;
nodes = (
(414,337,l),
(439,433,o),
(401,535,o),
(287,535,cs),
(221,535,o),
(150,499,o),
(150,425,c),
(214,425,l),
(214,448,o),
(241,471,o),
(287,471,cs),
(368,471,o),
(371,395,o),
(360,371,c),
(381,311,l)
);
}
);
userData = {
com.fontlab.hintData = {
hhints = (
{
position = -12;
width = 66;
},
{
position = 275;
width = 55;
},
{
position = 323;
width = 66;
},
{
position = 471;
width = 64;
}
);
vhints = (
{
position = 40;
width = 68;
},
{
position = 150;
width = 64;
},
{
position = 361;
width = 62;
},
{
position = 405;
width = 27;
},
{
position = 500;
width = 63;
}
);
};
};
width = 568;
}
);
unicode = 3461;
}
{
glyphname = sinI;
layers = (
{
layerId = m001;
shapes = (
{
closed = 1;
nodes = (
(491,-14,o),
(608,130,o),
(608,277,cs),
(608,470,o),
(476,560,o),
(311,560,cs),
(149,560,o),
(40,444,o),
(40,328,cs),
(40,212,o),
(139,138,o),
(242,138,cs),
(285,138,o),
(329,151,o),
(367,179,c),
(310,203,l),
(260,193,l),
(188,189,o),
(108,229,o),
(108,328,cs),
(108,412,o),
(186,492,o),
(311,492,cs),
(442,492,o),
(540,414,o),
(540,277,cs),
(540,156,o),
(444,54,o),
(254,64,c),
(254,10,l)
);
},
{
closed = 1;
nodes = (
(395,-200,o),
(440,-145,o),
(440,-76,cs),
(440,0,o),
(379,37,o),
(313,25,c),
(254,25,l),
(254,0,l),
(334,0,o),
(372,-25,o),
(372,-76,cs),
(372,-107,o),
(348,-132,o),
(299,-132,cs),
(263,-132,o),
(235,-121,o),
(235,-87,c),
(167,-87,l),
(167,-166,o),
(229,-200,o),
(299,-200,cs)
);
},
{
closed = 1;
nodes = (
(355,153,o),
(403,201,o),
(403,258,cs),
(403,315,o),
(355,361,o),
(298,361,cs),
(237,361,o),
(195,316,o),
(195,268,cs),
(195,238,o),
(209,200,o),
(255,184,c),
(273,168,o),
(273,153,o),
(298,153,cs)
);
},
{
closed = 1;
nodes = (
(273,212,o),
(253,233,o),
(253,258,cs),
(253,283,o),
(273,304,o),
(298,304,cs),
(323,304,o),
(344,283,o),
(344,258,cs),
(344,233,o),
(323,212,o),
(298,212,cs)
);
}
);
userData = {
com.fontlab.hintData = {
hhints = (
{
position = -200;
width = 68;
},
{
position = 138;
width = 74;
},
{
position = 304;
width = 57;
},
{
position = 492;
width = 68;
}
);
vhints = (
{
position = 40;
width = 68;
},
{
position = 167;
width = 68;
},
{
position = 195;
width = 58;
},
{
position = 344;
width = 59;
},
{
position = 372;
width = 68;
},
{
position = 540;
width = 68;
}
);
};
};
width = 648;
}
);
unicode = 3465;
}
{
glyphname = sinIi;
layers = (
{
layerId = m001;
shapes = (
{
closed = 1;
nodes = (
(456,0,o),
(575,119,o),
(575,268,cs),
(575,421,o),
(460,520,o),
(315,520,cs),
(244,520,o),
(193,483,o),
(144,421,c),
(88,376,o),
(40,334,o),
(40,268,cs),
(40,119,o),
(159,0,o),
(308,0,cs)
);
},
{
closed = 1;
nodes = (
(197,68,o),
(108,157,o),
(108,268,cs),
(108,372,o),
(197,457,o),
(307,457,cs),
(418,457,o),
(507,372,o),
(507,268,cs),
(507,157,o),
(418,68,o),
(308,68,cs)
);
},
{
closed = 1;
nodes = (
(72,295,l),
(106,316,l),
(106,337,o),
(115,369,o),
(123,381,cs),
(171,455,o),
(209,480,o),
(262,528,cs),
(339,598,o),
(432,665,o),
(432,758,c),
(354,758,l),
(354,682,o),
(280,625,o),
(194,543,cs),
(101,454,o),
(40,376,o),
(40,268,c)
);
},
{
closed = 1;
nodes = (
(171,573,o),
(201,602,o),
(201,640,cs),
(201,678,o),
(171,709,o),
(133,709,cs),
(95,709,o),
(64,678,o),
(64,640,cs),
(64,602,o),
(95,573,o),
(133,573,cs)
);
},
{
closed = 1;
nodes = (
(116,613,o),
(103,626,o),
(103,642,cs),
(103,658,o),
(116,672,o),
(132,672,cs),
(148,672,o),
(160,658,o),
(160,642,cs),
(160,626,o),
(148,613,o),
(132,613,cs)
);
},
{
closed = 1;
nodes = (
(539,544,o),
(568,573,o),
(568,611,cs),
(568,649,o),
(539,680,o),
(501,680,cs),
(463,680,o),
(432,649,o),
(432,611,cs),
(432,573,o),
(463,544,o),
(501,544,cs)
);
},
{
closed = 1;
nodes = (
(483,584,o),
(471,597,o),
(471,613,cs),
(471,629,o),
(483,643,o),
(499,643,cs),
(515,643,o),
(527,629,o),
(527,613,cs),
(527,597,o),
(515,584,o),
(499,584,cs)
);
}
);
userData = {
com.fontlab.hintData = {
hhints = (
{
position = 0;
width = 60;
},
{
position = 441;
width = 59;
},
{
position = 544;
width = 40;
},
{
position = 643;
width = 37;
}
);
vhints = (
{
position = 40;
width = 60;
},
{
position = 68;
width = 39;
},
{
position = 164;
width = 41;
},
{
position = 336;
width = 59;
},
{
position = 403;
width = 39;
},
{
position = 482;
width = 58;
},
{
position = 498;
width = 41;
}
);
};
};
width = 615;
}
);
unicode = 3466;
}
{
glyphname = sinU;
layers = (
{
layerId = m001;
shapes = (
{
closed = 1;
nodes = (
(472,-200,o),
(588,-134,o),
(602,13,c),
(534,13,l),
(521,-79,o),
(449,-132,o),
(339,-132,cs),
(213,-132,o),
(108,-55,o),
(108,98,cs),
(108,238,o),
(204,322,o),
(331,322,cs),
(441,322,o),
(491,297,o),
(491,297,c),
(529,297,l),
(529,297,o),
(529,344,o),
(528,344,c),
(466,376,o),
(414,389,o),
(331,389,cs),
(161,389,o),
(40,289,o),
(40,98,cs),
(40,-100,o),
(181,-200,o),
(339,-200,cs)
);
},
{
closed = 1;
nodes = (
(532,318,o),
(534,338,o),
(534,356,cs),
(534,475,o),
(472,535,o),
(355,535,cs),
(283,535,o),
(207,499,o),
(207,425,c),
(271,425,l),
(271,448,o),
(302,471,o),
(355,471,cs),
(455,471,o),
(473,415,o),
(473,360,c),
(490,336,l),
(529,297,l)
);
}
);
userData = {
com.fontlab.hintData = {
hhints = (
{
position = -172;
width = 68;
},
{
position = -20;
width = 20;
},
{
position = 322;
width = 67;
},
{
position = 471;
width = 64;
}
);
vhints = (
{
position = 40;
width = 68;
},
{
position = 207;
width = 64;
},
{
position = 534;
width = 68;
}
);
};
};
width = 642;
}
);
unicode = 3467;
}
{
glyphname = sinRVocalic;
layers = (
{
layerId = m001;
shapes = (
{
closed = 1;
nodes = (
(305,0,o),
(326,86,o),
(331,117,c),
(336,86,o),
(357,0,o),
(465,0,cs),
(580,0,o),
(622,99,o),
(622,200,cs),
(622,331,o),
(554,389,o),
(475,389,cs),
(187,389,ls),
(108,389,o),
(40,331,o),
(40,200,cs),
(40,99,o),
(82,0,o),
(197,0,cs)
);
},
{
closed = 1;
nodes = (
(132,67,o),
(108,128,o),
(108,200,cs),
(108,259,o),
(133,323,o),
(189,323,cs),
(473,323,ls),
(529,323,o),
(554,259,o),
(554,200,cs),
(554,128,o),
(529,67,o),
(465,67,cs),
(378,67,o),
(372,160,o),
(369,224,c),
(293,224,l),
(290,160,o),
(284,67,o),
(197,67,cs)
);
},
{
closed = 1;
nodes = (
(356,323,l),
(373,430,o),
(340,535,o),
(220,535,cs),
(154,535,o),
(85,499,o),
(85,425,c),
(147,425,l),
(147,449,o),
(176,473,o),
(223,473,cs),
(306,473,o),
(307,397,o),
(296,373,c),
(316,323,l)
);
},
{
closed = 1;
nodes = (
(346,323,l),
(365,373,l),
(354,397,o),
(356,473,o),
(439,473,cs),
(486,473,o),
(515,449,o),
(515,425,c),
(577,425,l),
(577,499,o),
(508,535,o),
(442,535,cs),
(322,535,o),
(289,430,o),
(306,323,c)
);
},
{
pos = (647,0);
ref = sinMatraR;
}
);
userData = {
com.fontlab.hintData = {
hhints = (
{
position = 0;
width = 60;
},
{
position = 0;
width = 67;
},
{
position = 266;
width = 60;
},
{
position = 323;
width = 66;
},
{
position = 473;
width = 62;
},
{
position = 475;
width = 60;
}
);
vhints = (
{
position = 40;
width = 68;
},
{
position = 85;
width = 62;
},
{
position = 293;
width = 75;
},
{
position = 515;
width = 62;
},
{
position = 554;
width = 68;
},
{
position = 667;
width = 64;
},
{
position = 676;
width = 64;
},
{
position = 881;
width = 2;
},
{
position = 881;
width = 64;
}
);
};
};
width = 970;
}
);
unicode = 3469;
}
{
glyphname = sinLVocalic;
layers = (
{
layerId = m001;
shapes = (
{
closed = 1;
nodes = (
(649,0,o),
(726,118,o),
(726,215,cs),
(726,328,o),
(648,389,o),
(552,389,cs),
(346,389,ls),
(250,389,o),
(172,328,o),
(172,215,cs),
(172,118,o),
(249,0,o),
(449,0,cs)
);
},
{
closed = 1;
nodes = (
(214,0,o),
(254,41,o),
(254,90,cs),
(254,139,o),
(214,179,o),
(165,179,cs),
(116,179,o),
(76,139,o),
(76,90,cs),
(76,41,o),
(116,0,o),
(165,0,cs)
);
},
{
closed = 1;
nodes = (
(165,48,l),
(140,48,o),
(105,63,o),
(123,119,c),
(110,155,o),
(104,200,o),
(104,264,cs),
(104,406,o),
(128,471,o),
(167,471,cs),
(183,471,o),
(199,457,o),
(203,425,c),
(252,425,l),
(252,488,o),
(225,535,o),
(167,535,cs),
(100,535,o),
(40,482,o),
(40,264,cs),
(40,81,o),
(86,0,o),
(165,0,c)
);
},
{
closed = 1;
nodes = (
(144,52,o),
(128,70,o),
(128,90,cs),
(128,110,o),
(144,127,o),
(165,127,cs),
(186,127,o),
(201,110,o),
(201,90,cs),
(201,70,o),
(186,52,o),
(165,52,cs)
);
},
{
closed = 1;
nodes = (
(282,66,o),
(238,148,o),
(238,215,cs),
(238,293,o),
(286,323,o),
(346,323,cs),
(552,323,ls),
(612,323,o),
(660,293,o),
(660,215,cs),
(660,148,o),
(616,66,o),
(449,66,cs)
);
},
{
closed = 1;
nodes = (
(474,323,l),
(491,430,o),
(458,535,o),
(338,535,cs),
(279,535,o),
(218,499,o),
(218,425,c),
(265,425,l),
(265,449,o),
(294,473,o),
(341,473,cs),
(424,473,o),
(425,397,o),
(414,373,c),
(434,323,l)
);
},
{
closed = 1;
nodes = (
(782,0,o),
(822,41,o),
(822,90,cs),
(822,139,o),
(782,179,o),
(733,179,cs),
(684,179,o),
(644,139,o),
(644,90,cs),
(644,41,o),
(684,0,o),
(733,0,cs)
);
},
{
closed = 1;
nodes = (
(464,323,l),
(484,373,l),
(473,397,o),
(474,473,o),
(557,473,cs),
(604,473,o),
(633,449,o),
(633,425,c),
(680,425,l),
(680,499,o),
(619,535,o),
(560,535,cs),
(440,535,o),
(407,430,o),
(424,323,c)
);
},
{
closed = 1;
nodes = (
(812,0,o),
(858,81,o),
(858,264,cs),
(858,482,o),
(798,535,o),
(731,535,cs),
(673,535,o),
(646,488,o),
(646,425,c),
(695,425,l),
(699,457,o),
(715,471,o),
(731,471,cs),
(770,471,o),
(794,406,o),
(794,264,cs),
(794,200,o),
(788,155,o),
(775,119,c),
(793,63,o),
(758,48,o),
(733,48,c),
(733,0,l)
);
},
{
closed = 1;
nodes = (
(712,52,o),
(697,70,o),
(697,90,cs),
(697,110,o),
(712,127,o),
(733,127,cs),
(754,127,o),
(770,110,o),
(770,90,cs),
(770,70,o),
(754,52,o),
(733,52,cs)
);
}
);
userData = {
com.fontlab.hintData = {
hhints = (
{
position = 0;
width = 66;
},
{
position = 0;
width = 52;
},
{
position = 127;
width = 52;
},
{
position = 323;
width = 66;
},
{
position = 471;
width = 64;
}
);
vhints = (
{
position = 40;
width = 64;
},
{
position = 172;
width = 66;
},
{
position = 218;
width = 34;
},
{
position = 646;
width = 34;
},
{
position = 660;
width = 66;
},
{
position = 794;
width = 64;
}
);
};
};
width = 898;
}
);
unicode = 3471;
}
{
glyphname = sinE;
layers = (
{
layerId = m001;
shapes = (
{
closed = 1;
nodes = (
(539,0,o),
(634,139,o),
(634,331,cs),
(634,614,o),
(473,737,o),
(271,737,c),
(271,679,l),
(295,679,o),
(318,676,o),
(340,670,c),
(413,659,o),
(487,608,o),
(519,530,c),
(549,480,o),
(566,415,o),
(566,331,cs),
(566,178,o),
(488,68,o),
(325,68,cs),
(195,68,o),
(132,153,o),
(132,221,cs),
(132,293,o),
(171,329,o),
(223,329,cs),
(358,329,l),
(358,368,l),
(223,368,ls),
(130,368,o),
(64,331,o),
(64,221,cs),
(64,121,o),
(150,0,o),
(325,0,cs)
);
},
{
closed = 1;
nodes = (
(358,329,l),
(358,389,l),
(40,389,l),
(40,329,l)
);
},
{
closed = 1;
nodes = (
(358,329,l),
(388,444,o),
(344,535,o),
(220,535,cs),
(153,535,o),
(82,499,o),
(82,425,c),
(144,425,l),
(144,449,o),
(172,473,o),
(220,473,cs),
(311,473,o),
(311,406,o),
(302,374,c),
(318,329,l)
);
},
{
closed = 1;
nodes = (
(509,471,o),
(534,476,o),
(547,478,c),
(524,535,l),
(514,533,o),
(492,531,o),
(475,531,cs),
(414,531,o),
(378,557,o),
(368,621,cs),
(366,637,o),
(359,661,o),
(342,674,c),
(306,715,l),
(271,679,l),
(289,677,o),
(304,658,o),
(313,596,cs),
(326,508,o),
(396,471,o),
(475,471,cs)
);
}
);
userData = {
com.fontlab.hintData = {
hhints = (
{
position = 0;
width = 68;
},
{
position = 329;
width = 60;
},
{
position = 329;
width = 39;
},
{
position = 471;
width = 60;
}
);
vhints = (
{
position = 64;
width = 68;
},
{
position = 82;
width = 62;
},
{
position = 566;
width = 68;
}
);
};
};
width = 674;
}
);
unicode = 3473;
}
{
glyphname = sinEe;
layers = (
{
layerId = m001;
shapes = (
{
closed = 1;
nodes = (
(622,450,l),
(622,737,l),
(562,737,l),
(562,657,l),
(584,450,l)
);
},
{
ref = sinE;
}
);
userData = {
com.fontlab.hintData = {
hhints = (
{
position = 0;
width = 68;
},
{
position = 329;
width = 39;
},
{
position = 329;
width = 60;
},
{
position = 450;
width = 287;
},
{
position = 471;
width = 60;
}
);
vhints = (
{
position = 74;
width = 68;
},
{
position = 92;
width = 62;
},
{
position = 555;
width = 67;
},
{
position = 576;
width = 68;
}
);
};
};
width = 674;
}
);
unicode = 3474;
}
{
glyphname = sinO;
layers = (
{
layerId = m001;
shapes = (
{
closed = 1;
nodes = (
(303,0,o),
(334,61,o),
(344,98,c),
(355,61,o),
(387,0,o),
(475,0,cs),
(637,0,o),
(658,174,o),
(658,301,cs),
(658,605,o),
(513,737,o),
(333,737,cs),
(179,737,o),
(81,653,o),
(81,585,c),
(149,585,l),
(149,615,o),
(205,669,o),
(333,669,cs),
(473,669,o),
(590,566,o),
(590,301,cs),
(590,198,o),
(574,68,o),
(475,68,cs),
(407,68,o),
(381,124,o),
(381,203,c),
(307,203,l),
(307,124,o),
(280,68,o),
(221,68,cs),
(135,68,o),
(108,165,o),
(108,267,cs),
(108,418,o),
(152,472,o),
(204,472,cs),
(217,472,o),
(226,464,o),
(226,452,cs),
(226,428,o),
(209,421,o),
(209,355,cs),
(209,295,o),
(258,238,o),
(333,238,cs),
(429,238,o),
(460,314,o),
(460,381,cs),
(460,486,o),
(390,545,o),
(324,533,c),
(324,466,l),
(368,472,o),
(396,445,o),
(396,381,cs),
(396,348,o),
(388,302,o),
(333,302,cs),
(295,302,o),
(272,325,o),
(272,359,cs),
(272,404,o),
(291,414,o),
(291,454,cs),
(291,498,o),
(270,535,o),
(206,535,cs),
(122,535,o),
(40,466,o),
(40,267,cs),
(40,114,o),
(89,0,o),
(221,0,cs)
);
}
);
userData = {
com.fontlab.hintData = {
hhints = (
{
position = 0;
width = 68;
},
{
position = 238;
width = 64;
},
{
position = 472;
width = 63;
},
{
position = 669;
width = 68;
}
);
vhints = (
{
position = 40;
width = 68;
},
{
position = 81;
width = 68;
},
{
position = 209;
width = 63;
},
{
position = 226;
width = 65;
},
{
position = 307;
width = 74;
},
{
position = 396;
width = 64;
},
{
position = 590;
width = 68;
}
);
};
};
width = 697;
}
);
unicode = 3476;
}
{
glyphname = sinOo;
layers = (
{
layerId = m001;
shapes = (
{
closed = 1;
nodes = (
(303,0,o),
(334,61,o),
(344,98,c),
(355,61,o),
(387,0,o),
(475,0,cs),
(637,0,o),
(658,174,o),
(658,301,cs),
(658,550,o),
(507,658,o),
(318,658,cs),
(222,658,o),
(147,632,o),
(109,606,c),
(142,550,l),
(173,568,o),
(216,590,o),
(318,590,cs),
(466,590,o),
(590,509,o),
(590,301,cs),
(590,198,o),
(574,68,o),
(475,68,cs),
(407,68,o),
(381,124,o),
(381,203,c),
(307,203,l),
(307,124,o),
(280,68,o),
(221,68,cs),
(135,68,o),
(108,165,o),
(108,267,cs),
(108,418,o),
(152,472,o),
(204,472,cs),
(217,472,o),
(226,464,o),
(226,452,cs),
(226,428,o),
(209,421,o),
(209,355,cs),
(209,295,o),
(258,238,o),
(333,238,cs),
(429,238,o),
(460,314,o),
(460,381,cs),
(460,486,o),
(390,545,o),
(324,533,c),
(324,466,l),
(368,472,o),
(396,445,o),
(396,381,cs),
(396,348,o),
(388,302,o),
(333,302,cs),
(295,302,o),
(272,325,o),
(272,359,cs),
(272,404,o),
(291,414,o),
(291,454,cs),
(291,498,o),
(270,535,o),
(206,535,cs),
(122,535,o),
(40,466,o),
(40,267,cs),
(40,114,o),
(89,0,o),
(221,0,cs)
);
},
{
closed = 1;
nodes = (
(563,585,o),
(621,617,o),
(621,673,cs),
(621,740,o),
(572,800,o),
(363,800,cs),
(158,800,o),
(100,755,o),
(100,698,cs),
(100,674,o),
(123,642,o),
(166,623,c),
(213,642,l),
(190,660,o),
(172,672,o),
(172,690,cs),
(172,708,o),
(189,732,o),
(363,732,cs),
(515,732,o),
(553,712,o),
(553,673,cs),
(553,644,o),
(527,627,o),
(472,610,c),
(518,573,l)
);
}
);
userData = {
com.fontlab.hintData = {
hhints = (
{
position = 0;
width = 68;
},
{
position = 238;
width = 64;
},
{
position = 472;
width = 63;
},
{
position = 573;
width = 21;
},
{
position = 590;
width = 68;
},
{
position = 732;
width = 68;
}
);
vhints = (
{
position = 40;
width = 68;
},
{
position = 100;
width = 72;
},
{
position = 209;
width = 63;
},
{
position = 226;
width = 65;
},
{
position = 307;
width = 74;
},
{
position = 396;
width = 64;
},
{
position = 553;
width = 68;
},
{
position = 590;
width = 68;
}
);
};
};
width = 697;
}
);
unicode = 3477;
}
{
glyphname = sinKa;
layers = (
{
layerId = m001;
shapes = (
{
closed = 1;
nodes = (
(715,-19,o),
(763,129,o),
(763,254,cs),
(763,384,o),
(705,535,o),
(508,535,cs),
(422,535,o),
(348,496,o),
(294,435,cs),
(235,369,o),
(188,317,o),
(40,172,c),
(83,130,l),
(178,226,o),
(271,325,o),
(325,373,cs),
(396,437,o),
(425,469,o),
(508,469,cs),
(670,469,o),
(695,322,o),
(695,254,cs),
(695,153,o),
(656,55,o),
(538,71,c),
(538,3,l)
);
},
{
closed = 1;
nodes = (
(278,0,o),
(295,49,o),
(301,85,c),
(307,48,o),
(335,0,o),
(400,0,cs),
(507,0,o),
(533,85,o),
(533,183,cs),
(533,269,o),
(487,366,o),
(372,366,cs),
(314,366,o),
(261,330,o),
(261,330,c),
(211,260,l),
(257,307,o),
(301,313,o),
(341,313,cs),
(439,313,o),
(465,244,o),
(465,183,cs),
(465,124,o),
(454,66,o),
(400,66,cs),
(349,66,o),
(330,112,o),
(330,169,c),
(264,169,l),
(264,116,o),
(250,66,o),
(207,66,cs),
(174,66,o),
(167,92,o),
(167,118,cs),
(167,151,o),
(161,184,o),
(129,183,c),
(83,130,ls),
(86,134,o),
(89,136,o),
(95,136,cs),
(106,136,o),
(112,115,o),
(112,77,cs),
(112,44,o),
(135,0,o),
(207,0,cs)
);
},
{
closed = 1;
nodes = (
(283,354,l),
(292,380,o),
(296,404,o),
(296,426,cs),
(296,491,o),
(259,535,o),
(188,535,cs),
(134,535,o),
(63,498,o),
(78,389,c),
(141,389,l),
(127,448,o),
(159,472,o),
(191,472,cs),
(224,472,o),
(246,442,o),
(246,409,cs),
(246,393,o),
(240,375,o),
(228,361,c),
(268,321,l)
);
}
);
userData = {
com.fontlab.hintData = {
hhints = (
{
position = 0;
width = 66;
},
{
position = 313;
width = 53;
},
{
position = 469;
width = 66;
}
);
vhints = (
{
position = 78;
width = 63;
},
{
position = 112;
width = 55;
},
{
position = 264;
width = 66;
},
{
position = 465;
width = 68;
},
{
position = 695;
width = 68;
}
);
};
};
width = 803;
}
);
unicode = 3482;
}
{
glyphname = sinKha;
layers = (
{
layerId = m001;
shapes = (
{
closed = 1;
nodes = (
(221,61,l),
(175,61,o),
(106,102,o),
(106,218,cs),
(106,317,o),
(138,402,o),
(253,402,cs),
(369,402,o),
(382,332,o),
(382,290,cs),
(382,180,o),
(264,95,o),
(279,0,c),
(346,0,l),
(341,43,o),
(360,53,o),
(368,53,cs),
(407,53,o),
(405,0,o),
(483,0,cs),
(638,0,o),
(658,174,o),
(658,301,cs),
(658,605,o),
(513,737,o),
(333,737,cs),
(179,737,o),
(81,653,o),
(81,585,c),
(149,585,l),
(149,615,o),
(205,669,o),
(333,669,cs),
(473,669,o),
(590,566,o),
(590,301,cs),
(590,198,o),
(575,68,o),
(481,68,cs),
(437,68,o),
(427,104,o),
(375,104,c),
(389,142,o),
(454,202,o),
(454,290,cs),
(454,349,o),
(423,470,o),
(253,470,cs),
(108,470,o),
(40,364,o),
(40,218,cs),
(40,20,o),
(175,3,o),
(222,0,c)
);
}
);
userData = {
com.fontlab.hintData = {
hhints = (
{
position = 0;
width = 68;
},
{
position = 0;
width = 61;
},
{
position = 53;
width = 51;
},
{
position = 402;
width = 68;
},
{
position = 669;
width = 68;
}
);
vhints = (
{
position = 40;
width = 66;
},
{
position = 81;
width = 68;
},
{
position = 279;
width = 67;
},
{
position = 382;
width = 72;
},
{
position = 590;
width = 68;
}
);
};
};
width = 697;
}
);
unicode = 3483;
}
{
glyphname = sinGa;
layers = (
{
layerId = m001;
shapes = (
{
closed = 1;
nodes = (
(643,-29,o),
(727,118,o),
(727,262,cs),
(727,421,o),
(633,535,o),
(497,535,cs),
(365,535,o),
(265,442,o),
(265,245,c),
(333,245,l),
(333,392,o),
(395,467,o),
(497,467,cs),
(594,467,o),
(659,381,o),
(659,262,cs),
(659,139,o),
(589,46,o),
(469,73,c),
(469,5,l)
);
},
{
closed = 1;
nodes = (
(421,0,o),
(472,93,o),
(472,182,cs),
(472,303,o),
(374,348,o),
(311,313,c),
(331,255,l),
(363,273,o),
(404,236,o),
(404,182,cs),
(404,130,o),
(378,68,o),
(269,68,cs),
(172,68,o),
(108,154,o),
(108,273,cs),
(108,396,o),
(178,489,o),
(298,462,c),
(298,530,l),
(125,564,o),
(40,417,o),
(40,273,cs),
(40,114,o),
(133,0,o),
(269,0,cs)
);
}
);
userData = {
com.fontlab.hintData = {
hhints = (
{
position = 0;
width = 68;
},
{
position = 467;
width = 68;
}
);
vhints = (
{
position = 40;
width = 68;
},
{
position = 265;
width = 68;
},
{
position = 404;
width = 68;
},
{
position = 659;
width = 68;
}
);
};
};
width = 766;
}
);
unicode = 3484;
}
{
glyphname = sinNnga;
layers = (
{
layerId = m001;
shapes = (
{
closed = 1;
nodes = (
(776,-29,o),
(860,118,o),
(860,262,cs),
(860,421,o),
(766,535,o),
(630,535,cs),
(498,535,o),
(398,442,o),
(398,245,c),
(466,245,l),
(466,392,o),
(528,467,o),
(630,467,cs),
(727,467,o),
(792,381,o),
(792,262,cs),
(792,139,o),
(722,46,o),
(602,73,c),
(602,5,l)
);
},
{
closed = 1;
nodes = (
(215,64,l),
(122,64,o),
(104,163,o),
(104,273,cs),
(104,370,o),
(135,471,o),
(196,471,cs),
(212,471,o),
(227,465,o),
(237,452,c),
(251,456,o),
(272,476,o),
(274,494,c),
(256,521,o),
(220,535,o),
(196,535,cs),
(94,535,o),
(40,413,o),
(40,273,cs),
(40,81,o),
(115,0,o),
(215,0,c)
);
},
{
closed = 1;
nodes = (
(555,0,o),
(605,93,o),
(605,182,cs),
(605,303,o),
(507,348,o),
(444,313,c),
(464,255,l),
(496,273,o),
(537,236,o),
(537,182,cs),
(537,130,o),
(511,68,o),
(402,68,cs),
(305,68,o),
(241,154,o),
(241,273,cs),
(241,396,o),
(311,489,o),
(431,462,c),
(431,530,l),
(258,564,o),
(173,417,o),
(173,273,cs),
(173,114,o),
(266,0,o),
(402,0,cs)
);
}
);
userData = {
com.fontlab.hintData = {
hhints = (
{
position = 0;
width = 68;
},
{
position = 467;
width = 68;
}
);
vhints = (
{
position = 40;
width = 64;
},
{
position = 173;
width = 68;
},
{
position = 398;
width = 68;
},
{
position = 537;
width = 68;
},
{
position = 792;
width = 68;
}
);
};
};
width = 900;
}
);
unicode = 3487;
}
{
glyphname = sinCa;
layers = (
{
layerId = m001;
shapes = (
{
closed = 1;
nodes = (
(518,0,o),
(623,140,o),
(623,335,cs),
(623,597,o),
(500,737,o),
(310,737,cs),
(168,737,o),
(77,653,o),
(77,585,c),
(145,585,l),
(145,615,o),
(194,669,o),
(310,669,cs),
(459,669,o),
(555,552,o),
(555,335,cs),
(555,171,o),
(481,68,o),
(325,68,cs),
(195,68,o),
(132,153,o),
(132,221,cs),
(132,293,o),
(171,329,o),
(223,329,cs),
(374,329,l),
(374,368,l),
(223,368,ls),
(130,368,o),
(64,331,o),
(64,221,cs),
(64,121,o),
(150,0,o),
(325,0,cs)
);
},
{
closed = 1;
nodes = (
(374,329,l),
(374,389,l),
(40,389,l),
(40,329,l)
);
},
{
closed = 1;
nodes = (
(376,329,l),
(406,444,o),
(362,535,o),
(238,535,cs),
(171,535,o),
(100,499,o),
(100,425,c),
(162,425,l),
(162,449,o),
(190,473,o),
(238,473,cs),
(329,473,o),
(329,406,o),
(320,374,c),
(336,329,l)
);
}
);
userData = {
com.fontlab.hintData = {
hhints = (
{
position = 0;
width = 68;
},
{
position = 329;
width = 60;
},
{
position = 329;
width = 39;
},
{
position = 473;
width = 62;
},
{
position = 669;
width = 68;
}
);
vhints = (
{
position = 64;
width = 68;
},
{
position = 77;
width = 68;
},
{
position = 100;
width = 62;
},
{
position = 555;
width = 68;
}
);
};
};
width = 663;
}
);
unicode = 3488;
}
{
glyphname = sinNya;
layers = (
{
layerId = m001;
shapes = (
{
closed = 1;
nodes = (
(352,226,o),
(445,325,o),
(499,373,cs),
(570,437,o),
(598,469,o),
(682,469,cs),
(778,469,o),
(793,423,o),
(793,402,c),
(857,402,l),
(857,464,o),
(817,535,o),
(682,535,cs),
(596,535,o),
(522,496,o),
(467,435,cs),
(409,369,o),
(362,317,o),
(214,172,c),
(256,130,l)
);
},
{
closed = 1;
nodes = (
(208,64,l),
(121,64,o),
(104,158,o),
(104,262,cs),
(104,364,o),
(146,471,o),
(229,471,cs),
(249,471,o),
(270,457,o),
(282,425,c),
(299,429,o),
(323,453,o),
(325,474,c),
(303,515,o),
(259,535,o),
(229,535,cs),
(105,535,o),
(40,408,o),
(40,262,cs),
(40,77,o),
(112,0,o),
(208,0,c)
);
},
{
closed = 1;
nodes = (
(452,0,o),
(469,49,o),
(475,85,c),
(481,48,o),
(509,0,o),
(573,0,cs),
(681,0,o),
(706,85,o),
(706,183,cs),
(706,269,o),
(661,366,o),
(545,366,cs),
(487,366,o),
(434,330,o),
(434,330,c),
(384,260,l),
(430,307,o),
(474,313,o),
(515,313,cs),
(613,313,o),
(638,244,o),
(638,183,cs),
(638,124,o),
(628,66,o),
(573,66,cs),
(523,66,o),
(503,112,o),
(503,169,c),
(437,169,l),
(437,116,o),
(424,66,o),
(380,66,cs),
(348,66,o),
(340,92,o),
(340,118,cs),
(340,151,o),
(334,184,o),
(303,183,c),
(256,130,ls),
(260,134,o),
(263,136,o),
(269,136,cs),
(280,136,o),
(285,115,o),
(285,77,cs),
(285,44,o),
(309,0,o),
(380,0,cs)
);
},
{
closed = 1;
nodes = (
(456,354,ls),
(465,380,o),
(469,404,o),
(469,426,cs),
(469,491,o),
(432,535,o),
(362,535,cs),
(308,535,o),
(236,498,o),
(251,389,c),
(315,389,l),
(300,448,o),
(333,472,o),
(365,472,cs),
(398,472,o),
(420,442,o),
(420,409,cs),
(420,393,o),
(414,375,o),
(401,361,c),
(442,321,l)
);
},
{
closed = 1;
nodes = (
(1146,-200,o),
(1200,-144,o),
(1200,-79,c),
(1134,-79,l),
(1134,-121,o),
(1084,-134,o),
(1054,-134,cs),
(1001,-134,o),
(968,-105,o),
(968,-65,cs),
(968,-29,o),
(982,-2,o),
(1018,3,c),
(1019,48,l),
(1013,48,l),
(960,59,o),
(902,4,o),
(902,-65,cs),
(902,-140,o),
(966,-200,o),
(1054,-200,cs)
);
},
{
closed = 1;
nodes = (
(1063,-1,o),
(1123,32,o),
(1159,76,c),
(1159,76,o),
(1126,113,o),
(1115,127,c),
(1089,93,o),
(1047,66,o),
(985,66,cs),
(865,66,o),
(808,111,o),
(808,200,cs),
(808,295,o),
(882,323,o),
(955,323,cs),
(1023,323,o),
(1064,311,o),
(1096,297,c),
(1140,297,l),
(1140,353,l),
(1068,376,o),
(1028,389,o),
(955,389,cs),
(830,389,o),
(740,324,o),
(740,200,cs),
(740,88,o),
(828,3,o),
(985,0,cs)
);
},
{
closed = 1;
nodes = (
(1143,323,o),
(1144,348,o),
(1144,371,cs),
(1144,467,o),
(1085,535,o),
(967,535,cs),
(882,535,o),
(793,491,o),
(793,402,c),
(857,402,l),
(857,437,o),
(899,471,o),
(969,471,cs),
(1084,471,o),
(1092,408,o),
(1085,361,c),
(1090,320,l),
(1104,321,o),
(1140,297,o),
(1140,297,c)
);
}
);
userData = {
com.fontlab.hintData = {
hhints = (
{
position = -200;
width = 66;
},
{
position = 0;
width = 48;
},
{
position = 48;
width = 18;
},
{
position = 313;
width = 53;
},
{
position = 323;
width = 66;
},
{
position = 471;
width = 64;
}
);
vhints = (
{
position = 40;
width = 64;
},
{
position = 251;
width = 63;
},
{
position = 285;
width = 55;
},
{
position = 437;
width = 66;
},
{
position = 638;
width = 68;
},
{
position = 740;
width = 68;
},
{
position = 793;
width = 64;
},
{
position = 902;
width = 66;
},
{
position = 1134;
width = 66;
}
);
};
};
width = 1240;
}
);
unicode = 3492;
}
{
glyphname = sinNyja;
layers = (
{
layerId = m001;
shapes = (
{
closed = 1;
nodes = (
(674,0,o),
(751,118,o),
(751,215,cs),
(751,328,o),
(673,389,o),
(577,389,cs),
(371,389,ls),
(275,389,o),
(197,328,o),
(197,215,cs),
(197,118,o),
(274,0,o),
(474,0,cs)
);
},
{
closed = 1;
nodes = (
(208,64,l),
(121,64,o),
(104,163,o),
(104,273,cs),
(104,370,o),
(142,471,o),
(216,471,cs),
(232,471,o),
(247,465,o),
(257,452,c),
(271,456,o),
(292,476,o),
(294,494,c),
(276,521,o),
(240,535,o),
(216,535,cs),
(101,535,o),
(40,413,o),
(40,273,cs),
(40,81,o),
(112,0,o),
(208,0,c)
);
},
{
closed = 1;
nodes = (
(307,66,o),
(263,148,o),
(263,215,cs),
(263,293,o),
(311,323,o),
(371,323,cs),
(577,323,ls),
(637,323,o),
(685,293,o),
(685,215,cs),
(685,148,o),
(641,66,o),
(474,66,cs)
);
},
{
closed = 1;
nodes = (
(499,323,l),
(516,430,o),
(483,535,o),
(363,535,cs),
(297,535,o),
(228,499,o),
(228,425,c),
(290,425,l),
(290,449,o),
(319,473,o),
(366,473,cs),
(449,473,o),
(450,397,o),
(439,373,c),
(459,323,l)
);
},
{
closed = 1;
nodes = (
(489,323,l),
(509,373,l),
(498,397,o),
(499,473,o),
(582,473,cs),
(629,473,o),
(658,449,o),
(658,425,c),
(720,425,l),
(720,499,o),
(651,535,o),
(585,535,cs),
(465,535,o),
(432,430,o),
(449,323,c)
);
},
{
closed = 1;
nodes = (
(624,516,l),
(624,554,o),
(656,579,o),
(694,618,cs),
(747,673,o),
(749,682,o),
(749,737,c),
(683,737,l),
(683,696,o),
(682,688,o),
(639,642,cs),
(564,563,o),
(558,560,o),
(558,516,c)
);
}
);
userData = {
com.fontlab.hintData = {
hhints = (
{
position = 0;
width = 66;
},
{
position = 323;
width = 66;
},
{
position = 471;
width = 64;
},
{
position = 516;
width = 19;
}
);
vhints = (
{
position = 40;
width = 64;
},
{
position = 197;
width = 66;
},
{
position = 228;
width = 62;
},
{
position = 558;
width = 66;
},
{
position = 658;
width = 62;
},
{
position = 685;
width = 66;
}
);
};
};
width = 791;
}
);
unicode = 3494;
}
{
glyphname = sinTtha;
layers = (
{
layerId = m001;
shapes = (
{
closed = 1;
nodes = (
(288,0,o),
(319,61,o),
(330,98,c),
(341,61,o),
(373,0,o),
(460,0,cs),
(622,0,o),
(643,174,o),
(643,301,cs),
(643,605,o),
(482,737,o),
(280,737,c),
(280,679,l),
(304,679,o),
(327,676,o),
(349,670,c),
(422,659,o),
(496,608,o),
(528,530,c),
(558,473,o),
(575,397,o),
(575,301,cs),
(575,198,o),
(559,68,o),
(460,68,cs),
(392,68,o),
(366,132,o),
(366,224,c),
(292,224,l),
(292,132,o),
(266,68,o),
(207,68,cs),
(133,68,o),
(108,138,o),
(108,210,cs),
(108,292,o),
(158,367,o),
(224,367,cs),
(261,367,o),
(279,355,o),
(289,348,c),
(325,403,l),
(308,417,o),
(278,435,o),
(224,435,cs),
(117,435,o),
(40,340,o),
(40,210,cs),
(40,118,o),
(85,0,o),
(207,0,cs)
);
},
{
closed = 1;
nodes = (
(518,471,o),
(542,476,o),
(556,478,c),
(533,535,l),
(523,533,o),
(500,531,o),
(484,531,cs),
(423,531,o),
(387,557,o),
(377,621,cs),
(375,637,o),
(368,661,o),
(351,674,c),
(315,715,l),
(280,679,l),
(298,677,o),
(313,658,o),
(322,596,cs),
(335,508,o),
(405,471,o),
(484,471,cs)
);
}
);
userData = {
com.fontlab.hintData = {
hhints = (
{
position = 0;
width = 68;
},
{
position = 367;
width = 68;
},
{
position = 471;
width = 60;
}
);
vhints = (
{
position = 40;
width = 68;
},
{
position = 292;
width = 74;
},
{
position = 575;
width = 68;
}
);
};
};
width = 683;
}
);
unicode = 3496;
}
{
glyphname = sinDda;
layers = (
{
layerId = m001;
shapes = (
{
closed = 1;
nodes = (
(301,0,o),
(332,61,o),
(343,98,c),
(354,61,o),
(386,0,o),
(473,0,cs),
(635,0,o),
(656,174,o),
(656,301,cs),
(656,605,o),
(512,737,o),
(331,737,cs),
(177,737,o),
(79,653,o),
(79,585,c),
(147,585,l),
(147,615,o),
(203,669,o),
(331,669,cs),
(471,669,o),
(588,566,o),
(588,301,cs),
(588,198,o),
(572,68,o),
(473,68,cs),
(405,68,o),
(379,132,o),
(379,224,c),
(305,224,l),
(305,132,o),
(279,68,o),
(220,68,cs),
(154,68,o),
(130,135,o),
(130,178,cs),
(130,281,o),
(178,329,o),
(243,329,cs),
(333,329,l),
(333,368,l),
(228,368,ls),
(131,368,o),
(64,292,o),
(64,178,cs),
(64,109,o),
(106,0,o),
(220,0,cs)
);
},
{
closed = 1;
nodes = (
(380,329,l),
(380,389,l),
(40,389,l),
(40,329,l)
);
},
{
closed = 1;
nodes = (
(380,329,l),
(410,444,o),
(366,535,o),
(242,535,cs),
(175,535,o),
(104,499,o),
(104,425,c),
(166,425,l),
(166,449,o),
(194,473,o),
(242,473,cs),
(333,473,o),
(333,406,o),
(324,374,c),
(340,329,l)
);
}
);
userData = {
com.fontlab.hintData = {
hhints = (
{
position = 0;
width = 68;
},
{
position = 329;
width = 60;
},
{
position = 329;
width = 39;
},
{
position = 473;
width = 62;
},
{
position = 669;
width = 68;
}
);
vhints = (
{
position = 64;
width = 66;
},
{
position = 79;
width = 68;
},
{
position = 104;
width = 62;
},
{
position = 305;
width = 74;
},
{
position = 588;
width = 68;
}
);
};
};
width = 696;
}
);
unicode = 3497;
}
{
glyphname = sinTa;
layers = (
{
layerId = m001;
shapes = (
{
closed = 1;
nodes = (
(704,-19,o),
(752,129,o),
(752,254,cs),
(752,384,o),
(693,535,o),
(496,535,cs),
(410,535,o),
(336,496,o),
(282,435,cs),
(226,372,o),
(181,322,o),
(40,184,c),
(83,142,l),
(174,233,o),
(262,328,o),
(313,373,cs),
(385,437,o),
(413,469,o),
(496,469,cs),
(658,469,o),
(684,322,o),
(684,254,cs),
(684,153,o),
(645,55,o),
(526,71,c),
(526,3,l)
);
},
{
closed = 1;
nodes = (
(423,0,o),
(518,53,o),
(518,198,cs),
(518,274,o),
(476,364,o),
(369,364,cs),
(290,364,o),
(230,320,o),
(230,320,c),
(200,260,l),
(234,302,o),
(290,303,o),
(332,303,cs),
(427,303,o),
(452,247,o),
(452,198,cs),
(452,120,o),
(407,66,o),
(305,66,cs),
(190,66,o),
(168,107,o),
(168,149,cs),
(168,172,o),
(161,195,o),
(129,195,c),
(83,142,ls),
(86,146,o),
(89,148,o),
(95,148,cs),
(107,148,o),
(113,135,o),
(113,111,cs),
(113,64,o),
(149,0,o),
(305,0,cs)
);
},
{
closed = 1;
nodes = (
(270,362,l),
(279,385,o),
(283,406,o),
(283,426,cs),
(283,491,o),
(246,535,o),
(175,535,cs),
(121,535,o),
(50,498,o),
(65,389,c),
(128,389,l),
(114,448,o),
(146,472,o),
(178,472,cs),
(211,472,o),
(233,442,o),
(233,409,cs),
(233,393,o),
(227,375,o),
(215,361,c),
(246,340,l)
);
}
);
userData = {
com.fontlab.hintData = {
hhints = (
{
position = 0;
width = 66;
},
{
position = 303;
width = 61;
},
{
position = 472;
width = 63;
}
);
vhints = (
{
position = 65;
width = 63;
},
{
position = 113;
width = 55;
},
{
position = 452;
width = 66;
},
{
position = 684;
width = 68;
}
);
};
};
width = 791;
}
);
unicode = 3501;
}
{
glyphname = sinDa;
layers = (
{
layerId = m001;
shapes = (
{
closed = 1;
nodes = (
(363,-1,o),
(423,32,o),
(459,76,c),
(459,76,o),
(426,113,o),
(415,127,c),
(389,93,o),
(347,66,o),
(285,66,cs),
(165,66,o),
(108,111,o),
(108,200,cs),
(108,295,o),
(182,323,o),
(255,323,cs),
(323,323,o),
(364,311,o),
(396,297,c),
(440,297,l),
(440,353,l),
(368,376,o),
(328,389,o),
(255,389,cs),
(130,389,o),
(40,324,o),
(40,200,cs),
(40,88,o),
(128,3,o),
(285,0,cs)
);
},
{
closed = 1;
nodes = (
(446,-200,o),
(500,-144,o),
(500,-79,c),
(434,-79,l),
(434,-121,o),
(384,-134,o),
(354,-134,cs),
(301,-134,o),
(268,-105,o),
(268,-65,cs),
(268,-29,o),
(282,-2,o),
(318,3,c),
(319,48,l),
(313,48,l),
(260,59,o),
(202,4,o),
(202,-65,cs),
(202,-140,o),
(266,-200,o),
(354,-200,cs)
);
},
{
closed = 1;
nodes = (
(443,323,o),
(444,348,o),
(444,371,cs),
(444,467,o),
(392,535,o),
(287,535,cs),
(215,535,o),
(140,499,o),
(140,425,c),
(204,425,l),
(204,448,o),
(236,471,o),
(289,471,cs),
(384,471,o),
(390,408,o),
(385,361,c),
(390,320,l),
(404,321,o),
(440,297,o),
(440,297,c)
);
}
);
userData = {
com.fontlab.hintData = {
hhints = (
{
position = -200;
width = 59;
},
{
position = 1;
width = 29;
},
{
position = 306;
width = 59;
},
{
position = 441;
width = 59;
}
);
vhints = (
{
position = 95;
width = 59;
},
{
position = 185;
width = 59;
},
{
position = 195;
width = 59;
},
{
position = 390;
width = 59;
}
);
};
};
width = 505;
}
);
unicode = 3503;
}
{
glyphname = sinDha;
layers = (
{
layerId = m001;
shapes = (
{
closed = 1;
nodes = (
(288,0,o),
(319,61,o),
(330,98,c),
(341,61,o),
(373,0,o),
(460,0,cs),
(622,0,o),
(643,174,o),
(643,301,cs),
(643,605,o),
(499,737,o),
(318,737,cs),
(164,737,o),
(66,653,o),
(66,585,c),
(134,585,l),
(134,615,o),
(190,669,o),
(318,669,cs),
(458,669,o),
(575,566,o),
(575,301,cs),
(575,198,o),
(559,68,o),
(460,68,cs),
(392,68,o),
(366,132,o),
(366,224,c),
(292,224,l),
(292,132,o),
(266,68,o),
(207,68,cs),
(133,68,o),
(108,138,o),
(108,210,cs),
(108,292,o),
(158,367,o),
(224,367,cs),
(261,367,o),
(279,355,o),
(289,348,c),
(325,403,l),
(308,417,o),
(278,435,o),
(224,435,cs),
(117,435,o),
(40,340,o),
(40,210,cs),
(40,118,o),
(85,0,o),
(207,0,cs)
);
}
);
userData = {
com.fontlab.hintData = {
hhints = (
{
position = 0;
width = 68;
},
{
position = 367;
width = 68;
},
{
position = 669;
width = 68;
}
);
vhints = (
{
position = 40;
width = 68;
},
{
position = 66;
width = 68;
},
{
position = 292;
width = 74;
},
{
position = 575;
width = 68;
}
);
};
};
width = 683;
}
);
unicode = 3504;
}
{
glyphname = sinNa;
layers = (
{
layerId = m001;
shapes = (
{
closed = 1;
nodes = (
(687,-19,o),
(735,129,o),
(735,254,cs),
(735,384,o),
(676,535,o),
(480,535,cs),
(396,535,o),
(304,488,o),
(266,392,cs),
(242,332,o),
(214,251,o),
(153,251,cs),
(127,251,o),
(103,263,o),
(100,285,c),
(48,264,l),
(78,209,o),
(114,188,o),
(154,188,cs),
(256,188,o),
(295,319,o),
(320,364,cs),
(359,433,o),
(407,469,o),
(480,469,cs),
(642,469,o),
(667,322,o),
(667,254,cs),
(667,153,o),
(628,55,o),
(510,71,c),
(510,3,l)
);
},
{
closed = 1;
nodes = (
(400,0,o),
(501,56,o),
(501,211,cs),
(501,283,o),
(465,368,o),
(374,368,cs),
(335,368,o),
(306,343,o),
(306,343,c),
(269,264,l),
(290,304,o),
(324,307,o),
(350,307,cs),
(417,307,o),
(435,256,o),
(435,211,cs),
(435,125,o),
(384,66,o),
(282,66,cs),
(153,66,o),
(80,146,o),
(100,285,c),
(44,285,l),
(24,162,o),
(79,0,o),
(282,0,cs)
);
},
{
closed = 1;
nodes = (
(289,348,l),
(333,460,o),
(277,535,o),
(183,535,cs),
(129,535,o),
(58,498,o),
(73,389,c),
(136,389,l),
(122,448,o),
(154,472,o),
(186,472,cs),
(250,472,o),
(276,412,o),
(248,346,c),
(263,321,l)
);
}
);
userData = {
com.fontlab.hintData = {
hhints = (
{
position = 0;
width = 66;
},
{
position = 188;
width = 63;
},
{
position = 307;
width = 61;
},
{
position = 472;
width = 63;
}
);
vhints = (
{
position = 73;
width = 63;
},
{
position = 435;
width = 66;
},
{
position = 667;
width = 68;
}
);
};
};
width = 774;
}
);
unicode = 3505;
}
{
glyphname = sinNda;
layers = (
{
layerId = m001;
shapes = (
{
closed = 1;
nodes = (
(505,-1,o),
(565,32,o),
(601,76,c),
(601,76,o),
(568,113,o),
(557,127,c),
(531,93,o),
(489,66,o),
(427,66,cs),
(307,66,o),
(250,111,o),
(250,200,cs),
(250,295,o),
(324,323,o),
(397,323,cs),
(465,323,o),
(506,311,o),
(538,297,c),
(582,297,l),
(582,353,l),
(510,376,o),
(470,389,o),
(397,389,cs),
(272,389,o),
(182,324,o),
(182,200,cs),
(182,88,o),
(270,3,o),
(427,0,cs)
);
},
{
closed = 1;
nodes = (
(588,-200,o),
(642,-144,o),
(642,-79,c),
(576,-79,l),
(576,-121,o),
(526,-134,o),
(496,-134,cs),
(443,-134,o),
(410,-105,o),
(410,-65,cs),
(410,-29,o),
(424,-2,o),
(460,3,c),
(461,48,l),
(455,48,l),
(402,59,o),
(344,4,o),
(344,-65,cs),
(344,-140,o),
(408,-200,o),
(496,-200,cs)
);
},
{
closed = 1;
nodes = (
(208,64,l),
(121,64,o),
(104,158,o),
(104,262,cs),
(104,364,o),
(146,471,o),
(229,471,cs),
(249,471,o),
(270,457,o),
(282,425,c),
(299,429,o),
(323,453,o),
(325,474,c),
(303,515,o),
(259,535,o),
(229,535,cs),
(105,535,o),
(40,408,o),
(40,262,cs),
(40,77,o),
(112,0,o),
(208,0,c)
);
},
{
closed = 1;
nodes = (
(585,323,o),
(586,348,o),
(586,371,cs),
(586,467,o),
(534,535,o),
(429,535,cs),
(357,535,o),
(282,499,o),
(282,425,c),
(346,425,l),
(346,448,o),
(378,471,o),
(431,471,cs),
(526,471,o),
(532,408,o),
(527,361,c),
(532,320,l),
(546,321,o),
(582,297,o),
(582,297,c)
);
}
);
userData = {
com.fontlab.hintData = {
hhints = (
{
position = -200;
width = 66;
},
{
position = 0;
width = 64;
},
{
position = 0;
width = 48;
},
{
position = 48;
width = 18;
},
{
position = 323;
width = 66;
},
{
position = 471;
width = 64;
}
);
vhints = (
{
position = 40;
width = 64;
},
{
position = 182;
width = 68;
},
{
position = 344;
width = 66;
},
{
position = 576;
width = 66;
}
);
};
};
width = 647;
}
);
unicode = 3507;
}
{
glyphname = sinBha;
layers = (
{
layerId = m001;
shapes = (
{
closed = 1;
nodes = (
(673,-29,o),
(757,118,o),
(757,262,cs),
(757,421,o),
(663,535,o),
(527,535,cs),
(392,535,o),
(290,442,o),
(290,245,c),
(358,245,l),
(358,392,o),
(422,467,o),
(527,467,cs),
(624,467,o),
(689,381,o),
(689,262,cs),
(689,139,o),
(619,46,o),
(499,73,c),
(499,5,l)
);
},
{
closed = 1;
nodes = (
(444,0,o),
(502,93,o),
(502,182,cs),
(502,303,o),
(401,348,o),
(335,313,c),
(355,264,l),
(389,285,o),
(434,243,o),
(434,182,cs),
(434,130,o),
(400,68,o),
(291,68,cs),
(195,68,o),
(126,106,o),
(126,209,cs),
(126,271,o),
(162,329,o),
(216,329,cs),
(352,329,l),
(352,361,l),
(214,361,ls),
(109,361,o),
(60,292,o),
(60,209,cs),
(60,82,o),
(141,0,o),
(291,0,cs)
);
},
{
closed = 1;
nodes = (
(342,329,l),
(342,389,l),
(40,389,l),
(40,329,l)
);
},
{
closed = 1;
nodes = (
(367,323,l),
(384,430,o),
(351,535,o),
(231,535,cs),
(165,535,o),
(96,499,o),
(96,425,c),
(158,425,l),
(158,449,o),
(187,473,o),
(234,473,cs),
(317,473,o),
(318,397,o),
(307,373,c),
(327,323,l)
);
}
);
userData = {
com.fontlab.hintData = {
hhints = (
{
position = 0;
width = 68;
},
{
position = 329;
width = 60;
},
{
position = 329;
width = 32;
},
{
position = 473;
width = 62;
}
);
vhints = (
{
position = 60;
width = 66;
},
{
position = 96;
width = 62;
},
{
position = 290;
width = 62;
},
{
position = 434;
width = 68;
},
{
position = 689;
width = 68;
}
);
};
};
width = 797;
}
);
unicode = 3511;
}
{
glyphname = sinMa;
layers = (
{
layerId = m001;
shapes = (
{
closed = 1;
nodes = (
(505,0,o),
(603,140,o),
(603,335,cs),
(603,597,o),
(484,737,o),
(300,737,cs),
(159,737,o),
(68,653,o),
(68,585,c),
(136,585,l),
(136,615,o),
(185,669,o),
(300,669,cs),
(443,669,o),
(535,552,o),
(535,335,cs),
(535,171,o),
(467,68,o),
(324,68,cs),
(175,68,o),
(108,169,o),
(108,306,cs),
(108,403,o),
(146,472,o),
(191,472,cs),
(204,472,o),
(213,464,o),
(213,452,cs),
(213,422,o),
(189,413,o),
(189,330,cs),
(189,264,o),
(238,202,o),
(312,202,cs),
(414,202,o),
(447,288,o),
(447,363,cs),
(447,480,o),
(377,547,o),
(311,533,c),
(311,466,l),
(355,474,o),
(383,441,o),
(383,363,cs),
(383,323,o),
(374,266,o),
(312,266,cs),
(275,266,o),
(252,293,o),
(252,334,cs),
(252,391,o),
(278,404,o),
(278,454,cs),
(278,498,o),
(257,535,o),
(193,535,cs),
(116,535,o),
(40,441,o),
(40,306,cs),
(40,142,o),
(115,0,o),
(324,0,cs)
);
}
);
userData = {
com.fontlab.hintData = {
hhints = (
{
position = 0;
width = 68;
},
{
position = 202;
width = 64;
},
{
position = 472;
width = 63;
},
{
position = 669;
width = 68;
}
);
vhints = (
{
position = 40;
width = 68;
},
{
position = 68;
width = 68;
},
{
position = 189;
width = 63;
},
{
position = 213;
width = 65;
},
{
position = 383;
width = 64;
},
{
position = 535;
width = 68;
}
);
};
};
width = 643;
}
);
unicode = 3512;
}
{
glyphname = sinMba;
layers = (
{
layerId = m001;
shapes = (
{
closed = 1;
nodes = (
(281,0,o),
(310,35,o),
(310,80,cs),
(310,112,o),
(296,115,o),
(296,133,cs),
(296,148,o),
(303,159,o),
(344,159,cs),
(385,159,o),
(393,148,o),
(393,133,cs),
(393,115,o),
(379,112,o),
(379,80,cs),
(379,35,o),
(408,0,o),
(479,0,cs),
(641,0,o),
(658,174,o),
(658,301,cs),
(658,605,o),
(513,737,o),
(333,737,cs),
(179,737,o),
(81,653,o),
(81,585,c),
(149,585,l),
(149,615,o),
(205,669,o),
(333,669,cs),
(473,669,o),
(590,566,o),
(590,301,cs),
(590,198,o),
(574,68,o),
(475,68,cs),
(450,68,o),
(441,76,o),
(441,90,cs),
(441,108,o),
(457,123,o),
(457,156,cs),
(457,213,o),
(389,219,o),
(344,219,cs),
(300,219,o),
(232,213,o),
(232,156,cs),
(232,123,o),
(248,108,o),
(248,90,cs),
(248,76,o),
(236,67,o),
(210,67,cs),
(124,67,o),
(108,165,o),
(108,267,cs),
(108,418,o),
(152,472,o),
(204,472,cs),
(217,472,o),
(226,464,o),
(226,452,cs),
(226,428,o),
(209,421,o),
(209,355,cs),
(209,297,o),
(258,242,o),
(333,242,cs),
(429,242,o),
(460,316,o),
(460,381,cs),
(460,486,o),
(390,545,o),
(324,533,c),
(324,466,l),
(368,472,o),
(396,445,o),
(396,381,cs),
(396,350,o),
(388,306,o),
(333,306,cs),
(295,306,o),
(272,327,o),
(272,359,cs),
(272,404,o),
(291,414,o),
(291,454,cs),
(291,498,o),
(270,535,o),
(206,535,cs),
(122,535,o),
(40,466,o),
(40,267,cs),
(40,114,o),
(78,0,o),
(210,0,cs)
);
}
);
userData = {
com.fontlab.hintData = {
hhints = (
{
position = 0;
width = 67;
},
{
position = 159;
width = 60;
},
{
position = 242;
width = 64;
},
{
position = 472;
width = 63;
},
{
position = 669;
width = 68;
}
);
vhints = (
{
position = 40;
width = 68;
},
{
position = 81;
width = 68;
},
{
position = 209;
width = 63;
},
{
position = 232;
width = 63;
},
{
position = 248;
width = 61;
},
{
position = 379;
width = 61;
},
{
position = 393;
width = 63;
},
{
position = 590;
width = 68;
}
);
};
};
width = 697;
}
);
unicode = 3513;
}
{
glyphname = sinRa;
layers = (
{
layerId = m001;
shapes = (
{
closed = 1;
nodes = (
(456,0,o),
(575,119,o),
(575,268,cs),
(575,421,o),
(460,520,o),
(342,520,cs),
(244,520,o),
(193,483,o),
(144,421,c),
(88,376,o),
(40,334,o),
(40,268,cs),
(40,119,o),
(159,0,o),
(308,0,cs)
);
},
{
closed = 1;
nodes = (
(197,68,o),
(108,157,o),
(108,268,cs),
(108,372,o),
(197,457,o),
(307,457,cs),
(431,457,o),
(507,372,o),
(507,268,cs),
(507,157,o),
(418,68,o),
(308,68,cs)
);
},
{
closed = 1;
nodes = (
(72,295,l),
(106,316,l),
(106,337,o),
(115,369,o),
(123,381,cs),
(171,455,o),
(209,480,o),
(262,528,cs),
(339,598,o),
(432,665,o),
(432,758,c),
(354,758,l),
(354,682,o),
(280,625,o),
(194,543,cs),
(101,454,o),
(40,376,o),
(40,268,c)
);
}
);
userData = {
com.fontlab.hintData = {
hhints = (
{
position = 0;
width = 68;
},
{
position = 457;
width = 63;
}
);
vhints = (
{
position = 40;
width = 68;
},
{
position = 354;
width = 78;
},
{
position = 507;
width = 68;
}
);
};
};
width = 615;
}
);
unicode = 3515;
}
{
glyphname = sinLa;
layers = (
{
layerId = m001;
shapes = (
{
closed = 1;
nodes = (
(508,-200,o),
(618,-109,o),
(618,13,c),
(550,13,l),
(550,-65,o),
(476,-132,o),
(361,-132,cs),
(186,-132,o),
(108,12,o),
(108,161,cs),
(108,316,o),
(178,467,o),
(341,467,cs),
(494,467,o),
(549,366,o),
(549,264,cs),
(549,202,o),
(526,130,o),
(429,130,cs),
(394,130,o),
(364,158,o),
(364,193,cs),
(364,222,o),
(385,256,o),
(435,265,c),
(435,331,l),
(267,331,l),
(267,268,l),
(345,268,l),
(312,249,o),
(295,215,o),
(295,178,cs),
(295,121,o),
(336,61,o),
(429,61,cs),
(557,61,o),
(617,150,o),
(617,264,cs),
(617,389,o),
(548,535,o),
(341,535,cs),
(141,535,o),
(40,360,o),
(40,161,cs),
(40,-32,o),
(147,-200,o),
(361,-200,cs)
);
}
);
userData = {
com.fontlab.hintData = {
hhints = (
{
position = -200;
width = 68;
},
{
position = 61;
width = 69;
},
{
position = 268;
width = 63;
},
{
position = 467;
width = 68;
}
);
vhints = (
{
position = 40;
width = 68;
},
{
position = 295;
width = 69;
},
{
position = 549;
width = 68;
}
);
};
};
width = 657;
}
);
unicode = 3517;
}
{
glyphname = sinVa;
layers = (
{
layerId = m001;
shapes = (
{
closed = 1;
nodes = (
(494,0,o),
(599,140,o),
(599,335,cs),
(599,597,o),
(475,737,o),
(285,737,cs),
(144,737,o),
(53,653,o),
(53,585,c),
(121,585,l),
(121,615,o),
(170,669,o),
(285,669,cs),
(435,669,o),
(531,552,o),
(531,335,cs),
(531,171,o),
(456,68,o),
(300,68,cs),
(170,68,o),
(108,153,o),
(108,221,cs),
(108,293,o),
(147,329,o),
(199,329,cs),
(349,329,l),
(349,389,l),
(199,389,ls),
(106,389,o),
(40,347,o),
(40,221,cs),
(40,121,o),
(125,0,o),
(300,0,cs)
);
},
{
closed = 1;
nodes = (
(352,329,l),
(382,444,o),
(337,535,o),
(214,535,cs),
(147,535,o),
(76,499,o),
(76,425,c),
(138,425,l),
(138,449,o),
(165,473,o),
(214,473,cs),
(305,473,o),
(305,406,o),
(296,374,c),
(311,329,l)
);
}
);
userData = {
com.fontlab.hintData = {
hhints = (
{
position = 0;
width = 68;
},
{
position = 329;
width = 60;
},
{
position = 473;
width = 62;
},
{
position = 669;
width = 68;
}
);
vhints = (
{
position = 40;
width = 68;
},
{
position = 53;
width = 68;
},
{
position = 76;
width = 62;
},
{
position = 531;
width = 68;
}
);
};
};
width = 638;
}
);
unicode = 3520;
}
{
glyphname = sinSha;
layers = (
{
layerId = m001;
shapes = (
{
closed = 1;
nodes = (
(643,-29,o),
(727,118,o),
(727,262,cs),
(727,421,o),
(633,535,o),
(497,535,cs),
(365,535,o),
(265,442,o),
(265,245,c),
(333,245,l),
(333,392,o),
(395,467,o),
(497,467,cs),
(594,467,o),
(659,381,o),
(659,262,cs),
(659,139,o),
(589,46,o),
(469,73,c),
(469,5,l)
);
},
{
closed = 1;
nodes = (
(421,0,o),
(472,93,o),
(472,182,cs),
(472,303,o),
(374,348,o),
(311,313,c),
(331,255,l),
(363,273,o),
(404,236,o),
(404,182,cs),
(404,130,o),
(378,68,o),
(269,68,cs),
(172,68,o),
(108,154,o),
(108,273,cs),
(108,396,o),
(178,489,o),
(298,462,c),
(298,530,l),
(125,564,o),
(40,417,o),
(40,273,cs),
(40,114,o),
(133,0,o),
(269,0,cs)
);
},
{
closed = 1;
nodes = (
(614,87,l),
(586,103,o),
(570,138,o),
(570,166,cs),
(570,202,o),
(586,225,o),
(618,225,cs),
(640,225,o),
(656,213,o),
(679,195,c),
(691,245,l),
(677,266,o),
(643,285,o),
(612,285,cs),
(546,285,o),
(506,242,o),
(506,166,cs),
(506,118,o),
(536,81,o),
(565,57,c)
);
}
);
userData = {
com.fontlab.hintData = {
hhints = (
{
position = 0;
width = 68;
},
{
position = 225;
width = 60;
},
{
position = 467;
width = 68;
}
);
vhints = (
{
position = 40;
width = 68;
},
{
position = 265;
width = 68;
},
{
position = 404;
width = 68;
},
{
position = 506;
width = 64;
}
);
};
};
width = 766;
}
);
unicode = 3521;
}
{
glyphname = sinSa;
layers = (
{
layerId = m001;
shapes = (
{
closed = 1;
nodes = (
(317,0,o),
(338,86,o),
(343,117,c),
(347,86,o),
(368,0,o),
(477,0,cs),
(591,0,o),
(634,99,o),
(634,200,cs),
(634,331,o),
(566,389,o),
(487,389,cs),
(40,389,l),
(40,329,l),
(109,329,l),
(73,301,o),
(52,249,o),
(52,178,cs),
(52,109,o),
(82,0,o),
(209,0,cs)
);
},
{
closed = 1;
nodes = (
(137,67,o),
(120,134,o),
(120,178,cs),
(120,246,o),
(155,323,o),
(218,323,cs),
(485,323,ls),
(541,323,o),
(566,259,o),
(566,200,cs),
(566,128,o),
(541,67,o),
(477,67,cs),
(389,67,o),
(384,160,o),
(380,224,c),
(305,224,l),
(302,160,o),
(296,67,o),
(209,67,cs)
);
},
{
closed = 1;
nodes = (
(368,323,l),
(385,430,o),
(352,535,o),
(232,535,cs),
(166,535,o),
(97,499,o),
(97,425,c),
(159,425,l),
(159,449,o),
(188,473,o),
(235,473,cs),
(318,473,o),
(319,397,o),
(308,373,c),
(328,323,l)
);
},
{
closed = 1;
nodes = (
(358,323,l),
(377,373,l),
(366,397,o),
(368,473,o),
(451,473,cs),
(498,473,o),
(527,449,o),
(527,425,c),
(589,425,l),
(589,499,o),
(520,535,o),
(454,535,cs),
(333,535,o),
(301,430,o),
(317,323,c)
);
}
);
userData = {
com.fontlab.hintData = {
hhints = (
{
position = 0;
width = 67;
},
{
position = 323;
width = 66;
},
{
position = 473;
width = 62;
}
);
vhints = (
{
position = 52;
width = 68;
},
{
position = 97;
width = 62;
},
{
position = 305;
width = 75;
},
{
position = 527;
width = 62;
},
{
position = 566;
width = 68;
}
);
};
};
width = 673;
}
);
unicode = 3523;
}
{
glyphname = sinLla;
layers = (
{
layerId = m001;
shapes = (
{
closed = 1;
nodes = (
(501,-200,o),
(617,-109,o),
(617,13,c),
(549,13,l),
(549,-65,o),
(469,-132,o),
(345,-132,cs),
(193,-132,o),
(109,-44,o),
(109,92,cs),
(109,192,o),
(157,282,o),
(237,282,cs),
(551,282,l),
(551,344,l),
(233,344,ls),
(137,344,o),
(40,248,o),
(40,92,cs),
(40,-78,o),
(138,-200,o),
(345,-200,cs)
);
},
{
closed = 1;
nodes = (
(477,78,o),
(535,140,o),
(535,213,c),
(467,213,l),
(467,175,o),
(435,146,o),
(368,146,cs),
(289,146,o),
(254,180,o),
(254,221,cs),
(254,252,o),
(275,285,o),
(310,285,c),
(258,305,l),
(214,294,o),
(188,255,o),
(188,221,cs),
(188,144,o),
(243,78,o),
(368,78,cs)
);
},
{
closed = 1;
nodes = (
(551,282,l),
(565,314,o),
(575,362,o),
(575,398,cs),
(575,476,o),
(541,535,o),
(460,535,cs),
(407,535,o),
(374,511,o),
(363,475,c),
(351,509,o),
(315,535,o),
(260,535,cs),
(171,535,o),
(135,479,o),
(135,420,cs),
(135,343,o),
(215,304,o),
(257,304,c),
(279,317,l),
(272,344,l),
(218,344,o),
(202,386,o),
(202,412,cs),
(202,445,o),
(223,471,o),
(265,471,cs),
(324,471,o),
(332,436,o),
(332,389,cs),
(332,321,l),
(393,321,l),
(393,389,ls),
(393,443,o),
(409,471,o),
(460,471,cs),
(506,471,o),
(518,437,o),
(518,398,cs),
(518,365,o),
(507,329,o),
(496,298,c),
(524,282,l)
);
}
);
userData = {
com.fontlab.hintData = {
hhints = (
{
position = -200;
width = 68;
},
{
position = 61;
width = 69;
},
{
position = 78;
width = 68;
},
{
position = 268;
width = 63;
},
{
position = 282;
width = 62;
},
{
position = 321;
width = 23;
},
{
position = 471;
width = 64;
}
);
vhints = (
{
position = -683;
width = 68;
},
{
position = -428;
width = 69;
},
{
position = -174;
width = 68;
},
{
position = 40;
width = 69;
},
{
position = 155;
width = 62;
},
{
position = 188;
width = 66;
},
{
position = 337;
width = 61;
},
{
position = 467;
width = 68;
},
{
position = 518;
width = 57;
},
{
position = 549;
width = 68;
}
);
};
};
width = 656;
}
);
unicode = 3525;
}
{
glyphname = sinFa;
layers = (
{
layerId = m001;
shapes = (
{
closed = 1;
nodes = (
(230,1,o),
(238,1,o),
(247,2,c),
(247,68,l),
(240,67,o),
(234,67,o),
(228,67,cs),
(135,67,o),
(106,135,o),
(106,281,cs),
(106,401,o),
(125,468,o),
(197,468,cs),
(285,468,o),
(290,375,o),
(294,311,c),
(369,311,l),
(372,375,o),
(378,468,o),
(466,468,cs),
(538,468,o),
(557,401,o),
(557,281,cs),
(557,135,o),
(527,67,o),
(435,67,cs),
(429,67,o),
(422,67,o),
(416,68,c),
(416,2,l),
(425,1,o),
(433,1,o),
(441,1,cs),
(572,1,o),
(623,104,o),
(623,281,cs),
(623,417,o),
(591,535,o),
(466,535,cs),
(357,535,o),
(336,449,o),
(331,418,c),
(327,449,o),
(306,535,o),
(197,535,cs),
(72,535,o),
(40,417,o),
(40,281,cs),
(40,104,o),
(91,1,o),
(222,1,cs)
);
}
);
userData = {
com.fontlab.hintData = {
hhints = (
{
position = 1;
width = 66;
},
{
position = 468;
width = 67;
}
);
vhints = (
{
position = 40;
width = 66;
},
{
position = 294;
width = 75;
},
{
position = 557;
width = 66;
}
);
};
};
width = 662;
}
);
unicode = 3526;
}
{
glyphname = sinVirama;
layers = (
{
layerId = m001;
shapes = (
{
closed = 1;
nodes = (
(-57,450,l),
(-57,737,l),
(-124,737,l),
(-124,450,l)
);
}
);
userData = {
com.fontlab.hintData = {
hhints = (
{
position = 450;
width = 287;
}
);
vhints = (
{
position = -124;
width = 67;
}
);
};
};
width = 5;
}
);
unicode = 3530;
}
{
glyphname = sinMatraAa;
layers = (
{
layerId = m001;
shapes = (
{
closed = 1;
nodes = (
(163,0,o),
(215,88,o),
(215,250,cs),
(215,412,o),
(163,500,o),
(84,500,cs),
(58,500,o),
(40,496,o),
(5,473,c),
(39,419,l),
(52,428,o),
(62,432,o),
(69,432,cs),
(119,432,o),
(149,368,o),
(149,250,cs),
(149,132,o),
(119,68,o),
(69,68,cs),
(62,68,o),
(52,72,o),
(39,81,c),
(5,27,l),
(40,4,o),
(58,0,o),
(84,0,cs)
);
}
);
userData = {
com.fontlab.hintData = {
hhints = (
{
position = 0;
width = 68;
},
{
position = 432;
width = 68;
}
);
vhints = (
{
position = 149;
width = 66;
}
);
};
};
width = 255;
}
);
unicode = 3535;
}
{
glyphname = sinMatraAe;
layers = (
{
layerId = m001;
shapes = (
{
closed = 1;
nodes = (
(282,0,o),
(300,107,o),
(300,172,c),
(232,172,l),
(232,134,o),
(218,68,o),
(150,68,cs),
(102,68,o),
(73,94,o),
(73,143,cs),
(73,227,o),
(139,255,o),
(261,435,c),
(261,500,l),
(34,500,l),
(34,435,l),
(184,435,l),
(71,277,o),
(5,237,o),
(5,143,cs),
(5,49,o),
(60,0,o),
(150,0,cs)
);
}
);
userData = {
com.fontlab.hintData = {
hhints = (
{
position = 0;
width = 68;
},
{
position = 435;
width = 65;
}
);
vhints = (
{
position = 5;
width = 68;
},
{
position = 232;
width = 68;
}
);
};
};
width = 340;
}
);
unicode = 3536;
}
{
glyphname = sinMatraAae;
layers = (
{
layerId = m001;
shapes = (
{
closed = 1;
nodes = (
(281,0,o),
(300,105,o),
(300,172,c),
(232,172,l),
(232,133,o),
(217,68,o),
(144,68,cs),
(100,68,o),
(73,85,o),
(73,120,cs),
(73,158,o),
(103,180,o),
(138,216,cs),
(178,258,o),
(226,295,o),
(260,326,c),
(260,341,o),
(260,364,o),
(213,364,c),
(181,339,o),
(138,301,o),
(94,263,cs),
(38,214,o),
(5,181,o),
(5,120,cs),
(5,40,o),
(58,0,o),
(144,0,cs)
);
},
{
closed = 1;
nodes = (
(260,326,l),
(260,382,l),
(34,382,l),
(34,326,l)
);
},
{
closed = 1;
nodes = (
(119,382,l),
(213,441,l),
(260,441,l),
(260,500,l),
(34,500,l),
(34,441,l),
(132,441,l),
(34,382,l)
);
}
);
userData = {
com.fontlab.hintData = {
hhints = (
{
position = 0;
width = 68;
},
{
position = 326;
width = 38;
},
{
position = 441;
width = 59;
}
);
vhints = (
{
position = 5;
width = 68;
},
{
position = 232;
width = 68;
}
);
};
};
width = 340;
}
);
unicode = 3537;
}
{
glyphname = sinMatraI;
layers = (
{
layerId = m001;
shapes = (
{
closed = 1;
nodes = (
(-462,628,l),
(-479,701,o),
(-392,734,o),
(-289,734,cs),
(-185,734,o),
(-99,701,o),
(-116,628,c),
(-50,628,l),
(-32,744,o),
(-154,800,o),
(-289,800,cs),
(-424,800,o),
(-546,744,o),
(-528,628,c)
);
}
);
userData = {
com.fontlab.hintData = {
hhints = (
{
position = 734;
width = 66;
}
);
vhints = (
{
position = -528;
width = 66;
},
{
position = -116;
width = 66;
}
);
};
};
width = 0;
}
);
unicode = 3538;
}
{
glyphname = sinMatraIi;
layers = (
{
layerId = m001;
shapes = (
{
closed = 1;
nodes = (
(-462,628,l),
(-479,701,o),
(-392,734,o),
(-289,734,cs),
(-218,734,o),
(-150,723,o),
(-120,694,c),
(-84,682,o),
(-79,656,o),
(-79,628,c),
(-54,628,l),
(-53,636,o),
(-48,643,o),
(-48,651,cs),
(-48,751,o),
(-163,800,o),
(-289,800,cs),
(-424,800,o),
(-546,744,o),
(-528,628,c)
);
},
{
closed = 1;
nodes = (
(-83,571,o),
(-48,608,o),
(-48,651,cs),
(-48,691,o),
(-72,709,o),
(-113,709,c),
(-167,725,o),
(-205,690,o),
(-205,646,cs),
(-205,605,o),
(-174,571,o),
(-126,571,cs)
);
},
{
closed = 1;
nodes = (
(-143,625,o),
(-152,637,o),
(-152,650,cs),
(-152,663,o),
(-139,675,o),
(-126,675,cs),
(-114,675,o),
(-102,663,o),
(-102,650,cs),
(-102,637,o),
(-114,625,o),
(-126,625,cs)
);
}
);
userData = {
com.fontlab.hintData = {
hhints = (
{
position = 571;
width = 55;
},
{
position = 628;
width = 84;
},
{
position = 734;
width = 66;
}
);
vhints = (
{
position = -528;
width = 66;
},
{
position = -205;
width = 54;
},
{
position = -102;
width = 54;
},
{
position = -94;
width = 46;
}
);
};
};
width = 0;
}
);
unicode = 3539;
}
{
glyphname = sinMatraU;
layers = (
{
layerId = m001;
shapes = (
{
closed = 1;
nodes = (
(-109,-200,l),
(-109,-136,l),
(-473,-136,ls),
(-512,-136,o),
(-521,-112,o),
(-521,-86,c),
(-589,-86,l),
(-589,-144,o),
(-557,-200,o),
(-476,-200,cs)
);
},
{
closed = 1;
nodes = (
(-54,-200,l),
(-54,129,l),
(-105,93,l),
(-118,25,l),
(-118,-200,l)
);
}
);
userData = {
com.fontlab.hintData = {
hhints = (
{
position = -200;
width = 64;
}
);
vhints = (
{
position = -118;
width = 9;
},
{
position = -105;
width = 51;
}
);
};
};
width = 0;
}
);
unicode = 3540;
}
{
glyphname = sinMatraUu;
layers = (
{
layerId = m001;
shapes = (
{
closed = 1;
nodes = (
(-371,-200,o),
(-305,-127,o),
(-225,-127,cs),
(-209,-127,o),
(-163,-127,o),
(-118,-200,c),
(-94,-151,l),
(-126,-100,o),
(-171,-63,o),
(-225,-63,cs),
(-313,-63,o),
(-368,-135,o),
(-441,-135,cs),
(-490,-135,o),
(-487,-114,o),
(-481,-69,c),
(-543,-69,l),
(-554,-108,o),
(-568,-200,o),
(-449,-200,cs)
);
},
{
closed = 1;
nodes = (
(-54,-200,l),
(-54,129,l),
(-105,93,l),
(-118,25,l),
(-118,-200,l)
);
}
);
userData = {
com.fontlab.hintData = {
hhints = (
{
position = -200;
width = 65;
},
{
position = -127;
width = 64;
}
);
vhints = (
{
position = -543;
width = 62;
},
{
position = -118;
width = 64;
},
{
position = -105;
width = 51;
}
);
};
};
width = 0;
}
);
unicode = 3542;
}
{
glyphname = sinMatraR;
layers = (
{
layerId = m001;
shapes = (
{
closed = 1;
nodes = (
(283,0,l),
(283,364,ls),
(283,449,o),
(272,535,o),
(141,535,cs),
(78,535,o),
(14,510,o),
(14,421,c),
(78,421,l),
(78,436,o),
(82,475,o),
(141,475,cs),
(210,475,o),
(219,431,o),
(219,364,cs),
(219,0,l)
);
},
{
closed = 1;
nodes = (
(195,0,o),
(217,40,o),
(232,87,c),
(219,87,o),
(219,137,o),
(219,151,cs),
(219,90,o),
(179,60,o),
(138,60,cs),
(103,60,o),
(69,76,o),
(69,160,cs),
(69,202,o),
(75,266,o),
(137,266,cs),
(172,266,o),
(200,253,o),
(221,219,c),
(221,284,l),
(200,309,o),
(171,326,o),
(137,326,cs),
(76,326,o),
(5,291,o),
(5,160,cs),
(5,55,o),
(57,0,o),
(138,0,cs)
);
}
);
userData = {
com.fontlab.hintData = {
hhints = (
{
position = 0;
width = 60;
},
{
position = 266;
width = 60;
},
{
position = 475;
width = 60;
}
);
vhints = (
{
position = 5;
width = 64;
},
{
position = 14;
width = 64;
},
{
position = 219;
width = 64;
},
{
position = 219;
width = 2;
}
);
};
};
width = 323;
}
);
unicode = 3544;
}
{
glyphname = sinMatraE;
layers = (
{
layerId = m001;
shapes = (
{
closed = 1;
nodes = (
(433,0,o),
(498,94,o),
(498,184,cs),
(498,314,o),
(412,369,o),
(307,348,c),
(307,282,l),
(390,295,o),
(432,268,o),
(432,184,cs),
(432,126,o),
(390,66,o),
(292,66,cs),
(170,66,o),
(106,148,o),
(106,261,cs),
(106,381,o),
(171,469,o),
(290,469,cs),
(372,469,o),
(406,440,o),
(412,418,c),
(478,418,l),
(469,476,o),
(392,535,o),
(290,535,cs),
(127,535,o),
(40,413,o),
(40,261,cs),
(40,110,o),
(125,0,o),
(292,0,cs)
);
}
);
userData = {
com.fontlab.hintData = {
hhints = (
{
position = 0;
width = 66;
},
{
position = 282;
width = 66;
},
{
position = 469;
width = 66;
}
);
vhints = (
{
position = 40;
width = 66;
},
{
position = 412;
width = 66;
},
{
position = 432;
width = 66;
}
);
};
};
width = 503;
}
);
unicode = 3545;
}
{
glyphname = sinMatraEe;
layers = (
{
layerId = m001;
shapes = (
{
closed = 1;
nodes = (
(743,225,o),
(782,279,o),
(782,335,cs),
(782,391,o),
(743,445,o),
(675,445,cs),
(614,445,o),
(569,394,o),
(569,335,cs),
(569,277,o),
(611,225,o),
(675,225,cs)
);
},
{
ref = sinMatraE;
},
{
pos = (862,0);
ref = sinVirama;
}
);
userData = {
com.fontlab.hintData = {
hhints = (
{
position = 0;
width = 66;
},
{
position = 225;
width = 220;
},
{
position = 282;
width = 66;
},
{
position = 450;
width = 287;
},
{
position = 469;
width = 66;
}
);
vhints = (
{
position = 20;
width = 66;
},
{
position = 392;
width = 66;
},
{
position = 412;
width = 66;
},
{
position = 569;
width = 213;
},
{
position = 738;
width = 67;
}
);
};
};
width = 825;
}
);
unicode = 3546;
}
{
glyphname = sinMatraO;
layers = (
{
layerId = m001;
shapes = (
{
closed = 1;
nodes = (
(743,225,o),
(782,279,o),
(782,335,cs),
(782,391,o),
(743,445,o),
(675,445,cs),
(614,445,o),
(569,394,o),
(569,335,cs),
(569,277,o),
(611,225,o),
(675,225,cs)
);
},
{
ref = sinMatraE;
},
{
pos = (846,3);
ref = sinMatraAa;
}
);
userData = {
com.fontlab.hintData = {
hhints = (
{
position = 0;
width = 66;
},
{
position = 3;
width = 68;
},
{
position = 225;
width = 220;
},
{
position = 282;
width = 66;
},
{
position = 435;
width = 68;
},
{
position = 469;
width = 66;
}
);
vhints = (
{
position = 20;
width = 66;
},
{
position = 392;
width = 66;
},
{
position = 412;
width = 66;
},
{
position = 569;
width = 213;
},
{
position = 1010;
width = 66;
}
);
};
};
width = 1111;
}
);
unicode = 3548;
}
{
category = Mark;
glyphname = "ausign-sinh";
layers = (
{
layerId = m001;
shapes = (
{
closed = 1;
nodes = (
(776,225,o),
(815,279,o),
(815,335,cs),
(815,391,o),
(776,445,o),
(708,445,cs),
(647,445,o),
(602,394,o),
(602,335,cs),
(602,277,o),
(644,225,o),
(708,225,cs)
);
},
{
pos = (12,0);
ref = "esign-sinh";
},
{
pos = (918,0);
ref = "vocalicllsign-sinh";
}
);
width = 1359;
}
);
script = sinhala;
subCategory = Spacing;
unicode = 3550;
}
{
glyphname = sinMatraAu;
layers = (
{
layerId = m001;
shapes = (
{
closed = 1;
nodes = (
(776,225,o),
(815,279,o),
(815,335,cs),
(815,391,o),
(776,445,o),
(708,445,cs),
(647,445,o),
(602,394,o),
(602,335,cs),
(602,277,o),
(644,225,o),
(708,225,cs)
);
},
{
pos = (12,0);
ref = sinMatraE;
},
{
pos = (918,0);
ref = sinMatraLs;
}
);
width = 1359;
}
);
unicode = 3550;
}
{
glyphname = sinMatraLs;
layers = (
{
layerId = m001;
shapes = (
{
closed = 1;
nodes = (
(345,0,o),
(391,80,o),
(391,269,cs),
(391,428,o),
(365,535,o),
(260,535,cs),
(220,535,o),
(150,526,o),
(150,380,cs),
(150,306,o),
(129,296,o),
(105,296,cs),
(82,296,o),
(69,315,o),
(69,372,cs),
(69,398,o),
(69,475,o),
(122,475,c),
(122,535,l),
(83,535,o),
(5,518,o),
(5,372,cs),
(5,320,o),
(18,232,o),
(105,232,cs),
(162,232,o),
(208,250,o),
(208,380,cs),
(208,458,o),
(229,471,o),
(260,471,cs),
(316,471,o),
(327,389,o),
(327,269,cs),
(327,123,o),
(301,65,o),
(217,65,cs),
(165,65,o),
(125,76,o),
(125,125,c),
(61,125,l),
(61,35,o),
(132,0,o),
(217,0,cs)
);
}
);
userData = {
com.fontlab.hintData = {
hhints = (
{
position = 0;
width = 65;
},
{
position = 232;
width = 64;
},
{
position = 471;
width = 64;
}
);
vhints = (
{
position = 5;
width = 64;
},
{
position = 61;
width = 64;
},
{
position = 150;
width = 58;
},
{
position = 327;
width = 64;
}
);
};
};
width = 431;
}
);
unicode = 3551;
}
{
glyphname = sinZerolith;
layers = (
{
layerId = m001;
shapes = (
{
closed = 1;
nodes = (
(151,127,l),
(151,698,l),
(136,689,o),
(122,681,o),
(107,676,cs),
(92,671,o),
(79,665,o),
(67,659,cs),
(56,654,o),
(46,647,o),
(39,638,cs),
(32,630,o),
(29,619,o),
(29,604,cs),
(29,593,o),
(32,584,o),
(39,575,cs),
(46,567,o),
(54,560,o),
(65,553,cs),
(76,547,o),
(87,542,o),
(99,537,cs),
(131,526,l),
(142,553,l),
(118,559,o),
(98,566,o),
(83,573,cs),
(68,581,o),
(60,591,o),
(60,604,cs),
(60,611,o),
(64,619,o),
(71,628,cs),
(78,638,o),
(94,646,o),
(120,652,c),
(121,546,l),
(120,126,l)
);
},
{
closed = 1;
nodes = (
(151,342,l),
(160,338,o),
(170,335,o),
(179,333,cs),
(188,330,o),
(196,329,o),
(204,329,cs),
(237,329,o),
(261,338,o),
(278,357,cs),
(294,376,o),
(302,398,o),
(302,423,cs),
(302,448,o),
(296,469,o),
(283,485,cs),
(270,501,o),
(253,514,o),
(234,523,cs),
(214,532,o),
(194,540,o),
(174,546,cs),
(121,562,l),
(121,212,l),
(151,192,l)
);
},
{
closed = 1;
nodes = (
(180,360,o),
(173,361,o),
(168,362,cs),
(162,364,o),
(156,366,o),
(151,369,c),
(151,519,l),
(184,506,o),
(208,490,o),
(223,473,cs),
(237,456,o),
(244,438,o),
(244,419,cs),
(244,410,o),
(242,401,o),
(239,392,cs),
(235,383,o),
(229,375,o),
(221,369,cs),
(212,363,o),
(201,360,o),
(187,360,cs)
);
}
);
width = 331;
}
);
unicode = 3558;
}
{
glyphname = sinOnelith;
layers = (
{
layerId = m001;
shapes = (
{
closed = 1;
nodes = (
(433,0,o),
(498,94,o),
(498,184,cs),
(498,314,o),
(412,369,o),
(307,348,c),
(307,282,l),
(390,295,o),
(432,268,o),
(432,184,cs),
(432,126,o),
(390,66,o),
(292,66,cs),
(170,66,o),
(106,143,o),
(106,251,cs),
(106,377,o),
(191,469,o),
(348,469,cs),
(553,469,o),
(669,281,o),
(669,0,c),
(732,0,l),
(732,319,o),
(599,535,o),
(348,535,cs),
(147,535,o),
(40,408,o),
(40,251,cs),
(40,106,o),
(125,0,o),
(292,0,cs)
);
}
);
userData = {
com.fontlab.hintData = {
hhints = (
{
position = 0;
width = 66;
},
{
position = 282;
width = 66;
},
{
position = 469;
width = 66;
}
);
vhints = (
{
position = 40;
width = 66;
},
{
position = 412;
width = 66;
},
{
position = 432;
width = 66;
}
);
};
};
width = 818;
}
);
unicode = 3559;
}
{
glyphname = sinTwolith;
layers = (
{
layerId = m001;
shapes = (
{
closed = 1;
nodes = (
(433,0,o),
(498,94,o),
(498,184,cs),
(498,314,o),
(412,369,o),
(307,348,c),
(307,282,l),
(390,295,o),
(432,268,o),
(432,184,cs),
(432,126,o),
(390,66,o),
(292,66,cs),
(170,66,o),
(106,143,o),
(106,251,cs),
(106,377,o),
(191,469,o),
(348,469,cs),
(553,469,o),
(669,281,o),
(669,0,c),
(732,0,l),
(732,319,o),
(599,535,o),
(348,535,cs),
(147,535,o),
(40,408,o),
(40,251,cs),
(40,106,o),
(125,0,o),
(292,0,cs)
);
},
{
closed = 1;
nodes = (
(732,240,ls),
(732,391,o),
(800,432,o),
(859,432,cs),
(930,432,o),
(973,368,o),
(973,250,cs),
(973,132,o),
(943,68,o),
(893,68,cs),
(863,70,l),
(862,4,l),
(882,1,o),
(893,0,o),
(908,0,cs),
(987,0,o),
(1039,88,o),
(1039,250,cs),
(1039,412,o),
(967,500,o),
(858,500,cs),
(770,500,o),
(671,447,o),
(671,242,cs),
(672,75,l),
(732,0,l)
);
}
);
userData = {
com.fontlab.hintData = {
hhints = (
{
position = 0;
width = 66;
},
{
position = 282;
width = 66;
},
{
position = 469;
width = 66;
}
);
vhints = (
{
position = 40;
width = 66;
},
{
position = 412;
width = 66;
},
{
position = 432;
width = 66;
}
);
};
};
width = 1038;
}
);
unicode = 3560;
}
{
glyphname = sinMatraLl;
layers = (
{
layerId = m001;
shapes = (
{
closed = 1;
nodes = (
(268,-1,o),
(299,9,o),
(325,30,cs),
(351,51,o),
(371,83,o),
(386,127,cs),
(401,170,o),
(408,227,o),
(408,296,cs),
(408,331,o),
(406,364,o),
(402,397,cs),
(399,430,o),
(393,459,o),
(384,486,cs),
(375,513,o),
(363,534,o),
(346,550,cs),
(329,565,o),
(308,573,o),
(281,573,cs),
(247,573,o),
(221,560,o),
(204,534,cs),
(187,507,o),
(176,471,o),
(171,426,cs),
(170,410,o),
(168,395,o),
(165,380,cs),
(162,365,o),
(158,354,o),
(152,345,cs),
(146,336,o),
(137,331,o),
(126,331,cs),
(114,331,o),
(105,335,o),
(98,344,cs),
(92,352,o),
(88,362,o),
(86,375,cs),
(85,387,o),
(84,399,o),
(84,411,cs),
(84,440,o),
(87,461,o),
(92,476,cs),
(98,490,o),
(105,500,o),
(114,505,cs),
(123,510,o),
(133,513,o),
(143,513,c),
(143,570,l),
(122,570,o),
(102,565,o),
(84,554,cs),
(66,543,o),
(52,525,o),
(41,502,cs),
(31,479,o),
(26,448,o),
(26,409,cs),
(26,384,o),
(29,362,o),
(35,341,cs),
(42,320,o),
(52,304,o),
(67,291,cs),
(82,278,o),
(101,272,o),
(126,272,cs),
(152,272,o),
(172,279,o),
(185,293,cs),
(199,307,o),
(209,325,o),
(214,346,cs),
(220,367,o),
(224,389,o),
(227,410,cs),
(230,442,o),
(236,466,o),
(244,483,cs),
(252,500,o),
(264,508,o),
(280,508,cs),
(299,508,o),
(313,500,o),
(323,483,cs),
(332,466,o),
(339,442,o),
(343,410,cs),
(346,378,o),
(348,340,o),
(348,296,cs),
(348,239,o),
(343,192,o),
(332,157,cs),
(321,122,o),
(308,97,o),
(291,81,cs),
(274,65,o),
(255,57,o),
(235,57,cs),
(216,57,o),
(201,61,o),
(192,70,cs),
(183,79,o),
(178,90,o),
(178,101,cs),
(178,115,o),
(183,125,o),
(193,132,cs),
(203,139,o),
(215,143,o),
(229,143,cs),
(253,143,o),
(272,137,o),
(286,125,cs),
(300,114,o),
(310,101,o),
(317,88,c),
(345,136,l),
(338,147,o),
(329,157,o),
(318,166,cs),
(306,175,o),
(293,183,o),
(278,188,cs),
(263,194,o),
(246,197,o),
(229,197,cs),
(196,197,o),
(170,188,o),
(150,169,cs),
(129,151,o),
(119,127,o),
(119,97,cs),
(119,67,o),
(129,43,o),
(150,25,cs),
(170,8,o),
(198,-1,o),
(233,-1,cs)
);
}
);
width = 451;
}
);
unicode = 3571;
}
{
glyphname = sinkundaliya;
layers = (
{
layerId = m001;
shapes = (
{
closed = 1;
nodes = (
(326,2,ls),
(371,2,o),
(405,11,o),
(430,28,cs),
(455,46,o),
(474,71,o),
(487,103,cs),
(500,135,o),
(511,172,o),
(520,214,cs),
(544,338,l),
(477,338,l),
(454,218,ls),
(448,189,o),
(440,163,o),
(431,140,cs),
(422,117,o),
(408,99,o),
(389,86,cs),
(371,73,o),
(346,66,o),
(313,66,cs),
(140,66,ls),
(125,66,o),
(114,71,o),
(108,80,cs),
(103,90,o),
(100,102,o),
(100,116,cs),
(100,123,o),
(100,130,o),
(101,138,cs),
(102,146,o),
(104,153,o),
(106,160,c),
(42,167,l),
(39,155,o),
(37,143,o),
(36,132,cs),
(35,121,o),
(34,110,o),
(34,99,cs),
(34,70,o),
(41,46,o),
(55,28,cs),
(70,11,o),
(94,2,o),
(127,2,cs)
);
},
{
closed = 1;
nodes = (
(682,141,l),
(659,193,ls),
(656,200,o),
(647,207,o),
(634,214,cs),
(592,239,ls),
(577,248,o),
(563,256,o),
(552,265,cs),
(541,274,o),
(536,284,o),
(536,293,cs),
(536,297,o),
(536,302,o),
(537,308,cs),
(538,314,o),
(539,318,o),
(540,321,c),
(477,321,l),
(511,232,ls),
(514,222,o),
(523,213,o),
(536,205,cs),
(580,180,ls),
(596,171,o),
(610,162,o),
(621,152,cs),
(633,142,o),
(639,130,o),
(639,116,cs),
(639,113,o),
(639,109,o),
(638,105,cs),
(638,102,o),
(637,98,o),
(636,94,c)
);
},
{
closed = 1;
nodes = (
(697,68,l),
(789,482,l),
(721,482,l),
(630,68,l)
);
},
{
closed = 1;
nodes = (
(928,292,l),
(904,345,ls),
(901,352,o),
(893,359,o),
(880,366,cs),
(838,390,ls),
(823,399,o),
(809,407,o),
(798,416,cs),
(787,425,o),
(782,435,o),
(782,444,cs),
(782,448,o),
(782,453,o),
(783,459,cs),
(784,465,o),
(784,469,o),
(785,472,c),
(723,472,l),
(756,383,ls),
(760,373,o),
(769,364,o),
(782,356,cs),
(825,331,ls),
(841,323,o),
(855,314,o),
(866,303,cs),
(878,293,o),
(884,281,o),
(884,268,cs),
(884,264,o),
(884,260,o),
(883,256,cs),
(883,253,o),
(883,249,o),
(882,245,c)
);
},
{
closed = 1;
nodes = (
(943,218,l),
(1040,660,l),
(973,660,l),
(876,218,l)
);
},
{
closed = 1;
nodes = (
(1174,465,l),
(1151,517,ls),
(1148,524,o),
(1140,531,o),
(1128,539,cs),
(1087,563,ls),
(1072,572,o),
(1060,581,o),
(1049,590,cs),
(1038,599,o),
(1033,608,o),
(1033,617,cs),
(1033,621,o),
(1033,626,o),
(1034,632,cs),
(1035,638,o),
(1035,642,o),
(1036,645,c),
(974,645,l),
(1007,556,ls),
(1011,547,o),
(1019,538,o),
(1032,529,cs),
(1074,504,ls),
(1089,495,o),
(1103,486,o),
(1114,475,cs),
(1125,465,o),
(1131,453,o),
(1131,439,cs),
(1131,428,l),
(1130,425,o),
(1130,421,o),
(1129,417,c)
);
},
{
closed = 1;
nodes = (
(1172,317,l),
(1277,789,l),
(1210,789,l),
(1105,317,l)
);
},
{
closed = 1;
nodes = (
(1381,236,l),
(1484,706,l),
(1418,706,l),
(1314,236,l)
);
},
{
closed = 1;
nodes = (
(1208,481,o),
(1215,493,o),
(1226,503,cs),
(1237,512,o),
(1251,520,o),
(1267,527,cs),
(1283,534,o),
(1299,540,o),
(1316,545,cs),
(1332,550,o),
(1347,556,o),
(1361,562,cs),
(1375,567,o),
(1385,573,o),
(1392,580,cs),
(1445,640,l),
(1410,671,l),
(1407,658,o),
(1400,647,o),
(1387,638,cs),
(1374,629,o),
(1358,621,o),
(1341,615,cs),
(1324,608,o),
(1306,602,o),
(1289,597,cs),
(1271,591,o),
(1255,585,o),
(1242,579,cs),
(1229,572,o),
(1220,564,o),
(1216,555,c),
(1172,531,l),
(1205,468,l)
);
},
{
closed = 1;
nodes = (
(1398,320,o),
(1406,333,o),
(1418,344,cs),
(1430,354,o),
(1444,363,o),
(1461,370,cs),
(1478,377,o),
(1495,384,o),
(1513,390,cs),
(1530,395,o),
(1546,401,o),
(1561,407,cs),
(1575,412,o),
(1586,419,o),
(1593,427,cs),
(1647,487,l),
(1611,518,l),
(1608,504,o),
(1599,492,o),
(1586,482,cs),
(1572,472,o),
(1556,464,o),
(1538,457,cs),
(1483,437,ls),
(1464,431,o),
(1448,425,o),
(1434,418,cs),
(1420,411,o),
(1411,403,o),
(1406,393,c),
(1362,370,l),
(1395,305,l)
);
},
{
closed = 1;
nodes = (
(1592,129,l),
(1678,522,l),
(1612,522,l),
(1526,129,l)
);
},
{
closed = 1;
nodes = (
(1596,148,o),
(1603,160,o),
(1615,171,cs),
(1626,181,o),
(1640,190,o),
(1657,197,cs),
(1673,204,o),
(1690,210,o),
(1707,216,cs),
(1754,234,ls),
(1768,240,o),
(1778,247,o),
(1785,254,cs),
(1838,314,l),
(1803,346,l),
(1800,331,o),
(1792,319,o),
(1779,310,cs),
(1766,300,o),
(1750,292,o),
(1732,285,cs),
(1678,265,ls),
(1659,258,o),
(1643,252,o),
(1630,245,cs),
(1617,238,o),
(1608,230,o),
(1604,220,c),
(1559,197,l),
(1593,133,l)
);
},
{
closed = 1;
nodes = (
(2174,14,ls),
(2207,14,o),
(2231,23,o),
(2245,40,cs),
(2259,57,o),
(2266,80,o),
(2266,110,cs),
(2266,121,o),
(2265,133,o),
(2264,144,cs),
(2263,155,o),
(2261,167,o),
(2258,178,c),
(2195,172,l),
(2199,150,ls),
(2200,142,o),
(2200,134,o),
(2200,127,cs),
(2200,113,o),
(2197,101,o),
(2192,92,cs),
(2186,82,o),
(2176,77,o),
(2161,77,cs),
(1888,77,ls),
(1869,77,o),
(1855,82,o),
(1846,92,cs),
(1836,102,o),
(1831,117,o),
(1831,137,cs),
(1831,142,o),
(1831,147,o),
(1832,152,cs),
(1834,168,l),
(1870,349,l),
(1803,349,l),
(1764,162,l),
(1762,143,ls),
(1761,137,o),
(1761,131,o),
(1761,125,cs),
(1761,102,o),
(1766,83,o),
(1776,66,cs),
(1785,49,o),
(1798,36,o),
(1815,27,cs),
(1832,18,o),
(1850,14,o),
(1869,14,cs)
);
}
);
width = 2304;
}
);
unicode = 3572;
}
{
glyphname = uni200C;
layers = (
{
layerId = m001;
shapes = (
{
closed = 1;
nodes = (
(30,1,l),
(30,800,l),
(-33,800,l),
(-33,1,l)
);
}
);
width = 0;
}
);
unicode = 8204;
}
{
glyphname = uni200D;
layers = (
{
layerId = m001;
shapes = (
{
closed = 1;
nodes = (
(203,751,l),
(166,800,l),
(-197,547,l),
(-158,496,l)
);
},
{
closed = 1;
nodes = (
(30,7,l),
(30,653,l),
(-32,653,l),
(-32,7,l)
);
},
{
closed = 1;
nodes = (
(196,547,l),
(-166,800,l),
(-204,751,l),
(160,496,l)
);
}
);
width = 0;
}
);
unicode = 8205;
}
{
glyphname = quoteleft;
layers = (
{
layerId = m001;
shapes = (
{
closed = 1;
nodes = (
(130,616,l),
(129,706,l),
(146,800,l),
(92,800,l),
(80,753,o),
(70,725,o),
(61,679,c),
(61,616,l)
);
}
);
width = 206;
}
);
unicode = 8216;
}
{
glyphname = quoteright;
layers = (
{
layerId = m001;
shapes = (
{
closed = 1;
nodes = (
(114,616,l),
(126,663,o),
(136,691,o),
(145,737,c),
(145,800,l),
(76,800,l),
(77,710,l),
(72,674,o),
(68,652,o),
(60,616,c)
);
}
);
width = 198;
}
);
unicode = 8217;
}
{
glyphname = quotesinglbase;
layers = (
{
layerId = m001;
shapes = (
{
closed = 1;
nodes = (
(107,-121,l),
(119,-74,o),
(129,-46,o),
(138,0,c),
(138,63,l),
(69,63,l),
(70,-27,l),
(65,-63,o),
(61,-85,o),
(53,-121,c)
);
}
);
width = 682;
}
);
unicode = 8218;
}
{
glyphname = quotedblleft;
layers = (
{
layerId = m001;
shapes = (
{
closed = 1;
nodes = (
(271,616,l),
(270,706,l),
(287,800,l),
(233,800,l),
(221,753,o),
(211,725,o),
(202,679,c),
(202,616,l)
);
},
{
closed = 1;
nodes = (
(157,616,l),
(156,706,l),
(173,800,l),
(119,800,l),
(107,753,o),
(97,725,o),
(88,679,c),
(88,616,l)
);
}
);
width = 364;
}
);
unicode = 8220;
}
{
glyphname = quotedblright;
layers = (
{
layerId = m001;
shapes = (
{
closed = 1;
nodes = (
(266,616,l),
(278,663,o),
(288,691,o),
(297,737,c),
(297,800,l),
(228,800,l),
(229,710,l),
(224,674,o),
(220,652,o),
(212,616,c)
);
},
{
closed = 1;
nodes = (
(152,616,l),
(164,663,o),
(174,691,o),
(183,737,c),
(183,800,l),
(114,800,l),
(115,710,l),
(110,674,o),
(106,652,o),
(98,616,c)
);
}
);
width = 347;
}
);
unicode = 8221;
}
{
glyphname = quotedblbase;
layers = (
{
layerId = m001;
shapes = (
{
closed = 1;
nodes = (
(243,-121,l),
(255,-74,o),
(265,-46,o),
(274,0,c),
(274,63,l),
(205,63,l),
(206,-27,l),
(201,-63,o),
(197,-85,o),
(189,-121,c)
);
},
{
closed = 1;
nodes = (
(129,-121,l),
(141,-74,o),
(151,-46,o),
(160,0,c),
(160,63,l),
(91,63,l),
(92,-27,l),
(87,-63,o),
(83,-85,o),
(75,-121,c)
);
}
);
width = 328;
}
);
unicode = 8222;
}
{
glyphname = ellipsis;
layers = (
{
layerId = m001;
shapes = (
{
closed = 1;
nodes = (
(569,-9,o),
(582,-3,o),
(592,8,cs),
(603,19,o),
(608,33,o),
(608,52,cs),
(608,70,o),
(603,84,o),
(593,95,cs),
(583,105,o),
(570,110,o),
(554,110,cs),
(539,110,o),
(526,105,o),
(516,95,cs),
(506,84,o),
(501,70,o),
(501,52,cs),
(501,33,o),
(506,18,o),
(516,7,cs),
(526,-4,o),
(539,-9,o),
(554,-9,cs)
);
},
{
closed = 1;
nodes = (
(128,-9,o),
(141,-3,o),
(151,8,cs),
(162,19,o),
(167,33,o),
(167,52,cs),
(167,70,o),
(162,84,o),
(152,95,cs),
(142,105,o),
(129,110,o),
(113,110,cs),
(98,110,o),
(85,105,o),
(75,95,cs),
(65,84,o),
(60,70,o),
(60,52,cs),
(60,33,o),
(65,18,o),
(75,7,cs),
(85,-4,o),
(98,-9,o),
(113,-9,cs)
);
},
{
closed = 1;
nodes = (
(349,-9,o),
(362,-3,o),
(372,8,cs),
(383,19,o),
(388,33,o),
(388,52,cs),
(388,70,o),
(383,84,o),
(373,95,cs),
(363,105,o),
(350,110,o),
(334,110,cs),
(319,110,o),
(306,105,o),
(296,95,cs),
(286,84,o),
(281,70,o),
(281,52,cs),
(281,33,o),
(286,18,o),
(296,7,cs),
(306,-4,o),
(319,-9,o),
(334,-9,cs)
);
}
);
width = 678;
}
);
unicode = 8230;
}
{
glyphname = guilsinglleft;
layers = (
{
layerId = m001;
shapes = (
{
closed = 1;
nodes = (
(252,133,l),
(115,301,l),
(255,468,l),
(202,510,l),
(33,300,l),
(199,89,l)
);
}
);
width = 301;
}
);
unicode = 8249;
}
{
glyphname = guilsinglright;
layers = (
{
layerId = m001;
shapes = (
{
closed = 1;
nodes = (
(268,299,l),
(101,509,l),
(49,466,l),
(186,298,l),
(46,131,l),
(98,89,l)
);
}
);
width = 301;
}
);
unicode = 8250;
}
{
glyphname = fraction;
layers = (
{
layerId = m001;
shapes = (
{
closed = 1;
nodes = (
(575,836,l),
(505,836,l),
(30,-11,l),
(102,-13,l)
);
}
);
width = 617;
}
);
unicode = 8260;
}
{
glyphname = uni2074;
layers = (
{
layerId = m001;
shapes = (
{
closed = 1;
nodes = (
(317,307,l),
(317,770,l),
(240,770,l),
(32,457,l),
(38,413,l),
(374,414,l),
(374,469,l),
(80,469,l),
(94,453,l),
(268,719,l),
(251,719,l),
(251,307,l)
);
}
);
width = 409;
}
);
unicode = 8308;
}
{
glyphname = uni25CC;
layers = (
{
layerId = m001;
shapes = (
{
closed = 1;
nodes = (
(691,290,o),
(703,295,o),
(713,304,cs),
(722,314,o),
(727,325,o),
(727,338,cs),
(727,351,o),
(722,363,o),
(713,372,cs),
(703,381,o),
(692,386,o),
(679,386,cs),
(666,386,o),
(654,381,o),
(645,372,cs),
(635,363,o),
(630,351,o),
(630,338,cs),
(630,325,o),
(635,314,o),
(645,304,cs),
(654,295,o),
(665,290,o),
(678,290,cs)
);
},
{
closed = 1;
nodes = (
(135,141,o),
(147,146,o),
(156,155,cs),
(165,165,o),
(170,176,o),
(170,189,cs),
(170,202,o),
(165,214,o),
(156,223,cs),
(147,232,o),
(135,237,o),
(121,237,cs),
(108,237,o),
(97,232,o),
(88,223,cs),
(79,214,o),
(74,202,o),
(74,189,cs),
(74,176,o),
(79,165,o),
(88,155,cs),
(97,146,o),
(108,141,o),
(121,141,cs)
);
},
{
closed = 1;
nodes = (
(244,32,o),
(256,37,o),
(266,46,cs),
(275,56,o),
(280,67,o),
(280,80,cs),
(280,93,o),
(275,104,o),
(266,113,cs),
(256,122,o),
(245,127,o),
(232,127,cs),
(219,127,o),
(207,122,o),
(198,113,cs),
(188,104,o),
(183,93,o),
(183,80,cs),
(183,67,o),
(188,56,o),
(198,46,cs),
(207,37,o),
(218,32,o),
(231,32,cs)
);
},
{
closed = 1;
nodes = (
(95,290,o),
(107,295,o),
(116,304,cs),
(125,314,o),
(130,325,o),
(130,338,cs),
(130,351,o),
(125,363,o),
(116,372,cs),
(107,381,o),
(95,386,o),
(82,386,cs),
(69,386,o),
(57,381,o),
(48,372,cs),
(39,363,o),
(34,351,o),
(34,338,cs),
(34,325,o),
(39,314,o),
(48,304,cs),
(57,295,o),
(69,290,o),
(82,290,cs)
);
},
{
closed = 1;
nodes = (
(393,-8,o),
(405,-3,o),
(414,6,cs),
(423,16,o),
(428,27,o),
(428,40,cs),
(428,53,o),
(423,65,o),
(414,74,cs),
(405,83,o),
(394,88,o),
(381,88,cs),
(368,88,o),
(356,83,o),
(347,74,cs),
(337,65,o),
(332,53,o),
(332,40,cs),
(332,27,o),
(337,16,o),
(347,6,cs),
(356,-3,o),
(367,-8,o),
(380,-8,cs)
);
},
{
closed = 1;
nodes = (
(542,32,o),
(554,37,o),
(563,46,cs),
(572,56,o),
(577,67,o),
(577,80,cs),
(577,93,o),
(572,104,o),
(563,113,cs),
(554,122,o),
(542,127,o),
(529,127,cs),
(516,127,o),
(504,122,o),
(495,113,cs),
(486,104,o),
(481,93,o),
(481,80,cs),
(481,67,o),
(486,56,o),
(495,46,cs),
(504,37,o),
(516,32,o),
(529,32,cs)
);
},
{
closed = 1;
nodes = (
(135,439,o),
(147,444,o),
(156,453,cs),
(165,463,o),
(170,474,o),
(170,487,cs),
(170,500,o),
(165,512,o),
(156,521,cs),
(147,530,o),
(135,535,o),
(121,535,cs),
(108,535,o),
(97,530,o),
(88,521,cs),
(79,512,o),
(74,500,o),
(74,487,cs),
(74,474,o),
(79,463,o),
(88,453,cs),
(97,444,o),
(108,439,o),
(121,439,cs)
);
},
{
closed = 1;
nodes = (
(652,141,o),
(664,146,o),
(673,155,cs),
(682,165,o),
(687,176,o),
(687,189,cs),
(687,202,o),
(682,214,o),
(673,223,cs),
(664,232,o),
(652,237,o),
(639,237,cs),
(626,237,o),
(615,232,o),
(606,223,cs),
(596,214,o),
(591,202,o),
(591,189,cs),
(591,176,o),
(596,165,o),
(606,155,cs),
(615,146,o),
(626,141,o),
(639,141,cs)
);
},
{
closed = 1;
nodes = (
(244,549,o),
(256,554,o),
(266,563,cs),
(275,572,o),
(280,583,o),
(280,596,cs),
(280,609,o),
(275,621,o),
(266,630,cs),
(256,639,o),
(245,644,o),
(232,644,cs),
(219,644,o),
(207,639,o),
(198,630,cs),
(188,621,o),
(183,609,o),
(183,596,cs),
(183,583,o),
(188,572,o),
(198,563,cs),
(207,554,o),
(218,549,o),
(231,549,cs)
);
},
{
closed = 1;
nodes = (
(393,588,o),
(405,593,o),
(414,602,cs),
(423,612,o),
(428,623,o),
(428,636,cs),
(428,649,o),
(423,661,o),
(414,670,cs),
(405,679,o),
(394,684,o),
(381,684,cs),
(368,684,o),
(356,679,o),
(347,670,cs),
(337,661,o),
(332,649,o),
(332,636,cs),
(332,623,o),
(337,612,o),
(347,602,cs),
(356,593,o),
(367,588,o),
(380,588,cs)
);
},
{
closed = 1;
nodes = (
(542,549,o),
(554,554,o),
(563,563,cs),
(572,572,o),
(577,583,o),
(577,596,cs),
(577,609,o),
(572,621,o),
(563,630,cs),
(554,639,o),
(542,644,o),
(529,644,cs),
(516,644,o),
(504,639,o),
(495,630,cs),
(486,621,o),
(481,609,o),
(481,596,cs),
(481,583,o),
(486,572,o),
(495,563,cs),
(504,554,o),
(516,549,o),
(529,549,cs)
);
},
{
closed = 1;
nodes = (
(652,439,o),
(664,444,o),
(673,453,cs),
(682,463,o),
(687,474,o),
(687,487,cs),
(687,500,o),
(682,512,o),
(673,521,cs),
(664,530,o),
(652,535,o),
(639,535,cs),
(626,535,o),
(615,530,o),
(606,521,cs),
(596,512,o),
(591,500,o),
(591,487,cs),
(591,474,o),
(596,463,o),
(606,453,cs),
(615,444,o),
(626,439,o),
(639,439,cs)
);
}
);
width = 760;
}
);
unicode = 9676;
}
{
glyphname = u111E1;
layers = (
{
layerId = m001;
shapes = (
{
closed = 1;
nodes = (
(433,0,o),
(498,94,o),
(498,184,cs),
(498,314,o),
(412,369,o),
(307,348,c),
(307,282,l),
(390,295,o),
(432,268,o),
(432,184,cs),
(432,126,o),
(390,66,o),
(292,66,cs),
(170,66,o),
(106,143,o),
(106,251,cs),
(106,377,o),
(191,469,o),
(348,469,cs),
(571,469,o),
(698,264,o),
(698,68,c),
(750,68,l),
(750,311,o),
(610,535,o),
(348,535,cs),
(147,535,o),
(40,408,o),
(40,251,cs),
(40,106,o),
(125,0,o),
(292,0,cs)
);
},
{
closed = 1;
nodes = (
(764,0,l),
(764,535,l),
(699,535,l),
(699,0,l)
);
}
);
userData = {
com.fontlab.hintData = {
hhints = (
{
position = 0;
width = 66;
},
{
position = 282;
width = 66;
},
{
position = 469;
width = 66;
}
);
vhints = (
{
position = 40;
width = 66;
},
{
position = 412;
width = 66;
},
{
position = 432;
width = 66;
}
);
};
};
width = 818;
}
);
unicode = 70113;
}
{
glyphname = u111E2;
layers = (
{
layerId = m001;
shapes = (
{
closed = 1;
nodes = (
(967,-152,o),
(977,-50,o),
(977,0,c),
(911,0,l),
(911,-44,o),
(890,-87,o),
(835,-87,cs),
(731,-87,o),
(687,10,o),
(658,198,cs),
(623,426,o),
(481,535,o),
(312,535,cs),
(134,535,o),
(40,408,o),
(40,251,cs),
(40,106,o),
(125,0,o),
(292,0,cs),
(433,0,o),
(498,94,o),
(498,184,cs),
(498,314,o),
(412,369,o),
(307,348,c),
(307,282,l),
(390,295,o),
(432,268,o),
(432,184,cs),
(432,126,o),
(390,66,o),
(292,66,cs),
(170,66,o),
(106,143,o),
(106,251,cs),
(106,377,o),
(179,469,o),
(312,469,cs),
(436,469,o),
(560,400,o),
(596,184,cs),
(625,10,o),
(668,-152,o),
(835,-152,cs)
);
}
);
width = 818;
}
);
unicode = 70114;
}
{
glyphname = u111E6;
layers = (
{
layerId = m001;
shapes = (
{
closed = 1;
nodes = (
(635,0,o),
(740,140,o),
(740,335,cs),
(740,597,o),
(617,737,o),
(427,737,cs),
(285,737,o),
(194,653,o),
(194,585,c),
(262,585,l),
(262,615,o),
(311,669,o),
(427,669,cs),
(576,669,o),
(672,552,o),
(672,335,cs),
(672,171,o),
(598,68,o),
(442,68,cs),
(311,68,o),
(249,153,o),
(249,221,cs),
(249,293,o),
(288,329,o),
(340,329,cs),
(490,329,l),
(490,389,l),
(340,389,ls),
(247,389,o),
(181,347,o),
(181,221,cs),
(181,121,o),
(266,0,o),
(442,0,cs)
);
},
{
closed = 1;
nodes = (
(208,64,l),
(121,64,o),
(104,163,o),
(104,273,cs),
(104,370,o),
(142,471,o),
(216,471,cs),
(232,471,o),
(247,465,o),
(257,452,c),
(272,456,o),
(292,476,o),
(294,494,c),
(276,521,o),
(240,535,o),
(216,535,cs),
(101,535,o),
(40,413,o),
(40,273,cs),
(40,81,o),
(112,0,o),
(208,0,c)
);
},
{
closed = 1;
nodes = (
(472,351,l),
(472,389,l),
(348,389,ls),
(310,389,o),
(299,465,o),
(343,465,cs),
(486,465,l),
(486,522,l),
(343,522,ls),
(292,522,o),
(250,482,o),
(250,435,cs),
(250,387,o),
(290,350,o),
(347,350,cs)
);
},
{
closed = 1;
nodes = (
(1020,64,l),
(933,64,o),
(916,163,o),
(916,273,cs),
(916,370,o),
(953,471,o),
(1028,471,cs),
(1043,471,o),
(1059,465,o),
(1069,452,c),
(1083,456,o),
(1103,476,o),
(1106,494,c),
(1088,521,o),
(1052,535,o),
(1028,535,cs),
(912,535,o),
(852,413,o),
(852,273,cs),
(852,81,o),
(924,0,o),
(1020,0,c)
);
},
{
closed = 1;
nodes = (
(1447,0,o),
(1551,140,o),
(1551,335,cs),
(1551,597,o),
(1428,737,o),
(1238,737,cs),
(1097,737,o),
(1006,653,o),
(1006,585,c),
(1073,585,l),
(1073,615,o),
(1122,669,o),
(1238,669,cs),
(1387,669,o),
(1483,552,o),
(1483,335,cs),
(1483,171,o),
(1409,68,o),
(1253,68,cs),
(1123,68,o),
(1061,153,o),
(1061,221,cs),
(1061,293,o),
(1099,329,o),
(1151,329,cs),
(1302,329,l),
(1302,389,l),
(1151,389,ls),
(1058,389,o),
(993,347,o),
(993,221,cs),
(993,121,o),
(1078,0,o),
(1253,0,cs)
);
},
{
closed = 1;
nodes = (
(1305,329,l),
(1334,444,o),
(1290,535,o),
(1166,535,cs),
(1100,535,o),
(1028,499,o),
(1028,425,c),
(1090,425,l),
(1090,449,o),
(1118,473,o),
(1166,473,cs),
(1257,473,o),
(1257,406,o),
(1248,374,c),
(1264,329,l)
);
}
);
width = 780;
}
);
unicode = 70118;
}
{
glyphname = .notdef;
layers = (
{
layerId = m001;
shapes = (
{
closed = 1;
nodes = (
(661,-105,l),
(661,858,l),
(57,858,l),
(57,-105,l)
);
},
{
closed = 1;
nodes = (
(346,65,o),
(355,69,o),
(362,76,cs),
(369,83,o),
(372,91,o),
(372,101,cs),
(372,111,o),
(369,120,o),
(362,127,cs),
(355,134,o),
(346,137,o),
(337,137,cs),
(327,137,o),
(319,134,o),
(312,127,cs),
(305,120,o),
(301,111,o),
(301,101,cs),
(301,91,o),
(305,83,o),
(312,76,cs),
(319,69,o),
(327,65,o),
(337,65,cs)
);
},
{
closed = 1;
nodes = (
(123,790,l),
(594,790,l),
(594,-40,l),
(123,-40,l)
);
},
{
closed = 1;
nodes = (
(366,169,l),
(366,307,l),
(380,307,o),
(396,310,o),
(413,317,cs),
(430,323,o),
(447,333,o),
(462,346,cs),
(477,359,o),
(490,375,o),
(500,396,cs),
(509,417,o),
(514,442,o),
(514,471,cs),
(513,517,o),
(498,555,o),
(470,585,cs),
(442,614,o),
(403,629,o),
(353,629,cs),
(328,629,o),
(305,625,o),
(286,617,cs),
(267,608,o),
(251,598,o),
(238,586,cs),
(225,574,o),
(215,563,o),
(206,553,c),
(245,516,l),
(251,524,o),
(258,532,o),
(267,541,cs),
(276,550,o),
(287,558,o),
(301,565,cs),
(314,572,o),
(331,575,o),
(350,575,cs),
(371,575,o),
(390,570,o),
(406,560,cs),
(422,550,o),
(434,537,o),
(443,520,cs),
(451,504,o),
(455,486,o),
(455,467,cs),
(455,426,o),
(442,398,o),
(417,383,cs),
(391,368,o),
(354,360,o),
(307,359,c),
(307,169,l)
);
}
);
width = 719;
}
);
}
{
category = Mark;
glyphname = "aasign_virama-sinh";
layers = (
{
layerId = m001;
shapes = (
{
closed = 1;
nodes = (
(131,450,l),
(131,737,l),
(64,737,l),
(68,450,l)
);
},
{
ref = "aasign-sinh";
}
);
width = 255;
}
);
subCategory = Spacing;
}
{
glyphname = four.osf;
layers = (
{
layerId = m001;
shapes = (
{
closed = 1;
nodes = (
(384,0,l),
(384,640,l),
(315,640,l),
(5,232,l),
(5,177,l),
(474,176,l),
(474,241,l),
(63,241,l),
(74,227,l),
(339,567,l),
(316,567,l),
(316,0,l)
);
}
);
width = 514;
}
);
}
{
glyphname = "kSs-sinh";
layers = (
{
layerId = m001;
shapes = (
{
closed = 1;
nodes = (
(977,499,l),
(977,737,l),
(910,737,l),
(910,499,l)
);
},
{
ref = "kSsa-sinh";
}
);
width = 1144;
}
);
}
{
glyphname = mooniak;
layers = (
{
layerId = m001;
shapes = (
{
closed = 1;
nodes = (
(692.6,656,cs),
(692.6,719.2,o),
(743.8,770.4,o),
(807,770.4,cs),
(870.2,770.4,o),
(921.4,719.2,o),
(921.4,656,cs),
(921.4,592.8,o),
(870.2,541.6,o),
(807,541.6,cs),
(743.8,541.6,o),
(692.6,592.8,o)
);
},
{
closed = 1;
nodes = (
(30.4,371,cs),
(30.4,544.8,o),
(171.2,685.6,o),
(345,685.6,cs),
(518.8,685.6,o),
(659.6,544.8,o),
(659.6,371,cs),
(659.6,197.2,o),
(518.8,56.4,o),
(345,56.4,cs),
(171.2,56.4,o),
(30.4,197.2,o)
);
}
);
width = 952;
}
);
}
{
glyphname = nine.osf;
layers = (
{
layerId = m001;
shapes = (
{
closed = 1;
nodes = (
(381,-9,o),
(457,91,o),
(457,330,cs),
(457,555,o),
(375,640,o),
(248,640,cs),
(104,640,o),
(40,512,o),
(40,415,cs),
(40,254,o),
(150,191,o),
(232,191,cs),
(366,191,o),
(398,289,o),
(409,315,c),
(397,315,l),
(397,208,o),
(371,59,o),
(234,59,cs),
(172,59,o),
(123,100,o),
(123,134,c),
(55,134,l),
(55,62,o),
(124,-9,o),
(234,-9,cs)
);
},
{
closed = 1;
nodes = (
(200,252,o),
(109,278,o),
(109,420,cs),
(109,529,o),
(186,574,o),
(246,574,cs),
(305,574,o),
(381,525,o),
(381,417,cs),
(381,255,o),
(252,252,o),
(242,252,cs)
);
}
);
width = 497;
}
);
}
{
glyphname = one.osf;
layers = (
{
layerId = m001;
shapes = (
{
closed = 1;
nodes = (
(243,0,l),
(243,640,l),
(184,640,l),
(184,640,o),
(97,576,o),
(40,576,c),
(40,514,l),
(106,515,o),
(196,579,o),
(196,579,c),
(175,601,l),
(175,0,l)
);
}
);
width = 293;
}
);
}
{
glyphname = seven.osf;
layers = (
{
layerId = m001;
shapes = (
{
closed = 1;
nodes = (
(139,0,l),
(139,117,ls),
(139,162,o),
(140,200,o),
(181,242,cs),
(220,282,o),
(350,432,o),
(379,462,cs),
(442,527,o),
(433,515,o),
(478,570,c),
(478,640,l),
(40,640,l),
(40,575,l),
(413,575,l),
(413,590,l),
(394,572,o),
(383,559,o),
(349,523,cs),
(318,490,o),
(160,315,o),
(121,277,cs),
(80,237,o),
(71,187,o),
(71,117,cs),
(71,0,l)
);
}
);
width = 483;
}
);
}
{
glyphname = sinB;
layers = (
{
layerId = m001;
shapes = (
{
closed = 1;
nodes = (
(221,61,l),
(175,61,o),
(106,102,o),
(106,218,cs),
(106,317,o),
(138,402,o),
(253,402,cs),
(333,402,o),
(360,357,o),
(360,322,cs),
(360,244,o),
(266,235,o),
(266,132,cs),
(266,68,o),
(310,0,o),
(422,0,cs),
(603,0,o),
(626,174,o),
(626,301,cs),
(626,550,o),
(475,658,o),
(286,658,cs),
(190,658,o),
(116,632,o),
(77,606,c),
(111,550,l),
(141,568,o),
(184,590,o),
(286,590,cs),
(435,590,o),
(558,509,o),
(558,301,cs),
(558,198,o),
(539,68,o),
(422,68,cs),
(379,68,o),
(334,87,o),
(334,132,cs),
(334,204,o),
(428,217,o),
(428,322,cs),
(428,379,o),
(385,470,o),
(253,470,cs),
(108,470,o),
(40,364,o),
(40,218,cs),
(40,20,o),
(175,3,o),
(222,0,c)
);
},
{
closed = 1;
nodes = (
(531,585,o),
(589,617,o),
(589,673,cs),
(589,740,o),
(540,800,o),
(331,800,cs),
(126,800,o),
(68,755,o),
(68,698,cs),
(68,674,o),
(91,642,o),
(134,623,c),
(181,642,l),
(157,660,o),
(140,672,o),
(140,690,cs),
(140,708,o),
(157,732,o),
(331,732,cs),
(483,732,o),
(521,712,o),
(521,673,cs),
(521,644,o),
(494,627,o),
(440,610,c),
(486,573,l)
);
}
);
userData = {
com.fontlab.hintData = {
hhints = (
{
position = 0;
width = 68;
},
{
position = 0;
width = 61;
},
{
position = 402;
width = 68;
},
{
position = 573;
width = 21;
},
{
position = 590;
width = 68;
},
{
position = 732;
width = 68;
}
);
vhints = (
{
position = 40;
width = 66;
},
{
position = 68;
width = 72;
},
{
position = 266;
width = 68;
},
{
position = 360;
width = 68;
},
{
position = 521;
width = 68;
},
{
position = 558;
width = 68;
}
);
};
};
width = 665;
}
);
}
{
glyphname = sinBI;
layers = (
{
layerId = m001;
shapes = (
{
closed = 1;
nodes = (
(221,61,l),
(175,61,o),
(106,102,o),
(106,218,cs),
(106,317,o),
(138,402,o),
(253,402,cs),
(333,402,o),
(360,357,o),
(360,322,cs),
(360,244,o),
(266,235,o),
(266,132,cs),
(266,68,o),
(310,0,o),
(422,0,cs),
(603,0,o),
(626,174,o),
(626,301,cs),
(626,540,o),
(481,644,o),
(301,644,c),
(301,576,l),
(441,576,o),
(558,499,o),
(558,301,cs),
(558,198,o),
(539,68,o),
(422,68,cs),
(379,68,o),
(334,87,o),
(334,132,cs),
(334,204,o),
(428,217,o),
(428,322,cs),
(428,379,o),
(385,470,o),
(253,470,cs),
(108,470,o),
(40,364,o),
(40,218,cs),
(40,20,o),
(175,3,o),
(222,0,c)
);
},
{
closed = 1;
nodes = (
(227,572,o),
(233,576,o),
(301,576,c),
(319,614,l),
(301,644,l),
(252,644,o),
(222,640,o),
(175,640,cs),
(131,640,o),
(113,651,o),
(113,674,cs),
(113,718,o),
(180,734,o),
(310,734,cs),
(470,734,o),
(522,706,o),
(522,672,cs),
(522,659,o),
(520,649,o),
(516,640,c),
(584,640,l),
(586,649,o),
(590,659,o),
(590,672,cs),
(590,744,o),
(530,800,o),
(310,800,cs),
(136,800,o),
(45,764,o),
(45,674,cs),
(45,594,o),
(113,572,o),
(175,572,cs)
);
}
);
userData = {
com.fontlab.hintData = {
hhints = (
{
position = 0;
width = 68;
},
{
position = 0;
width = 61;
},
{
position = 402;
width = 68;
},
{
position = 572;
width = 68;
},
{
position = 734;
width = 66;
}
);
vhints = (
{
position = 40;
width = 66;
},
{
position = 266;
width = 68;
},
{
position = 360;
width = 68;
},
{
position = 522;
width = 68;
},
{
position = 558;
width = 68;
}
);
};
};
width = 665;
}
);
}
{
glyphname = sinBIi;
layers = (
{
layerId = m001;
shapes = (
{
closed = 1;
nodes = (
(221,61,l),
(175,61,o),
(106,102,o),
(106,218,cs),
(106,317,o),
(138,402,o),
(253,402,cs),
(333,402,o),
(360,357,o),
(360,322,cs),
(360,244,o),
(266,235,o),
(266,132,cs),
(266,68,o),
(310,0,o),
(422,0,cs),
(603,0,o),
(626,174,o),
(626,301,cs),
(626,540,o),
(481,644,o),
(301,644,c),
(301,576,l),
(441,576,o),
(558,499,o),
(558,301,cs),
(558,198,o),
(539,68,o),
(422,68,cs),
(379,68,o),
(334,87,o),
(334,132,cs),
(334,204,o),
(428,217,o),
(428,322,cs),
(428,379,o),
(385,470,o),
(253,470,cs),
(108,470,o),
(40,364,o),
(40,218,cs),
(40,20,o),
(175,3,o),
(222,0,c)
);
},
{
closed = 1;
nodes = (
(227,572,o),
(233,576,o),
(301,576,c),
(319,614,l),
(301,644,l),
(252,644,o),
(222,640,o),
(175,640,cs),
(131,640,o),
(113,651,o),
(113,674,cs),
(113,718,o),
(180,734,o),
(310,734,cs),
(381,734,o),
(431,732,o),
(465,723,c),
(535,734,o),
(539,712,o),
(539,693,cs),
(539,680,o),
(549,674,o),
(522,642,c),
(562,642,l),
(564,651,o),
(584,678,o),
(584,692,cs),
(584,752,o),
(530,800,o),
(310,800,cs),
(136,800,o),
(45,764,o),
(45,674,cs),
(45,594,o),
(113,572,o),
(175,572,cs)
);
},
{
closed = 1;
nodes = (
(549,612,o),
(584,649,o),
(584,692,cs),
(584,720,o),
(559,753,o),
(516,753,c),
(474,767,o),
(427,735,o),
(427,692,cs),
(427,649,o),
(463,612,o),
(506,612,cs)
);
},
{
closed = 1;
nodes = (
(493,666,o),
(481,678,o),
(481,691,cs),
(481,704,o),
(493,716,o),
(506,716,cs),
(519,716,o),
(531,704,o),
(531,691,cs),
(531,678,o),
(519,666,o),
(506,666,cs)
);
}
);
userData = {
com.fontlab.hintData = {
hhints = (
{
position = 0;
width = 68;
},
{
position = 0;
width = 61;
},
{
position = 402;
width = 68;
},
{
position = 572;
width = 68;
},
{
position = 734;
width = 66;
}
);
vhints = (
{
position = 40;
width = 66;
},
{
position = 266;
width = 68;
},
{
position = 360;
width = 68;
},
{
position = 522;
width = 68;
},
{
position = 558;
width = 68;
}
);
};
};
width = 665;
}
);
}
{
glyphname = sinBU;
layers = (
{
layerId = m001;
shapes = (
{
closed = 1;
nodes = (
(221,61,l),
(168,61,o),
(88,105,o),
(88,229,cs),
(88,322,o),
(124,402,o),
(253,402,cs),
(333,402,o),
(360,357,o),
(360,322,cs),
(360,244,o),
(266,235,o),
(266,132,cs),
(266,68,o),
(310,0,o),
(422,0,cs),
(603,0,o),
(626,174,o),
(626,301,cs),
(626,605,o),
(481,737,o),
(301,737,cs),
(147,737,o),
(49,653,o),
(49,585,c),
(117,585,l),
(117,615,o),
(173,669,o),
(301,669,cs),
(441,669,o),
(558,566,o),
(558,301,cs),
(558,198,o),
(539,68,o),
(422,68,cs),
(379,68,o),
(334,87,o),
(334,132,cs),
(334,204,o),
(428,217,o),
(428,322,cs),
(428,379,o),
(385,470,o),
(253,470,cs),
(96,470,o),
(22,368,o),
(22,229,cs),
(22,21,o),
(170,3,o),
(222,0,c)
);
},
{
closed = 1;
nodes = (
(534,-200,l),
(534,-136,l),
(156,-136,ls),
(117,-136,o),
(108,-112,o),
(108,-86,c),
(40,-86,l),
(40,-144,o),
(72,-200,o),
(153,-200,cs)
);
},
{
closed = 1;
nodes = (
(589,-200,l),
(589,129,l),
(538,93,l),
(525,25,l),
(525,-200,l)
);
}
);
userData = {
com.fontlab.hintData = {
hhints = (
{
position = 0;
width = 68;
},
{
position = 0;
width = 61;
},
{
position = 402;
width = 68;
},
{
position = 669;
width = 68;
}
);
vhints = (
{
position = 40;
width = 66;
},
{
position = 49;
width = 68;
},
{
position = 266;
width = 68;
},
{
position = 360;
width = 68;
},
{
position = 558;
width = 68;
}
);
};
};
width = 665;
}
);
}
{
glyphname = sinBUu;
layers = (
{
layerId = m001;
shapes = (
{
closed = 1;
nodes = (
(240,61,l),
(186,61,o),
(106,105,o),
(106,229,cs),
(106,322,o),
(142,402,o),
(271,402,cs),
(351,402,o),
(378,357,o),
(378,322,cs),
(378,244,o),
(284,235,o),
(284,132,cs),
(284,68,o),
(328,0,o),
(440,0,cs),
(621,0,o),
(644,174,o),
(644,301,cs),
(644,605,o),
(500,737,o),
(319,737,cs),
(165,737,o),
(67,653,o),
(67,585,c),
(135,585,l),
(135,615,o),
(191,669,o),
(319,669,cs),
(459,669,o),
(576,566,o),
(576,301,cs),
(576,198,o),
(557,68,o),
(440,68,cs),
(397,68,o),
(352,87,o),
(352,132,cs),
(352,204,o),
(446,217,o),
(446,322,cs),
(446,379,o),
(403,470,o),
(271,470,cs),
(114,470,o),
(40,368,o),
(40,229,cs),
(40,21,o),
(189,3,o),
(240,0,c)
);
},
{
closed = 1;
nodes = (
(255,-200,o),
(331,-127,o),
(423,-127,cs),
(441,-127,o),
(493,-127,o),
(543,-200,c),
(567,-151,l),
(532,-100,o),
(483,-63,o),
(423,-63,cs),
(321,-63,o),
(257,-135,o),
(173,-135,cs),
(124,-135,o),
(127,-114,o),
(133,-69,c),
(71,-69,l),
(60,-108,o),
(46,-200,o),
(165,-200,cs)
);
},
{
closed = 1;
nodes = (
(607,-200,l),
(607,129,l),
(556,93,l),
(543,25,l),
(543,-200,l)
);
}
);
userData = {
com.fontlab.hintData = {
hhints = (
{
position = 0;
width = 68;
},
{
position = 0;
width = 61;
},
{
position = 402;
width = 68;
},
{
position = 669;
width = 68;
}
);
vhints = (
{
position = 58;
width = 66;
},
{
position = 67;
width = 68;
},
{
position = 284;
width = 68;
},
{
position = 378;
width = 68;
},
{
position = 576;
width = 68;
}
);
};
};
width = 684;
}
);
}
{
glyphname = sinBa.reph;
layers = (
{
layerId = m001;
shapes = (
{
closed = 1;
nodes = (
(240,61,l),
(186,61,o),
(106,105,o),
(106,229,cs),
(106,322,o),
(142,402,o),
(271,402,cs),
(351,402,o),
(378,357,o),
(378,322,cs),
(378,244,o),
(284,235,o),
(284,132,cs),
(284,68,o),
(328,0,o),
(440,0,cs),
(621,0,o),
(644,174,o),
(644,301,cs),
(644,605,o),
(500,737,o),
(319,737,cs),
(165,737,o),
(67,653,o),
(67,585,c),
(135,585,l),
(135,615,o),
(191,669,o),
(319,669,cs),
(459,669,o),
(576,566,o),
(576,301,cs),
(576,198,o),
(557,68,o),
(440,68,cs),
(397,68,o),
(352,87,o),
(352,132,cs),
(352,204,o),
(446,217,o),
(446,322,cs),
(446,379,o),
(403,470,o),
(271,470,cs),
(114,470,o),
(40,368,o),
(40,229,cs),
(40,21,o),
(189,3,o),
(240,0,c)
);
}
);
userData = {
com.fontlab.hintData = {
hhints = (
{
position = 0;
width = 68;
},
{
position = 0;
width = 61;
},
{
position = 402;
width = 68;
},
{
position = 669;
width = 68;
}
);
vhints = (
{
position = 58;
width = 66;
},
{
position = 67;
width = 68;
},
{
position = 284;
width = 68;
},
{
position = 378;
width = 68;
},
{
position = 576;
width = 68;
}
);
};
};
width = 684;
}
);
}
{
glyphname = sinBhUu;
layers = (
{
layerId = m001;
shapes = (
{
closed = 1;
nodes = (
(693,69,o),
(752,192,o),
(752,295,cs),
(752,432,o),
(658,535,o),
(522,535,cs),
(390,535,o),
(290,442,o),
(290,245,c),
(358,245,l),
(358,392,o),
(420,467,o),
(522,467,cs),
(619,467,o),
(684,392,o),
(684,295,cs),
(684,203,o),
(643,111,o),
(555,111,c),
(555,69,l)
);
},
{
closed = 1;
nodes = (
(444,0,o),
(502,93,o),
(502,182,cs),
(502,303,o),
(401,348,o),
(335,313,c),
(355,264,l),
(389,285,o),
(434,243,o),
(434,182,cs),
(434,130,o),
(400,68,o),
(291,68,cs),
(195,68,o),
(126,106,o),
(126,209,cs),
(126,271,o),
(162,329,o),
(216,329,cs),
(352,329,l),
(352,361,l),
(214,361,ls),
(109,361,o),
(60,292,o),
(60,209,cs),
(60,82,o),
(141,0,o),
(291,0,cs)
);
},
{
closed = 1;
nodes = (
(342,329,l),
(342,389,l),
(40,389,l),
(40,329,l)
);
},
{
closed = 1;
nodes = (
(732,-200,o),
(752,-133,o),
(752,-69,c),
(696,-69,l),
(696,-94,o),
(695,-146,o),
(644,-146,cs),
(613,-146,o),
(599,-123,o),
(599,-97,cs),
(599,-62,o),
(642,-22,o),
(709,-22,c),
(709,8,l),
(613,8,o),
(546,-33,o),
(546,-108,cs),
(546,-180,o),
(610,-200,o),
(644,-200,cs)
);
},
{
closed = 1;
nodes = (
(716,-22,l),
(716,24,l),
(549,24,l),
(549,-22,l)
);
},
{
closed = 1;
nodes = (
(367,323,l),
(384,430,o),
(351,535,o),
(231,535,cs),
(165,535,o),
(96,499,o),
(96,425,c),
(158,425,l),
(158,449,o),
(187,473,o),
(234,473,cs),
(317,473,o),
(318,397,o),
(307,373,c),
(327,323,l)
);
},
{
closed = 1;
nodes = (
(618,24,l),
(698,67,l),
(728,67,l),
(728,111,l),
(555,111,l),
(555,65,l),
(624,65,l),
(549,24,l)
);
}
);
userData = {
com.fontlab.hintData = {
hhints = (
{
position = 0;
width = 68;
},
{
position = 329;
width = 60;
},
{
position = 329;
width = 32;
},
{
position = 473;
width = 62;
}
);
vhints = (
{
position = 60;
width = 66;
},
{
position = 96;
width = 62;
},
{
position = 290;
width = 62;
},
{
position = 434;
width = 68;
},
{
position = 689;
width = 68;
}
);
};
};
width = 797;
}
);
}
{
glyphname = sinC;
layers = (
{
layerId = m001;
shapes = (
{
closed = 1;
nodes = (
(518,0,o),
(623,121,o),
(623,316,cs),
(623,565,o),
(481,658,o),
(304,658,cs),
(207,658,o),
(142,631,o),
(95,606,c),
(128,550,l),
(159,568,o),
(202,590,o),
(304,590,cs),
(441,590,o),
(555,525,o),
(555,316,cs),
(555,152,o),
(481,68,o),
(325,68,cs),
(195,68,o),
(132,153,o),
(132,221,cs),
(132,293,o),
(171,329,o),
(223,329,cs),
(374,329,l),
(374,368,l),
(223,368,ls),
(130,368,o),
(64,331,o),
(64,221,cs),
(64,121,o),
(150,0,o),
(325,0,cs)
);
},
{
closed = 1;
nodes = (
(374,329,l),
(374,389,l),
(40,389,l),
(40,329,l)
);
},
{
closed = 1;
nodes = (
(376,329,l),
(406,444,o),
(362,535,o),
(238,535,cs),
(171,535,o),
(100,499,o),
(100,425,c),
(162,425,l),
(162,449,o),
(190,473,o),
(238,473,cs),
(329,473,o),
(329,406,o),
(320,374,c),
(336,329,l)
);
},
{
closed = 1;
nodes = (
(549,585,o),
(607,617,o),
(607,673,cs),
(607,740,o),
(558,800,o),
(349,800,cs),
(144,800,o),
(86,755,o),
(86,698,cs),
(86,674,o),
(109,642,o),
(152,623,c),
(199,642,l),
(175,660,o),
(158,672,o),
(158,690,cs),
(158,708,o),
(175,732,o),
(349,732,cs),
(501,732,o),
(539,712,o),
(539,673,cs),
(539,644,o),
(512,627,o),
(458,610,c),
(504,573,l)
);
}
);
userData = {
com.fontlab.hintData = {
hhints = (
{
position = 0;
width = 68;
},
{
position = 329;
width = 60;
},
{
position = 329;
width = 39;
},
{
position = 473;
width = 62;
},
{
position = 573;
width = 21;
},
{
position = 590;
width = 68;
},
{
position = 732;
width = 68;
}
);
vhints = (
{
position = 64;
width = 68;
},
{
position = 86;
width = 72;
},
{
position = 100;
width = 62;
},
{
position = 539;
width = 68;
},
{
position = 555;
width = 68;
}
);
};
};
width = 663;
}
);
}
{
glyphname = sinCIi;
layers = (
{
layerId = m001;
shapes = (
{
closed = 1;
nodes = (
(518,0,o),
(623,140,o),
(623,335,cs),
(623,574,o),
(490,644,o),
(324,644,c),
(324,576,l),
(451,576,o),
(555,533,o),
(555,335,cs),
(555,171,o),
(481,68,o),
(325,68,cs),
(195,68,o),
(132,153,o),
(132,221,cs),
(132,293,o),
(171,329,o),
(223,329,cs),
(374,329,l),
(374,368,l),
(223,368,ls),
(130,368,o),
(64,331,o),
(64,221,cs),
(64,121,o),
(150,0,o),
(325,0,cs)
);
},
{
closed = 1;
nodes = (
(374,329,l),
(374,389,l),
(40,389,l),
(40,329,l)
);
},
{
closed = 1;
nodes = (
(376,329,l),
(406,444,o),
(362,535,o),
(238,535,cs),
(171,535,o),
(100,499,o),
(100,425,c),
(162,425,l),
(162,449,o),
(190,473,o),
(238,473,cs),
(329,473,o),
(329,406,o),
(320,374,c),
(336,329,l)
);
},
{
closed = 1;
nodes = (
(251,572,o),
(257,576,o),
(324,576,c),
(342,614,l),
(324,644,l),
(275,644,o),
(246,640,o),
(198,640,cs),
(155,640,o),
(136,651,o),
(136,674,cs),
(136,718,o),
(203,734,o),
(333,734,cs),
(405,734,o),
(455,732,o),
(488,723,c),
(558,734,o),
(562,712,o),
(562,693,cs),
(562,680,o),
(572,674,o),
(545,642,c),
(585,642,l),
(588,651,o),
(608,678,o),
(608,692,cs),
(608,752,o),
(553,800,o),
(333,800,cs),
(159,800,o),
(68,764,o),
(68,674,cs),
(68,594,o),
(137,572,o),
(198,572,cs)
);
},
{
closed = 1;
nodes = (
(573,612,o),
(608,649,o),
(608,692,cs),
(608,720,o),
(582,753,o),
(539,753,c),
(497,767,o),
(451,735,o),
(451,692,cs),
(451,649,o),
(487,612,o),
(530,612,cs)
);
},
{
closed = 1;
nodes = (
(517,666,o),
(505,678,o),
(505,691,cs),
(505,704,o),
(517,716,o),
(530,716,cs),
(543,716,o),
(554,704,o),
(554,691,cs),
(554,678,o),
(543,666,o),
(530,666,cs)
);
}
);
userData = {
com.fontlab.hintData = {
hhints = (
{
position = 0;
width = 68;
},
{
position = 329;
width = 60;
},
{
position = 329;
width = 39;
},
{
position = 473;
width = 62;
},
{
position = 572;
width = 68;
},
{
position = 734;
width = 66;
}
);
vhints = (
{
position = 64;
width = 68;
},
{
position = 100;
width = 62;
},
{
position = 519;
width = 68;
},
{
position = 555;
width = 68;
}
);
};
};
width = 663;
}
);
}
{
glyphname = sinCUu;
layers = (
{
layerId = m001;
shapes = (
{
closed = 1;
nodes = (
(518,0,o),
(623,140,o),
(623,335,cs),
(623,597,o),
(500,737,o),
(310,737,cs),
(168,737,o),
(77,653,o),
(77,585,c),
(145,585,l),
(145,615,o),
(194,669,o),
(310,669,cs),
(459,669,o),
(555,552,o),
(555,335,cs),
(555,171,o),
(481,68,o),
(325,68,cs),
(195,68,o),
(132,153,o),
(132,221,cs),
(132,293,o),
(171,329,o),
(223,329,cs),
(374,329,l),
(374,368,l),
(223,368,ls),
(130,368,o),
(64,331,o),
(64,221,cs),
(64,121,o),
(150,0,o),
(325,0,cs)
);
},
{
closed = 1;
nodes = (
(260,-200,o),
(330,-127,o),
(414,-127,cs),
(431,-127,o),
(480,-127,o),
(529,-200,c),
(553,-151,l),
(519,-100,o),
(472,-63,o),
(414,-63,cs),
(321,-63,o),
(262,-135,o),
(185,-135,cs),
(136,-135,o),
(139,-114,o),
(145,-69,c),
(83,-69,l),
(72,-108,o),
(58,-200,o),
(177,-200,cs)
);
},
{
closed = 1;
nodes = (
(593,-200,l),
(593,184,l),
(542,148,l),
(529,80,l),
(529,-200,l)
);
},
{
closed = 1;
nodes = (
(374,329,l),
(374,389,l),
(40,389,l),
(40,329,l)
);
},
{
closed = 1;
nodes = (
(376,329,l),
(406,444,o),
(362,535,o),
(238,535,cs),
(171,535,o),
(100,499,o),
(100,425,c),
(162,425,l),
(162,449,o),
(190,473,o),
(238,473,cs),
(329,473,o),
(329,406,o),
(320,374,c),
(336,329,l)
);
}
);
width = 663;
}
);
}
{
glyphname = sinCh;
layers = (
{
layerId = m001;
shapes = (
{
closed = 1;
nodes = (
(428,500,l),
(428,737,l),
(365,737,l),
(365,500,l)
);
},
{
ref = sinCha;
}
);
userData = {
com.fontlab.hintData = {
hhints = (
{
position = 0;
width = 66;
},
{
position = 323;
width = 66;
},
{
position = 473;
width = 62;
},
{
position = 516;
width = 19;
}
);
vhints = (
{
position = 73;
width = 66;
},
{
position = 104;
width = 62;
},
{
position = 365;
width = 63;
},
{
position = 434;
width = 66;
},
{
position = 534;
width = 62;
},
{
position = 561;
width = 66;
}
);
};
};
width = 634;
}
);
}
{
glyphname = sinChI;
layers = (
{
layerId = m001;
shapes = (
{
closed = 1;
nodes = (
(517,0,o),
(594,118,o),
(594,215,cs),
(594,308,o),
(529,389,o),
(424,389,c),
(424,323,l),
(503,323,o),
(533,263,o),
(533,215,cs),
(533,148,o),
(488,66,o),
(317,66,cs),
(150,66,o),
(106,148,o),
(106,215,cs),
(106,293,o),
(154,323,o),
(214,323,cs),
(424,323,l),
(424,389,l),
(214,389,ls),
(118,389,o),
(40,328,o),
(40,215,cs),
(40,118,o),
(117,0,o),
(317,0,cs)
);
},
{
closed = 1;
nodes = (
(342,323,l),
(359,430,o),
(326,535,o),
(206,535,cs),
(140,535,o),
(71,499,o),
(71,425,c),
(133,425,l),
(133,449,o),
(162,473,o),
(209,473,cs),
(292,473,o),
(293,397,o),
(282,373,c),
(302,323,l)
);
},
{
closed = 1;
nodes = (
(490,209,o),
(561,274,o),
(561,389,cs),
(561,487,o),
(493,535,o),
(428,535,cs),
(308,535,o),
(275,430,o),
(292,323,c),
(347,323,l),
(347,400,ls),
(347,431,o),
(363,473,o),
(425,473,cs),
(474,473,o),
(503,431,o),
(503,389,cs),
(503,320,o),
(475,269,o),
(413,269,cs),
(368,269,o),
(347,294,o),
(347,323,c),
(292,323,l),
(292,256,o),
(344,209,o),
(413,209,cs)
);
},
{
closed = 1;
nodes = (
(144,586,l),
(127,659,o),
(212,692,o),
(312,692,cs),
(397,692,o),
(469,669,o),
(469,615,c),
(520,615,l),
(520,710,o),
(439,758,o),
(312,758,cs),
(180,758,o),
(60,702,o),
(78,586,c)
);
},
{
closed = 1;
nodes = (
(467,516,l),
(467,554,o),
(499,579,o),
(537,618,cs),
(590,673,o),
(592,682,o),
(592,737,c),
(526,737,l),
(526,696,o),
(525,688,o),
(482,642,cs),
(407,563,o),
(401,560,o),
(401,516,c)
);
}
);
userData = {
com.fontlab.hintData = {
hhints = (
{
position = 0;
width = 66;
},
{
position = 323;
width = 66;
},
{
position = 473;
width = 62;
},
{
position = 516;
width = 19;
}
);
vhints = (
{
position = 40;
width = 66;
},
{
position = 71;
width = 62;
},
{
position = 401;
width = 66;
},
{
position = 501;
width = 62;
},
{
position = 528;
width = 66;
}
);
};
};
width = 634;
}
);
}
{
glyphname = sinChIi;
layers = (
{
layerId = m001;
shapes = (
{
closed = 1;
nodes = (
(517,0,o),
(594,118,o),
(594,215,cs),
(594,308,o),
(529,389,o),
(424,389,c),
(424,323,l),
(503,323,o),
(533,263,o),
(533,215,cs),
(533,148,o),
(488,66,o),
(317,66,cs),
(150,66,o),
(106,148,o),
(106,215,cs),
(106,293,o),
(154,323,o),
(214,323,cs),
(424,323,l),
(424,389,l),
(214,389,ls),
(118,389,o),
(40,328,o),
(40,215,cs),
(40,118,o),
(117,0,o),
(317,0,cs)
);
},
{
closed = 1;
nodes = (
(342,323,l),
(359,430,o),
(326,535,o),
(206,535,cs),
(140,535,o),
(71,499,o),
(71,425,c),
(133,425,l),
(133,449,o),
(162,473,o),
(209,473,cs),
(292,473,o),
(293,397,o),
(282,373,c),
(302,323,l)
);
},
{
closed = 1;
nodes = (
(490,209,o),
(561,274,o),
(561,389,cs),
(561,487,o),
(493,535,o),
(428,535,cs),
(308,535,o),
(275,430,o),
(292,323,c),
(347,323,l),
(347,400,ls),
(347,431,o),
(363,473,o),
(425,473,cs),
(474,473,o),
(503,431,o),
(503,389,cs),
(503,320,o),
(475,269,o),
(413,269,cs),
(368,269,o),
(347,294,o),
(347,323,c),
(292,323,l),
(292,256,o),
(344,209,o),
(413,209,cs)
);
},
{
closed = 1;
nodes = (
(140,628,l),
(125,701,o),
(201,734,o),
(291,734,cs),
(360,734,o),
(425,722,o),
(453,691,c),
(482,680,o),
(486,655,o),
(486,628,c),
(526,628,l),
(526,640,o),
(524,651,o),
(524,662,cs),
(524,755,o),
(413,800,o),
(291,800,cs),
(169,800,o),
(57,744,o),
(74,628,c)
);
},
{
closed = 1;
nodes = (
(441,625,o),
(429,637,o),
(429,650,cs),
(429,663,o),
(441,675,o),
(454,675,cs),
(467,675,o),
(478,663,o),
(478,650,cs),
(478,637,o),
(467,625,o),
(454,625,cs)
);
},
{
closed = 1;
nodes = (
(494,580,o),
(526,613,o),
(526,651,cs),
(526,694,o),
(502,712,o),
(463,712,c),
(411,728,o),
(375,694,o),
(375,651,cs),
(375,613,o),
(411,580,o),
(454,580,cs)
);
},
{
closed = 1;
nodes = (
(467,516,l),
(467,554,o),
(499,579,o),
(537,618,cs),
(590,673,o),
(592,682,o),
(592,737,c),
(532,737,l),
(532,695,o),
(531,686,o),
(483,639,cs),
(405,563,o),
(401,559,o),
(401,516,c)
);
}
);
userData = {
com.fontlab.hintData = {
hhints = (
{
position = 0;
width = 66;
},
{
position = 323;
width = 66;
},
{
position = 473;
width = 62;
},
{
position = 516;
width = 19;
}
);
vhints = (
{
position = 40;
width = 66;
},
{
position = 71;
width = 62;
},
{
position = 401;
width = 66;
},
{
position = 501;
width = 62;
},
{
position = 528;
width = 66;
}
);
};
};
width = 634;
}
);
}
{
glyphname = sinChUu;
layers = (
{
layerId = m001;
shapes = (
{
closed = 1;
nodes = (
(517,0,o),
(594,118,o),
(594,215,cs),
(594,308,o),
(529,389,o),
(424,389,c),
(424,323,l),
(503,323,o),
(533,263,o),
(533,215,cs),
(533,148,o),
(488,66,o),
(317,66,cs),
(150,66,o),
(106,148,o),
(106,215,cs),
(106,293,o),
(154,323,o),
(214,323,cs),
(424,323,l),
(424,389,l),
(214,389,ls),
(118,389,o),
(40,328,o),
(40,215,cs),
(40,118,o),
(117,0,o),
(317,0,cs)
);
},
{
closed = 1;
nodes = (
(242,-200,o),
(310,-127,o),
(392,-127,cs),
(408,-127,o),
(454,-127,o),
(499,-200,c),
(523,-151,l),
(491,-100,o),
(446,-63,o),
(392,-63,cs),
(301,-63,o),
(244,-135,o),
(169,-135,cs),
(120,-135,o),
(123,-114,o),
(129,-69,c),
(67,-69,l),
(56,-108,o),
(42,-200,o),
(161,-200,cs)
);
},
{
closed = 1;
nodes = (
(563,-200,l),
(563,129,l),
(512,93,l),
(499,25,l),
(499,-200,l)
);
},
{
closed = 1;
nodes = (
(342,323,l),
(359,430,o),
(326,535,o),
(206,535,cs),
(140,535,o),
(71,499,o),
(71,425,c),
(133,425,l),
(133,449,o),
(162,473,o),
(209,473,cs),
(292,473,o),
(293,397,o),
(282,373,c),
(302,323,l)
);
},
{
closed = 1;
nodes = (
(490,209,o),
(561,274,o),
(561,389,cs),
(561,487,o),
(493,535,o),
(428,535,cs),
(308,535,o),
(275,430,o),
(292,323,c),
(347,323,l),
(347,400,ls),
(347,431,o),
(363,473,o),
(425,473,cs),
(474,473,o),
(503,431,o),
(503,389,cs),
(503,320,o),
(475,269,o),
(413,269,cs),
(368,269,o),
(347,294,o),
(347,323,c),
(292,323,l),
(292,256,o),
(344,209,o),
(413,209,cs)
);
},
{
closed = 1;
nodes = (
(467,516,l),
(467,554,o),
(499,579,o),
(537,618,cs),
(590,673,o),
(592,682,o),
(592,737,c),
(526,737,l),
(526,696,o),
(525,688,o),
(482,642,cs),
(407,563,o),
(401,560,o),
(401,516,c)
);
}
);
userData = {
com.fontlab.hintData = {
hhints = (
{
position = 0;
width = 66;
},
{
position = 323;
width = 66;
},
{
position = 473;
width = 62;
},
{
position = 516;
width = 19;
}
);
vhints = (
{
position = 40;
width = 66;
},
{
position = 71;
width = 62;
},
{
position = 401;
width = 66;
},
{
position = 501;
width = 62;
},
{
position = 528;
width = 66;
}
);
};
};
width = 634;
}
);
}
{
glyphname = sinD;
layers = (
{
layerId = m001;
shapes = (
{
closed = 1;
nodes = (
(385,500,l),
(385,737,l),
(318,737,l),
(318,500,l)
);
},
{
ref = sinDa;
}
);
userData = {
com.fontlab.hintData = {
hhints = (
{
position = -200;
width = 59;
},
{
position = 1;
width = 29;
},
{
position = 306;
width = 59;
},
{
position = 441;
width = 59;
}
);
vhints = (
{
position = 75;
width = 59;
},
{
position = 165;
width = 59;
},
{
position = 175;
width = 59;
},
{
position = 318;
width = 67;
},
{
position = 370;
width = 59;
}
);
};
};
width = 505;
}
);
}
{
glyphname = sinDDh;
layers = (
{
layerId = m001;
shapes = (
{
closed = 1;
nodes = (
(430,0,o),
(461,61,o),
(472,98,c),
(483,61,o),
(515,0,o),
(602,0,cs),
(764,0,o),
(785,174,o),
(785,301,cs),
(785,550,o),
(634,658,o),
(445,658,cs),
(349,658,o),
(275,632,o),
(236,606,c),
(270,550,l),
(300,568,o),
(343,590,o),
(445,590,cs),
(594,590,o),
(717,509,o),
(717,301,cs),
(717,198,o),
(701,68,o),
(602,68,cs),
(534,68,o),
(508,132,o),
(508,224,c),
(434,224,l),
(434,132,o),
(408,68,o),
(349,68,cs),
(275,68,o),
(250,138,o),
(250,210,cs),
(250,292,o),
(300,367,o),
(366,367,cs),
(403,367,o),
(421,355,o),
(431,348,c),
(467,403,l),
(450,417,o),
(420,435,o),
(366,435,cs),
(259,435,o),
(182,340,o),
(182,210,cs),
(182,118,o),
(227,0,o),
(349,0,cs)
);
},
{
closed = 1;
nodes = (
(208,64,l),
(121,64,o),
(104,163,o),
(104,273,cs),
(104,370,o),
(142,471,o),
(216,471,cs),
(252,471,o),
(280,443,o),
(289,395,c),
(309,397,o),
(337,409,o),
(340,420,c),
(330,489,o),
(273,535,o),
(216,535,cs),
(101,535,o),
(40,413,o),
(40,273,cs),
(40,81,o),
(112,0,o),
(208,0,c)
);
},
{
closed = 1;
nodes = (
(690,585,o),
(748,617,o),
(748,673,cs),
(748,740,o),
(700,800,o),
(490,800,cs),
(286,800,o),
(227,755,o),
(227,698,cs),
(227,674,o),
(250,642,o),
(294,623,c),
(340,642,l),
(317,660,o),
(299,672,o),
(299,690,cs),
(299,708,o),
(317,732,o),
(490,732,cs),
(643,732,o),
(680,712,o),
(680,673,cs),
(680,644,o),
(654,627,o),
(599,610,c),
(646,573,l)
);
}
);
userData = {
com.fontlab.hintData = {
hhints = (
{
position = 0;
width = 68;
},
{
position = 367;
width = 68;
},
{
position = 471;
width = 64;
},
{
position = 669;
width = 68;
}
);
vhints = (
{
position = 40;
width = 64;
},
{
position = 182;
width = 68;
},
{
position = 208;
width = 68;
},
{
position = 434;
width = 74;
},
{
position = 717;
width = 68;
}
);
};
};
width = 825;
}
);
}
{
glyphname = sinDDhIi;
layers = (
{
layerId = m001;
shapes = (
{
closed = 1;
nodes = (
(430,0,o),
(461,61,o),
(472,98,c),
(483,61,o),
(515,0,o),
(602,0,cs),
(764,0,o),
(785,174,o),
(785,301,cs),
(785,540,o),
(641,644,o),
(460,644,c),
(460,576,l),
(600,576,o),
(717,499,o),
(717,301,cs),
(717,198,o),
(701,68,o),
(602,68,cs),
(534,68,o),
(508,132,o),
(508,224,c),
(434,224,l),
(434,132,o),
(408,68,o),
(349,68,cs),
(275,68,o),
(250,138,o),
(250,210,cs),
(250,292,o),
(300,367,o),
(366,367,cs),
(403,367,o),
(421,355,o),
(431,348,c),
(467,403,l),
(450,417,o),
(420,435,o),
(366,435,cs),
(259,435,o),
(182,340,o),
(182,210,cs),
(182,118,o),
(227,0,o),
(349,0,cs)
);
},
{
closed = 1;
nodes = (
(208,64,l),
(121,64,o),
(104,163,o),
(104,273,cs),
(104,370,o),
(142,471,o),
(216,471,cs),
(252,471,o),
(280,443,o),
(289,395,c),
(309,397,o),
(337,409,o),
(340,420,c),
(330,489,o),
(273,535,o),
(216,535,cs),
(101,535,o),
(40,413,o),
(40,273,cs),
(40,81,o),
(112,0,o),
(208,0,c)
);
},
{
closed = 1;
nodes = (
(386,572,o),
(392,576,o),
(460,576,c),
(478,614,l),
(460,644,l),
(411,644,o),
(381,640,o),
(334,640,cs),
(290,640,o),
(272,651,o),
(272,674,cs),
(272,718,o),
(339,734,o),
(469,734,cs),
(540,734,o),
(590,732,o),
(624,723,c),
(694,734,o),
(698,712,o),
(698,693,cs),
(698,680,o),
(708,674,o),
(681,642,c),
(721,642,l),
(724,651,o),
(744,678,o),
(744,692,cs),
(744,752,o),
(689,800,o),
(469,800,cs),
(295,800,o),
(204,764,o),
(204,674,cs),
(204,594,o),
(272,572,o),
(334,572,cs)
);
},
{
closed = 1;
nodes = (
(709,612,o),
(744,649,o),
(744,692,cs),
(744,720,o),
(718,753,o),
(675,753,c),
(633,767,o),
(587,735,o),
(587,692,cs),
(587,649,o),
(623,612,o),
(666,612,cs)
);
},
{
closed = 1;
nodes = (
(652,666,o),
(640,678,o),
(640,691,cs),
(640,704,o),
(652,716,o),
(665,716,cs),
(678,716,o),
(690,704,o),
(690,691,cs),
(690,678,o),
(678,666,o),
(665,666,cs)
);
}
);
userData = {
com.fontlab.hintData = {
hhints = (
{
position = 0;
width = 68;
},
{
position = 367;
width = 68;
},
{
position = 471;
width = 64;
},
{
position = 669;
width = 68;
}
);
vhints = (
{
position = 40;
width = 64;
},
{
position = 182;
width = 68;
},
{
position = 208;
width = 68;
},
{
position = 434;
width = 74;
},
{
position = 717;
width = 68;
}
);
};
};
width = 825;
}
);
}
{
glyphname = sinDDha;
layers = (
{
layerId = m001;
shapes = (
{
closed = 1;
nodes = (
(430,0,o),
(461,61,o),
(472,98,c),
(483,61,o),
(515,0,o),
(602,0,cs),
(764,0,o),
(785,174,o),
(785,301,cs),
(785,605,o),
(641,737,o),
(460,737,cs),
(306,737,o),
(208,653,o),
(208,585,c),
(276,585,l),
(276,615,o),
(332,669,o),
(460,669,cs),
(600,669,o),
(717,566,o),
(717,301,cs),
(717,198,o),
(701,68,o),
(602,68,cs),
(534,68,o),
(508,132,o),
(508,224,c),
(434,224,l),
(434,132,o),
(408,68,o),
(349,68,cs),
(275,68,o),
(250,138,o),
(250,210,cs),
(250,292,o),
(300,367,o),
(366,367,cs),
(403,367,o),
(421,355,o),
(431,348,c),
(467,403,l),
(450,417,o),
(420,435,o),
(366,435,cs),
(259,435,o),
(182,340,o),
(182,210,cs),
(182,118,o),
(227,0,o),
(349,0,cs)
);
},
{
closed = 1;
nodes = (
(208,64,l),
(121,64,o),
(104,163,o),
(104,273,cs),
(104,370,o),
(142,471,o),
(216,471,cs),
(252,471,o),
(280,443,o),
(289,395,c),
(309,397,o),
(337,409,o),
(340,420,c),
(330,489,o),
(273,535,o),
(216,535,cs),
(101,535,o),
(40,413,o),
(40,273,cs),
(40,81,o),
(112,0,o),
(208,0,c)
);
}
);
userData = {
com.fontlab.hintData = {
hhints = (
{
position = 0;
width = 68;
},
{
position = 367;
width = 68;
},
{
position = 471;
width = 64;
},
{
position = 669;
width = 68;
}
);
vhints = (
{
position = 40;
width = 64;
},
{
position = 182;
width = 68;
},
{
position = 208;
width = 68;
},
{
position = 434;
width = 74;
},
{
position = 717;
width = 68;
}
);
};
};
width = 825;
}
);
}
{
glyphname = sinDDha.reph;
layers = (
{
layerId = m001;
shapes = (
{
closed = 1;
nodes = (
(365,2,o),
(385,6,o),
(401,15,cs),
(417,23,o),
(430,33,o),
(439,46,cs),
(449,59,o),
(457,72,o),
(462,85,cs),
(467,98,o),
(471,110,o),
(472,120,c),
(474,110,o),
(478,98,o),
(483,85,cs),
(488,72,o),
(496,59,o),
(505,46,cs),
(515,33,o),
(528,23,o),
(544,15,cs),
(560,6,o),
(580,2,o),
(604,2,cs),
(635,2,o),
(661,8,o),
(682,21,cs),
(703,34,o),
(719,51,o),
(731,73,cs),
(743,95,o),
(752,120,o),
(757,149,cs),
(763,178,o),
(767,208,o),
(768,239,cs),
(770,333,ls),
(770,451,o),
(759,548,o),
(737,625,cs),
(716,701,o),
(681,757,o),
(634,794,c),
(599,737,l),
(634,704,o),
(661,654,o),
(678,587,cs),
(695,520,o),
(704,435,o),
(704,333,cs),
(704,302,o),
(703,272,o),
(701,241,cs),
(700,210,o),
(696,182,o),
(689,156,cs),
(682,130,o),
(672,109,o),
(659,94,cs),
(646,78,o),
(627,70,o),
(604,70,cs),
(582,70,o),
(564,76,o),
(551,88,cs),
(538,99,o),
(528,115,o),
(521,134,cs),
(514,153,o),
(510,174,o),
(507,197,cs),
(504,220,o),
(503,242,o),
(503,263,c),
(444,263,l),
(443,242,o),
(442,221,o),
(439,198,cs),
(437,175,o),
(433,154,o),
(426,135,cs),
(419,115,o),
(409,99,o),
(396,88,cs),
(383,76,o),
(365,70,o),
(343,70,cs),
(321,70,o),
(304,79,o),
(291,97,cs),
(278,114,o),
(269,137,o),
(264,165,cs),
(259,192,o),
(256,220,o),
(256,249,cs),
(256,272,o),
(258,294,o),
(261,315,cs),
(265,335,o),
(270,353,o),
(277,369,cs),
(288,394,o),
(301,413,o),
(318,428,cs),
(335,443,o),
(353,450,o),
(374,450,cs),
(389,450,o),
(404,446,o),
(419,438,c),
(444,496,l),
(432,503,o),
(420,509,o),
(407,512,cs),
(395,515,o),
(383,516,o),
(371,516,cs),
(338,516,o),
(309,506,o),
(282,485,cs),
(255,464,o),
(234,434,o),
(219,397,cs),
(210,378,o),
(202,355,o),
(197,330,cs),
(192,305,o),
(190,278,o),
(190,249,cs),
(190,220,o),
(193,192,o),
(198,163,cs),
(203,134,o),
(211,108,o),
(222,84,cs),
(233,59,o),
(249,40,o),
(268,25,cs),
(287,10,o),
(312,2,o),
(341,2,cs)
);
},
{
closed = 1;
nodes = (
(184,68,l),
(171,70,o),
(159,79,o),
(147,95,cs),
(134,110,o),
(124,136,o),
(116,171,cs),
(108,206,o),
(104,254,o),
(104,314,cs),
(104,381,o),
(112,432,o),
(127,467,cs),
(142,502,o),
(161,519,o),
(184,519,cs),
(199,519,o),
(212,516,o),
(223,509,cs),
(234,502,o),
(242,492,o),
(249,479,cs),
(255,466,o),
(258,451,o),
(259,434,c),
(304,453,l),
(303,476,o),
(298,498,o),
(289,518,cs),
(280,537,o),
(266,553,o),
(249,565,cs),
(231,577,o),
(209,583,o),
(182,583,cs),
(158,583,o),
(135,575,o),
(114,559,cs),
(92,543,o),
(74,516,o),
(61,477,cs),
(47,438,o),
(40,383,o),
(40,314,cs),
(40,257,o),
(44,209,o),
(51,170,cs),
(58,131,o),
(69,100,o),
(82,77,cs),
(95,53,o),
(110,35,o),
(128,24,cs),
(145,13,o),
(164,6,o),
(184,5,c)
);
},
{
closed = 1;
nodes = (
(283,693,o),
(289,703,o),
(296,712,cs),
(303,721,o),
(312,729,o),
(321,736,cs),
(331,743,o),
(343,749,o),
(357,754,c),
(327,815,l),
(305,803,o),
(286,789,o),
(269,772,cs),
(253,755,o),
(240,736,o),
(230,717,c),
(277,683,l)
);
},
{
closed = 1;
nodes = (
(606,653,o),
(617,667,o),
(626,684,cs),
(635,701,o),
(641,718,o),
(645,735,cs),
(649,752,o),
(651,767,o),
(651,780,cs),
(651,818,o),
(643,851,o),
(626,878,cs),
(610,905,o),
(588,927,o),
(560,942,cs),
(533,957,o),
(501,964,o),
(466,964,cs),
(431,964,o),
(401,957,o),
(376,943,cs),
(351,928,o),
(332,909,o),
(319,885,cs),
(306,861,o),
(300,834,o),
(300,804,cs),
(300,774,o),
(306,748,o),
(318,726,cs),
(330,704,o),
(348,688,o),
(372,678,c),
(430,698,l),
(381,724,l),
(377,728,o),
(373,735,o),
(368,745,cs),
(363,754,o),
(359,765,o),
(356,776,cs),
(353,787,o),
(351,797,o),
(351,804,cs),
(351,835,o),
(361,861,o),
(382,880,cs),
(403,899,o),
(431,909,o),
(464,909,cs),
(504,909,o),
(535,897,o),
(557,873,cs),
(580,850,o),
(591,819,o),
(591,781,cs),
(591,766,o),
(588,749,o),
(583,730,cs),
(578,711,o),
(568,694,o),
(552,678,c),
(591,640,l)
);
},
{
closed = 1;
nodes = (
(436,669,o),
(454,674,o),
(470,684,cs),
(487,693,o),
(500,706,o),
(509,723,cs),
(519,740,o),
(524,758,o),
(524,777,cs),
(524,804,o),
(514,828,o),
(494,847,cs),
(474,866,o),
(450,876,o),
(421,876,cs),
(402,876,o),
(385,872,o),
(368,863,cs),
(352,854,o),
(339,843,o),
(328,828,cs),
(318,813,o),
(313,796,o),
(313,777,cs),
(313,758,o),
(318,740,o),
(327,723,cs),
(336,706,o),
(349,693,o),
(364,684,cs),
(379,674,o),
(396,669,o),
(415,669,cs)
);
},
{
closed = 1;
nodes = (
(400,722,o),
(388,727,o),
(377,738,cs),
(366,749,o),
(361,762,o),
(361,777,cs),
(361,792,o),
(366,805,o),
(377,816,cs),
(388,827,o),
(400,832,o),
(415,832,cs),
(430,832,o),
(443,827,o),
(454,816,cs),
(465,805,o),
(470,792,o),
(470,777,cs),
(470,762,o),
(465,749,o),
(454,738,cs),
(443,727,o),
(430,722,o),
(415,722,cs)
);
}
);
width = 809;
}
);
}
{
glyphname = sinDR;
layers = (
{
layerId = m001;
shapes = (
{
closed = 1;
nodes = (
(357,0,o),
(423,37,o),
(463,88,c),
(421,127,l),
(391,93,o),
(343,66,o),
(271,66,cs),
(171,66,o),
(108,110,o),
(108,195,cs),
(108,288,o),
(192,323,o),
(275,323,cs),
(343,323,o),
(384,311,o),
(416,297,c),
(460,297,l),
(460,346,l),
(388,373,o),
(348,389,o),
(275,389,cs),
(148,389,o),
(40,322,o),
(40,195,cs),
(40,86,o),
(123,0,o),
(271,0,cs)
);
},
{
closed = 1;
nodes = (
(394,-200,o),
(487,-148,o),
(487,-40,cs),
(487,127,l),
(421,127,l),
(421,-40,ls),
(421,-109,o),
(357,-134,o),
(274,-134,cs),
(192,-134,o),
(103,-110,o),
(116,-28,c),
(50,-28,l),
(34,-144,o),
(141,-200,o),
(274,-200,cs)
);
},
{
closed = 1;
nodes = (
(463,323,o),
(464,348,o),
(464,371,cs),
(464,467,o),
(412,535,o),
(307,535,cs),
(235,535,o),
(160,499,o),
(160,425,c),
(224,425,l),
(224,448,o),
(256,471,o),
(309,471,cs),
(404,471,o),
(410,408,o),
(405,361,c),
(410,320,l),
(424,321,o),
(460,297,o),
(460,297,c)
);
},
{
closed = 1;
nodes = (
(385,500,l),
(385,737,l),
(318,737,l),
(318,500,l)
);
}
);
userData = {
com.fontlab.hintData = {
hhints = (
{
position = -200;
width = 66;
},
{
position = 0;
width = 66;
},
{
position = 323;
width = 66;
},
{
position = 471;
width = 64;
}
);
vhints = (
{
position = 40;
width = 68;
},
{
position = 50;
width = 66;
},
{
position = 160;
width = 64;
},
{
position = 421;
width = 66;
}
);
};
};
width = 527;
}
);
}
{
glyphname = sinDUu;
layers = (
{
layerId = m001;
shapes = (
{
closed = 1;
nodes = (
(357,0,o),
(423,37,o),
(463,88,c),
(421,127,l),
(391,93,o),
(343,66,o),
(271,66,cs),
(171,66,o),
(108,110,o),
(108,195,cs),
(108,288,o),
(192,323,o),
(275,323,cs),
(343,323,o),
(384,311,o),
(416,297,c),
(460,297,l),
(460,346,l),
(388,373,o),
(348,389,o),
(275,389,cs),
(148,389,o),
(40,322,o),
(40,195,cs),
(40,86,o),
(123,0,o),
(271,0,cs)
);
},
{
closed = 1;
nodes = (
(212,-200,o),
(264,-137,o),
(327,-137,cs),
(340,-137,o),
(378,-137,o),
(415,-200,c),
(439,-151,l),
(411,-106,o),
(373,-73,o),
(327,-73,cs),
(258,-73,o),
(215,-135,o),
(158,-135,cs),
(109,-135,o),
(112,-114,o),
(118,-69,c),
(56,-69,l),
(45,-108,o),
(31,-200,o),
(150,-200,cs)
);
},
{
closed = 1;
nodes = (
(479,-200,l),
(479,127,l),
(421,127,l),
(415,25,l),
(415,-200,l)
);
},
{
closed = 1;
nodes = (
(463,323,o),
(464,348,o),
(464,371,cs),
(464,467,o),
(412,535,o),
(307,535,cs),
(235,535,o),
(160,499,o),
(160,425,c),
(224,425,l),
(224,448,o),
(256,471,o),
(309,471,cs),
(404,471,o),
(410,408,o),
(405,361,c),
(410,320,l),
(424,321,o),
(460,297,o),
(460,297,c)
);
}
);
userData = {
com.fontlab.hintData = {
hhints = (
{
position = -200;
width = 64;
},
{
position = 0;
width = 66;
},
{
position = 323;
width = 66;
},
{
position = 471;
width = 64;
}
);
vhints = (
{
position = 40;
width = 68;
},
{
position = 160;
width = 64;
},
{
position = 415;
width = 64;
},
{
position = 415;
width = 9;
}
);
};
};
width = 519;
}
);
}
{
glyphname = sinDV;
layers = (
{
layerId = m001;
shapes = (
{
closed = 1;
nodes = (
(635,0,o),
(740,121,o),
(740,316,cs),
(740,565,o),
(598,658,o),
(421,658,cs),
(324,658,o),
(259,631,o),
(212,606,c),
(245,550,l),
(276,568,o),
(319,590,o),
(421,590,cs),
(558,590,o),
(672,525,o),
(672,316,cs),
(672,152,o),
(598,68,o),
(442,68,cs),
(311,68,o),
(249,153,o),
(249,221,cs),
(249,293,o),
(288,329,o),
(340,329,cs),
(490,329,l),
(490,389,l),
(340,389,ls),
(247,389,o),
(181,347,o),
(181,221,cs),
(181,121,o),
(266,0,o),
(442,0,cs)
);
},
{
closed = 1;
nodes = (
(208,64,l),
(121,64,o),
(104,163,o),
(104,273,cs),
(104,370,o),
(142,471,o),
(216,471,cs),
(232,471,o),
(247,465,o),
(257,452,c),
(272,456,o),
(292,476,o),
(294,494,c),
(276,521,o),
(240,535,o),
(216,535,cs),
(101,535,o),
(40,413,o),
(40,273,cs),
(40,81,o),
(112,0,o),
(208,0,c)
);
},
{
closed = 1;
nodes = (
(493,329,l),
(523,444,o),
(479,535,o),
(355,535,cs),
(288,535,o),
(217,499,o),
(217,425,c),
(279,425,l),
(279,449,o),
(307,473,o),
(355,473,cs),
(446,473,o),
(446,406,o),
(437,374,c),
(453,329,l)
);
},
{
closed = 1;
nodes = (
(666,585,o),
(724,617,o),
(724,673,cs),
(724,740,o),
(675,800,o),
(466,800,cs),
(261,800,o),
(203,755,o),
(203,698,cs),
(203,674,o),
(226,642,o),
(269,623,c),
(316,642,l),
(292,660,o),
(275,672,o),
(275,690,cs),
(275,708,o),
(292,732,o),
(466,732,cs),
(618,732,o),
(656,712,o),
(656,673,cs),
(656,644,o),
(629,627,o),
(575,610,c),
(621,573,l)
);
}
);
userData = {
com.fontlab.hintData = {
hhints = (
{
position = 0;
width = 68;
},
{
position = 329;
width = 60;
},
{
position = 471;
width = 64;
},
{
position = 669;
width = 68;
}
);
vhints = (
{
position = 40;
width = 64;
},
{
position = 181;
width = 68;
},
{
position = 194;
width = 68;
},
{
position = 217;
width = 62;
},
{
position = 672;
width = 68;
}
);
};
};
width = 780;
}
);
}
{
glyphname = sinDVI;
layers = (
{
layerId = m001;
shapes = (
{
closed = 1;
nodes = (
(635,0,o),
(740,140,o),
(740,335,cs),
(740,574,o),
(607,644,o),
(441,644,c),
(441,576,l),
(567,576,o),
(672,533,o),
(672,335,cs),
(672,171,o),
(598,68,o),
(442,68,cs),
(311,68,o),
(249,153,o),
(249,221,cs),
(249,293,o),
(288,329,o),
(340,329,cs),
(490,329,l),
(490,389,l),
(340,389,ls),
(247,389,o),
(181,347,o),
(181,221,cs),
(181,121,o),
(266,0,o),
(442,0,cs)
);
},
{
closed = 1;
nodes = (
(208,64,l),
(121,64,o),
(104,163,o),
(104,273,cs),
(104,370,o),
(142,471,o),
(216,471,cs),
(232,471,o),
(247,465,o),
(257,452,c),
(272,456,o),
(292,476,o),
(294,494,c),
(276,521,o),
(240,535,o),
(216,535,cs),
(101,535,o),
(40,413,o),
(40,273,cs),
(40,81,o),
(112,0,o),
(208,0,c)
);
},
{
closed = 1;
nodes = (
(493,329,l),
(523,444,o),
(479,535,o),
(355,535,cs),
(288,535,o),
(217,499,o),
(217,425,c),
(279,425,l),
(279,449,o),
(307,473,o),
(355,473,cs),
(446,473,o),
(446,406,o),
(437,374,c),
(453,329,l)
);
},
{
closed = 1;
nodes = (
(367,572,o),
(374,576,o),
(441,576,c),
(459,614,l),
(441,644,l),
(392,644,o),
(363,640,o),
(315,640,cs),
(272,640,o),
(253,651,o),
(253,674,cs),
(253,718,o),
(320,734,o),
(450,734,cs),
(590,734,o),
(636,706,o),
(636,672,cs),
(636,659,o),
(634,649,o),
(630,640,c),
(698,640,l),
(701,649,o),
(704,659,o),
(704,672,cs),
(704,744,o),
(650,800,o),
(450,800,cs),
(276,800,o),
(185,764,o),
(185,674,cs),
(185,594,o),
(254,572,o),
(315,572,cs)
);
}
);
userData = {
com.fontlab.hintData = {
hhints = (
{
position = 0;
width = 68;
},
{
position = 329;
width = 60;
},
{
position = 471;
width = 64;
},
{
position = 669;
width = 68;
}
);
vhints = (
{
position = 40;
width = 64;
},
{
position = 181;
width = 68;
},
{
position = 194;
width = 68;
},
{
position = 217;
width = 62;
},
{
position = 672;
width = 68;
}
);
};
};
width = 780;
}
);
}
{
glyphname = sinDVU;
layers = (
{
layerId = m001;
shapes = (
{
closed = 1;
nodes = (
(635,0,o),
(740,140,o),
(740,335,cs),
(740,597,o),
(617,737,o),
(427,737,cs),
(285,737,o),
(194,653,o),
(194,585,c),
(262,585,l),
(262,615,o),
(311,669,o),
(427,669,cs),
(576,669,o),
(672,552,o),
(672,335,cs),
(672,171,o),
(598,68,o),
(442,68,cs),
(311,68,o),
(249,153,o),
(249,221,cs),
(249,293,o),
(288,329,o),
(340,329,cs),
(490,329,l),
(490,389,l),
(340,389,ls),
(247,389,o),
(181,347,o),
(181,221,cs),
(181,121,o),
(266,0,o),
(442,0,cs)
);
},
{
closed = 1;
nodes = (
(656,-200,l),
(656,-136,l),
(308,-136,ls),
(269,-136,o),
(260,-112,o),
(260,-86,c),
(192,-86,l),
(192,-144,o),
(224,-200,o),
(305,-200,cs)
);
},
{
closed = 1;
nodes = (
(208,64,l),
(121,64,o),
(104,163,o),
(104,273,cs),
(104,370,o),
(142,471,o),
(216,471,cs),
(232,471,o),
(247,465,o),
(257,452,c),
(272,456,o),
(292,476,o),
(294,494,c),
(276,521,o),
(240,535,o),
(216,535,cs),
(101,535,o),
(40,413,o),
(40,273,cs),
(40,81,o),
(112,0,o),
(208,0,c)
);
},
{
closed = 1;
nodes = (
(711,-200,l),
(711,230,l),
(660,194,l),
(647,126,l),
(647,-200,l)
);
},
{
closed = 1;
nodes = (
(493,329,l),
(523,444,o),
(479,535,o),
(355,535,cs),
(288,535,o),
(217,499,o),
(217,425,c),
(279,425,l),
(279,449,o),
(307,473,o),
(355,473,cs),
(446,473,o),
(446,406,o),
(437,374,c),
(453,329,l)
);
}
);
userData = {
com.fontlab.hintData = {
hhints = (
{
position = 0;
width = 68;
},
{
position = 329;
width = 60;
},
{
position = 471;
width = 64;
},
{
position = 669;
width = 68;
}
);
vhints = (
{
position = 40;
width = 64;
},
{
position = 181;
width = 68;
},
{
position = 194;
width = 68;
},
{
position = 217;
width = 62;
},
{
position = 672;
width = 68;
}
);
};
};
width = 780;
}
);
}
{
glyphname = sinDVUu;
layers = (
{
layerId = m001;
shapes = (
{
closed = 1;
nodes = (
(635,0,o),
(740,140,o),
(740,335,cs),
(740,597,o),
(617,737,o),
(427,737,cs),
(285,737,o),
(194,653,o),
(194,585,c),
(262,585,l),
(262,615,o),
(311,669,o),
(427,669,cs),
(576,669,o),
(672,552,o),
(672,335,cs),
(672,171,o),
(598,68,o),
(442,68,cs),
(311,68,o),
(249,153,o),
(249,221,cs),
(249,293,o),
(288,329,o),
(340,329,cs),
(490,329,l),
(490,389,l),
(340,389,ls),
(247,389,o),
(181,347,o),
(181,221,cs),
(181,121,o),
(266,0,o),
(442,0,cs)
);
},
{
closed = 1;
nodes = (
(377,-200,o),
(446,-127,o),
(531,-127,cs),
(548,-127,o),
(597,-127,o),
(646,-200,c),
(670,-151,l),
(636,-100,o),
(589,-63,o),
(531,-63,cs),
(437,-63,o),
(379,-135,o),
(302,-135,cs),
(253,-135,o),
(256,-114,o),
(262,-69,c),
(200,-69,l),
(189,-108,o),
(175,-200,o),
(294,-200,cs)
);
},
{
closed = 1;
nodes = (
(208,64,l),
(121,64,o),
(104,163,o),
(104,273,cs),
(104,370,o),
(142,471,o),
(216,471,cs),
(232,471,o),
(247,465,o),
(257,452,c),
(272,456,o),
(292,476,o),
(294,494,c),
(276,521,o),
(240,535,o),
(216,535,cs),
(101,535,o),
(40,413,o),
(40,273,cs),
(40,81,o),
(112,0,o),
(208,0,c)
);
},
{
closed = 1;
nodes = (
(710,-200,l),
(710,184,l),
(659,148,l),
(646,80,l),
(646,-200,l)
);
},
{
closed = 1;
nodes = (
(493,329,l),
(523,444,o),
(479,535,o),
(355,535,cs),
(288,535,o),
(217,499,o),
(217,425,c),
(279,425,l),
(279,449,o),
(307,473,o),
(355,473,cs),
(446,473,o),
(446,406,o),
(437,374,c),
(453,329,l)
);
}
);
userData = {
com.fontlab.hintData = {
hhints = (
{
position = 0;
width = 68;
},
{
position = 329;
width = 60;
},
{
position = 471;
width = 64;
},
{
position = 669;
width = 68;
}
);
vhints = (
{
position = 40;
width = 64;
},
{
position = 181;
width = 68;
},
{
position = 194;
width = 68;
},
{
position = 217;
width = 62;
},
{
position = 672;
width = 68;
}
);
};
};
width = 780;
}
);
}
{
glyphname = sinDVa.reph;
layers = (
{
layerId = m001;
shapes = (
{
closed = 1;
nodes = (
(533,2,o),
(603,36,o),
(650,105,cs),
(697,173,o),
(721,272,o),
(722,403,cs),
(722,499,o),
(713,577,o),
(695,637,cs),
(678,697,o),
(654,744,o),
(625,777,c),
(592,704,l),
(611,675,o),
(625,637,o),
(636,588,cs),
(647,539,o),
(653,477,o),
(653,403,cs),
(653,294,o),
(635,212,o),
(599,155,cs),
(564,98,o),
(511,70,o),
(442,70,cs),
(403,70,o),
(372,76,o),
(347,88,cs),
(323,100,o),
(304,115,o),
(291,134,cs),
(278,153,o),
(268,173,o),
(263,194,cs),
(258,215,o),
(255,235,o),
(255,252,cs),
(255,291,o),
(264,324,o),
(281,349,cs),
(298,375,o),
(323,388,o),
(357,388,cs),
(509,388,l),
(470,443,l),
(344,443,ls),
(326,443,o),
(309,440,o),
(294,435,cs),
(279,430,o),
(265,422,o),
(253,413,cs),
(234,397,o),
(218,375,o),
(207,347,cs),
(196,318,o),
(190,286,o),
(190,249,cs),
(190,226,o),
(194,201,o),
(201,173,cs),
(208,145,o),
(221,118,o),
(240,92,cs),
(258,66,o),
(283,45,o),
(316,28,cs),
(349,11,o),
(391,2,o),
(442,2,cs)
);
},
{
closed = 1;
nodes = (
(184,68,l),
(171,70,o),
(159,79,o),
(147,95,cs),
(134,110,o),
(124,136,o),
(116,171,cs),
(108,206,o),
(104,254,o),
(104,314,cs),
(104,381,o),
(112,432,o),
(127,467,cs),
(142,502,o),
(161,519,o),
(184,519,cs),
(195,519,o),
(204,517,o),
(212,512,cs),
(220,507,o),
(227,500,o),
(232,492,cs),
(237,483,o),
(239,473,o),
(240,462,c),
(284,481,l),
(283,499,o),
(279,516,o),
(271,531,cs),
(263,546,o),
(252,559,o),
(238,569,cs),
(223,578,o),
(205,583,o),
(182,583,cs),
(158,583,o),
(135,575,o),
(114,559,cs),
(92,543,o),
(74,516,o),
(61,477,cs),
(47,438,o),
(40,383,o),
(40,314,cs),
(40,257,o),
(44,209,o),
(51,170,cs),
(58,131,o),
(69,100,o),
(82,77,cs),
(95,53,o),
(110,35,o),
(128,24,cs),
(145,13,o),
(164,6,o),
(184,5,c)
);
},
{
closed = 1;
nodes = (
(316,411,l),
(309,419,o),
(304,428,o),
(299,439,cs),
(294,449,o),
(291,460,o),
(291,473,cs),
(291,496,o),
(298,513,o),
(312,525,cs),
(325,537,o),
(343,543,o),
(364,543,cs),
(389,543,o),
(411,534,o),
(429,517,cs),
(446,500,o),
(455,474,o),
(455,440,c),
(456,438,o),
(456,436,o),
(456,435,c),
(455,433,o),
(455,431,o),
(454,429,c),
(509,388,l),
(512,411,ls),
(513,418,o),
(513,426,o),
(513,433,cs),
(513,471,o),
(506,502,o),
(492,527,cs),
(478,551,o),
(460,569,o),
(437,581,cs),
(414,593,o),
(390,599,o),
(364,599,cs),
(328,599,o),
(298,588,o),
(273,567,cs),
(248,545,o),
(235,514,o),
(235,475,cs),
(235,457,o),
(239,440,o),
(246,424,cs),
(253,407,o),
(261,394,o),
(270,383,c)
);
},
{
closed = 1;
nodes = (
(283,695,o),
(292,710,o),
(304,723,cs),
(315,736,o),
(328,747,o),
(342,756,c),
(325,819,l),
(302,806,o),
(281,790,o),
(263,770,cs),
(244,751,o),
(230,728,o),
(220,702,c),
(278,680,l)
);
},
{
closed = 1;
nodes = (
(432,669,o),
(450,674,o),
(467,683,cs),
(483,693,o),
(496,706,o),
(506,723,cs),
(516,740,o),
(521,758,o),
(521,777,cs),
(521,804,o),
(511,828,o),
(491,847,cs),
(470,866,o),
(445,876,o),
(416,876,cs),
(398,876,o),
(381,872,o),
(364,863,cs),
(347,854,o),
(334,843,o),
(324,828,cs),
(314,813,o),
(309,796,o),
(309,777,cs),
(309,758,o),
(314,740,o),
(323,723,cs),
(332,706,o),
(344,693,o),
(360,683,cs),
(375,674,o),
(392,669,o),
(411,669,cs)
);
},
{
closed = 1;
nodes = (
(396,722,o),
(384,727,o),
(373,738,cs),
(362,749,o),
(356,762,o),
(356,777,cs),
(356,792,o),
(362,805,o),
(373,816,cs),
(384,827,o),
(396,832,o),
(411,832,cs),
(426,832,o),
(439,827,o),
(450,816,cs),
(461,805,o),
(466,792,o),
(466,777,cs),
(466,762,o),
(461,749,o),
(450,738,cs),
(439,727,o),
(426,722,o),
(411,722,cs)
);
},
{
closed = 1;
nodes = (
(582,628,o),
(597,645,o),
(610,663,cs),
(622,682,o),
(631,701,o),
(638,721,cs),
(645,741,o),
(648,761,o),
(648,780,cs),
(648,818,o),
(640,851,o),
(624,878,cs),
(607,905,o),
(585,926,o),
(557,941,cs),
(529,956,o),
(497,964,o),
(462,964,cs),
(427,964,o),
(398,957,o),
(373,942,cs),
(348,928,o),
(330,909,o),
(317,885,cs),
(304,861,o),
(297,834,o),
(297,804,cs),
(297,774,o),
(303,748,o),
(315,726,cs),
(326,704,o),
(344,688,o),
(368,678,c),
(426,698,l),
(378,724,l),
(373,728,o),
(369,735,o),
(364,744,cs),
(359,754,o),
(355,765,o),
(352,776,cs),
(349,787,o),
(347,797,o),
(347,804,cs),
(347,835,o),
(357,861,o),
(378,880,cs),
(399,899,o),
(426,909,o),
(460,909,cs),
(501,909,o),
(532,897,o),
(555,873,cs),
(577,850,o),
(588,819,o),
(588,781,cs),
(588,770,o),
(586,756,o),
(583,741,cs),
(579,726,o),
(573,711,o),
(564,696,cs),
(555,681,o),
(543,667,o),
(527,654,c),
(565,613,l)
);
}
);
width = 761;
}
);
}
{
glyphname = sinDd;
layers = (
{
layerId = m001;
shapes = (
{
closed = 1;
nodes = (
(301,0,o),
(332,61,o),
(343,98,c),
(354,61,o),
(386,0,o),
(473,0,cs),
(635,0,o),
(656,174,o),
(656,301,cs),
(656,550,o),
(505,658,o),
(316,658,cs),
(220,658,o),
(146,632,o),
(107,606,c),
(141,550,l),
(171,568,o),
(214,590,o),
(316,590,cs),
(465,590,o),
(588,509,o),
(588,301,cs),
(588,198,o),
(572,68,o),
(473,68,cs),
(405,68,o),
(379,132,o),
(379,224,c),
(305,224,l),
(305,132,o),
(279,68,o),
(220,68,cs),
(154,68,o),
(130,135,o),
(130,178,cs),
(130,281,o),
(178,329,o),
(243,329,cs),
(333,329,l),
(333,368,l),
(228,368,ls),
(131,368,o),
(64,292,o),
(64,178,cs),
(64,109,o),
(106,0,o),
(220,0,cs)
);
},
{
closed = 1;
nodes = (
(380,329,l),
(380,389,l),
(40,389,l),
(40,329,l)
);
},
{
closed = 1;
nodes = (
(380,329,l),
(410,444,o),
(366,535,o),
(242,535,cs),
(175,535,o),
(104,499,o),
(104,425,c),
(166,425,l),
(166,449,o),
(194,473,o),
(242,473,cs),
(333,473,o),
(333,406,o),
(324,374,c),
(340,329,l)
);
},
{
closed = 1;
nodes = (
(561,585,o),
(619,617,o),
(619,673,cs),
(619,740,o),
(571,800,o),
(361,800,cs),
(157,800,o),
(98,755,o),
(98,698,cs),
(98,674,o),
(121,642,o),
(165,623,c),
(211,642,l),
(188,660,o),
(170,672,o),
(170,690,cs),
(170,708,o),
(188,732,o),
(361,732,cs),
(514,732,o),
(551,712,o),
(551,673,cs),
(551,644,o),
(525,627,o),
(470,610,c),
(517,573,l)
);
}
);
userData = {
com.fontlab.hintData = {
hhints = (
{
position = 0;
width = 68;
},
{
position = 329;
width = 60;
},
{
position = 329;
width = 39;
},
{
position = 473;
width = 62;
},
{
position = 573;
width = 21;
},
{
position = 590;
width = 68;
},
{
position = 732;
width = 68;
}
);
vhints = (
{
position = 64;
width = 66;
},
{
position = 98;
width = 72;
},
{
position = 305;
width = 74;
},
{
position = 551;
width = 68;
},
{
position = 588;
width = 68;
}
);
};
};
width = 696;
}
);
}
{
glyphname = sinDdI;
layers = (
{
layerId = m001;
shapes = (
{
closed = 1;
nodes = (
(301,0,o),
(332,61,o),
(343,98,c),
(354,61,o),
(386,0,o),
(473,0,cs),
(635,0,o),
(656,174,o),
(656,301,cs),
(656,540,o),
(512,644,o),
(331,644,c),
(331,576,l),
(471,576,o),
(588,499,o),
(588,301,cs),
(588,198,o),
(572,68,o),
(473,68,cs),
(405,68,o),
(379,132,o),
(379,224,c),
(305,224,l),
(305,132,o),
(279,68,o),
(220,68,cs),
(154,68,o),
(130,135,o),
(130,178,cs),
(130,281,o),
(178,329,o),
(243,329,cs),
(333,329,l),
(333,368,l),
(228,368,ls),
(131,368,o),
(64,292,o),
(64,178,cs),
(64,109,o),
(106,0,o),
(220,0,cs)
);
},
{
closed = 1;
nodes = (
(380,329,l),
(380,389,l),
(40,389,l),
(40,329,l)
);
},
{
closed = 1;
nodes = (
(380,329,l),
(410,444,o),
(366,535,o),
(242,535,cs),
(175,535,o),
(104,499,o),
(104,425,c),
(166,425,l),
(166,449,o),
(194,473,o),
(242,473,cs),
(333,473,o),
(333,406,o),
(324,374,c),
(340,329,l)
);
},
{
closed = 1;
nodes = (
(257,572,o),
(263,576,o),
(331,576,c),
(349,614,l),
(331,644,l),
(282,644,o),
(252,640,o),
(205,640,cs),
(161,640,o),
(143,651,o),
(143,674,cs),
(143,718,o),
(210,734,o),
(340,734,cs),
(500,734,o),
(552,706,o),
(552,672,cs),
(552,659,o),
(550,649,o),
(546,640,c),
(614,640,l),
(617,649,o),
(620,659,o),
(620,672,cs),
(620,744,o),
(560,800,o),
(340,800,cs),
(166,800,o),
(75,764,o),
(75,674,cs),
(75,594,o),
(143,572,o),
(205,572,cs)
);
}
);
userData = {
com.fontlab.hintData = {
hhints = (
{
position = 0;
width = 68;
},
{
position = 329;
width = 60;
},
{
position = 329;
width = 39;
},
{
position = 473;
width = 62;
},
{
position = 572;
width = 68;
},
{
position = 734;
width = 66;
}
);
vhints = (
{
position = 64;
width = 66;
},
{
position = 75;
width = 68;
},
{
position = 104;
width = 62;
},
{
position = 305;
width = 74;
},
{
position = 552;
width = 68;
},
{
position = 588;
width = 68;
}
);
};
};
width = 696;
}
);
}
{
glyphname = sinDdIi;
layers = (
{
layerId = m001;
shapes = (
{
closed = 1;
nodes = (
(301,0,o),
(332,61,o),
(343,98,c),
(354,61,o),
(386,0,o),
(473,0,cs),
(635,0,o),
(656,174,o),
(656,301,cs),
(656,540,o),
(512,644,o),
(331,644,c),
(331,576,l),
(471,576,o),
(588,499,o),
(588,301,cs),
(588,198,o),
(572,68,o),
(473,68,cs),
(405,68,o),
(379,132,o),
(379,224,c),
(305,224,l),
(305,132,o),
(279,68,o),
(220,68,cs),
(154,68,o),
(130,135,o),
(130,178,cs),
(130,281,o),
(178,329,o),
(243,329,cs),
(333,329,l),
(333,368,l),
(228,368,ls),
(131,368,o),
(64,292,o),
(64,178,cs),
(64,109,o),
(106,0,o),
(220,0,cs)
);
},
{
closed = 1;
nodes = (
(380,329,l),
(380,389,l),
(40,389,l),
(40,329,l)
);
},
{
closed = 1;
nodes = (
(380,329,l),
(410,444,o),
(366,535,o),
(242,535,cs),
(175,535,o),
(104,499,o),
(104,425,c),
(166,425,l),
(166,449,o),
(194,473,o),
(242,473,cs),
(333,473,o),
(333,406,o),
(324,374,c),
(340,329,l)
);
},
{
closed = 1;
nodes = (
(257,572,o),
(263,576,o),
(331,576,c),
(349,614,l),
(331,644,l),
(282,644,o),
(252,640,o),
(205,640,cs),
(161,640,o),
(143,651,o),
(143,674,cs),
(143,718,o),
(210,734,o),
(340,734,cs),
(411,734,o),
(461,732,o),
(495,723,c),
(565,734,o),
(569,712,o),
(569,693,cs),
(569,680,o),
(579,674,o),
(552,642,c),
(592,642,l),
(595,651,o),
(615,678,o),
(615,692,cs),
(615,752,o),
(560,800,o),
(340,800,cs),
(166,800,o),
(75,764,o),
(75,674,cs),
(75,594,o),
(143,572,o),
(205,572,cs)
);
},
{
closed = 1;
nodes = (
(580,612,o),
(615,649,o),
(615,692,cs),
(615,720,o),
(589,753,o),
(546,753,c),
(504,767,o),
(458,735,o),
(458,692,cs),
(458,649,o),
(494,612,o),
(537,612,cs)
);
},
{
closed = 1;
nodes = (
(523,666,o),
(511,678,o),
(511,691,cs),
(511,704,o),
(523,716,o),
(536,716,cs),
(549,716,o),
(561,704,o),
(561,691,cs),
(561,678,o),
(549,666,o),
(536,666,cs)
);
}
);
userData = {
com.fontlab.hintData = {
hhints = (
{
position = 0;
width = 68;
},
{
position = 329;
width = 60;
},
{
position = 329;
width = 39;
},
{
position = 473;
width = 62;
},
{
position = 572;
width = 68;
},
{
position = 612;
width = 55;
},
{
position = 734;
width = 66;
}
);
vhints = (
{
position = 64;
width = 66;
},
{
position = 75;
width = 68;
},
{
position = 104;
width = 62;
},
{
position = 305;
width = 74;
},
{
position = 458;
width = 54;
},
{
position = 569;
width = 46;
},
{
position = 588;
width = 68;
}
);
};
};
width = 696;
}
);
}
{
glyphname = sinDda.reph;
layers = (
{
layerId = m001;
shapes = (
{
closed = 1;
nodes = (
(301,0,o),
(332,61,o),
(343,98,c),
(354,61,o),
(386,0,o),
(473,0,cs),
(635,0,o),
(656,174,o),
(656,301,cs),
(656,501,o),
(589,640,o),
(472,670,c),
(476,664,o),
(479,639,o),
(482,593,c),
(556,560,o),
(588,449,o),
(588,301,cs),
(588,198,o),
(572,68,o),
(473,68,cs),
(405,68,o),
(379,132,o),
(379,224,c),
(305,224,l),
(305,132,o),
(279,68,o),
(220,68,cs),
(154,68,o),
(130,135,o),
(130,178,cs),
(130,281,o),
(178,329,o),
(243,329,cs),
(333,329,l),
(333,368,l),
(228,368,ls),
(131,368,o),
(64,292,o),
(64,178,cs),
(64,109,o),
(106,0,o),
(220,0,cs)
);
},
{
closed = 1;
nodes = (
(380,329,l),
(380,389,l),
(40,389,l),
(40,329,l)
);
},
{
closed = 1;
nodes = (
(380,329,l),
(410,444,o),
(366,535,o),
(242,535,cs),
(175,535,o),
(104,499,o),
(104,425,c),
(166,425,l),
(166,449,o),
(194,473,o),
(242,473,cs),
(333,473,o),
(333,406,o),
(324,374,c),
(340,329,l)
);
},
{
closed = 1;
nodes = (
(147,549,l),
(147,568,o),
(166,596,o),
(208,618,c),
(189,673,l),
(119,643,o),
(79,593,o),
(79,549,c)
);
},
{
closed = 1;
nodes = (
(504,568,o),
(505,633,o),
(505,637,cs),
(505,741,o),
(428,800,o),
(337,800,cs),
(235,800,o),
(182,735,o),
(182,664,c),
(182,664,o),
(224,664,o),
(224,663,cs),
(224,712,o),
(268,745,o),
(335,745,cs),
(355,745,o),
(450,740,o),
(450,638,cs),
(450,622,o),
(445,590,o),
(406,564,c),
(446,526,l)
);
},
{
closed = 1;
nodes = (
(332,566,o),
(373,614,o),
(373,664,cs),
(373,714,o),
(331,753,o),
(279,753,cs),
(233,753,o),
(182,720,o),
(182,664,cs),
(182,611,o),
(222,566,o),
(274,566,cs)
);
},
{
closed = 1;
nodes = (
(249,619,o),
(229,639,o),
(229,664,cs),
(229,689,o),
(249,709,o),
(274,709,cs),
(298,709,o),
(318,690,o),
(318,664,cs),
(318,638,o),
(298,619,o),
(274,619,cs)
);
}
);
userData = {
com.fontlab.hintData = {
hhints = (
{
position = 0;
width = 68;
},
{
position = 329;
width = 60;
},
{
position = 329;
width = 39;
},
{
position = 473;
width = 62;
},
{
position = 669;
width = 68;
}
);
vhints = (
{
position = 64;
width = 66;
},
{
position = 79;
width = 68;
},
{
position = 104;
width = 62;
},
{
position = 305;
width = 74;
},
{
position = 588;
width = 68;
}
);
};
};
width = 696;
}
);
}
{
glyphname = sinDdh;
layers = (
{
layerId = m001;
shapes = (
{
closed = 1;
nodes = (
(640,450,l),
(640,737,l),
(580,737,l),
(580,657,l),
(602,450,l)
);
},
{
ref = sinDdha;
}
);
userData = {
com.fontlab.hintData = {
hhints = (
{
position = 0;
width = 68;
},
{
position = 329;
width = 39;
},
{
position = 329;
width = 60;
},
{
position = 471;
width = 60;
}
);
vhints = (
{
position = 64;
width = 66;
},
{
position = 104;
width = 62;
},
{
position = 305;
width = 74;
},
{
position = 580;
width = 60;
},
{
position = 588;
width = 68;
},
{
position = 602;
width = 38;
}
);
};
};
width = 696;
}
);
}
{
glyphname = sinDdhI;
layers = (
{
layerId = m001;
shapes = (
{
closed = 1;
nodes = (
(301,0,o),
(332,61,o),
(343,98,c),
(354,61,o),
(386,0,o),
(473,0,cs),
(635,0,o),
(656,174,o),
(656,301,cs),
(656,525,o),
(569,654,o),
(445,705,c),
(415,655,l),
(471,630,o),
(521,582,o),
(547,517,c),
(573,463,o),
(588,392,o),
(588,301,cs),
(588,198,o),
(572,68,o),
(473,68,cs),
(405,68,o),
(379,132,o),
(379,224,c),
(305,224,l),
(305,132,o),
(279,68,o),
(220,68,cs),
(154,68,o),
(130,135,o),
(130,178,cs),
(130,281,o),
(178,329,o),
(243,329,cs),
(333,329,l),
(333,368,l),
(228,368,ls),
(131,368,o),
(64,292,o),
(64,178,cs),
(64,109,o),
(106,0,o),
(220,0,cs)
);
},
{
closed = 1;
nodes = (
(380,329,l),
(380,389,l),
(40,389,l),
(40,329,l)
);
},
{
closed = 1;
nodes = (
(380,329,l),
(410,444,o),
(366,535,o),
(242,535,cs),
(175,535,o),
(104,499,o),
(104,425,c),
(166,425,l),
(166,449,o),
(194,473,o),
(242,473,cs),
(333,473,o),
(333,406,o),
(324,374,c),
(340,329,l)
);
},
{
closed = 1;
nodes = (
(538,465,o),
(558,474,o),
(569,478,c),
(548,527,l),
(540,524,o),
(524,520,o),
(512,520,cs),
(478,520,o),
(453,536,o),
(453,577,cs),
(453,604,o),
(463,628,o),
(482,644,c),
(436,672,l),
(415,655,l),
(408,642,o),
(395,615,o),
(395,577,cs),
(395,498,o),
(454,465,o),
(510,465,cs)
);
},
{
closed = 1;
nodes = (
(412,572,l),
(430,600,l),
(412,630,l),
(330,630,ls),
(276,630,o),
(253,645,o),
(253,674,cs),
(253,718,o),
(306,734,o),
(407,734,cs),
(541,734,o),
(585,706,o),
(585,672,cs),
(585,659,o),
(583,649,o),
(579,640,c),
(647,640,l),
(650,649,o),
(653,659,o),
(653,672,cs),
(653,744,o),
(600,800,o),
(407,800,cs),
(261,800,o),
(185,764,o),
(185,674,cs),
(185,594,o),
(261,572,o),
(330,572,cs)
);
}
);
userData = {
com.fontlab.hintData = {
hhints = (
{
position = 0;
width = 68;
},
{
position = 329;
width = 60;
},
{
position = 329;
width = 39;
},
{
position = 471;
width = 60;
}
);
vhints = (
{
position = 64;
width = 66;
},
{
position = 104;
width = 62;
},
{
position = 305;
width = 74;
},
{
position = 588;
width = 68;
}
);
};
};
width = 696;
}
);
}
{
glyphname = sinDdhIi;
layers = (
{
layerId = m001;
shapes = (
{
closed = 1;
nodes = (
(301,0,o),
(332,61,o),
(343,98,c),
(354,61,o),
(386,0,o),
(473,0,cs),
(635,0,o),
(656,174,o),
(656,301,cs),
(656,423,o),
(630,517,o),
(587,585,c),
(554,606,o),
(544,614,o),
(538,645,c),
(511,671,o),
(479,691,o),
(445,705,c),
(415,655,l),
(471,630,o),
(521,582,o),
(547,517,c),
(573,463,o),
(588,392,o),
(588,301,cs),
(588,198,o),
(572,68,o),
(473,68,cs),
(405,68,o),
(379,132,o),
(379,224,c),
(305,224,l),
(305,132,o),
(279,68,o),
(220,68,cs),
(154,68,o),
(130,135,o),
(130,178,cs),
(130,281,o),
(178,329,o),
(243,329,cs),
(333,329,l),
(333,368,l),
(228,368,ls),
(131,368,o),
(64,292,o),
(64,178,cs),
(64,109,o),
(106,0,o),
(220,0,cs)
);
},
{
closed = 1;
nodes = (
(380,329,l),
(380,389,l),
(40,389,l),
(40,329,l)
);
},
{
closed = 1;
nodes = (
(380,329,l),
(410,444,o),
(366,535,o),
(242,535,cs),
(175,535,o),
(104,499,o),
(104,425,c),
(166,425,l),
(166,449,o),
(194,473,o),
(242,473,cs),
(333,473,o),
(333,406,o),
(324,374,c),
(340,329,l)
);
},
{
closed = 1;
nodes = (
(538,465,o),
(558,474,o),
(569,478,c),
(548,527,l),
(540,524,o),
(524,520,o),
(512,520,cs),
(478,520,o),
(453,536,o),
(453,577,cs),
(453,604,o),
(463,628,o),
(482,644,c),
(436,672,l),
(415,655,l),
(408,642,o),
(395,615,o),
(395,577,cs),
(395,498,o),
(454,465,o),
(510,465,cs)
);
},
{
closed = 1;
nodes = (
(412,572,l),
(430,600,l),
(412,630,l),
(318,630,ls),
(277,630,o),
(253,645,o),
(253,674,cs),
(253,718,o),
(306,734,o),
(407,734,cs),
(543,734,o),
(587,706,o),
(587,672,c),
(598,670,o),
(614,656,o),
(614,640,c),
(624,620,o),
(645,620,o),
(645,620,c),
(673,717,o),
(609,800,o),
(407,800,cs),
(261,800,o),
(185,764,o),
(185,674,cs),
(185,594,o),
(258,572,o),
(318,572,cs)
);
},
{
closed = 1;
nodes = (
(556,612,o),
(544,624,o),
(544,637,cs),
(544,650,o),
(556,662,o),
(569,662,cs),
(582,662,o),
(594,650,o),
(594,637,cs),
(594,624,o),
(582,612,o),
(569,612,cs)
);
},
{
closed = 1;
nodes = (
(612,565,o),
(647,599,o),
(647,638,cs),
(647,664,o),
(622,695,o),
(581,695,c),
(542,717,o),
(499,678,o),
(499,638,cs),
(499,599,o),
(531,565,o),
(569,565,cs)
);
}
);
userData = {
com.fontlab.hintData = {
hhints = (
{
position = 0;
width = 68;
},
{
position = 329;
width = 60;
},
{
position = 329;
width = 39;
},
{
position = 471;
width = 60;
}
);
vhints = (
{
position = 64;
width = 66;
},
{
position = 104;
width = 62;
},
{
position = 305;
width = 74;
},
{
position = 588;
width = 68;
}
);
};
};
width = 780;
}
);
}
{
glyphname = sinDdhU;
layers = (
{
layerId = m001;
shapes = (
{
closed = 1;
nodes = (
(301,0,o),
(332,61,o),
(343,98,c),
(354,61,o),
(386,0,o),
(473,0,cs),
(635,0,o),
(656,174,o),
(656,301,cs),
(656,605,o),
(495,737,o),
(293,737,c),
(293,679,l),
(317,679,o),
(340,676,o),
(362,670,c),
(435,659,o),
(509,608,o),
(541,530,c),
(571,473,o),
(588,397,o),
(588,301,cs),
(588,198,o),
(572,68,o),
(473,68,cs),
(405,68,o),
(379,132,o),
(379,224,c),
(305,224,l),
(305,132,o),
(279,68,o),
(220,68,cs),
(154,68,o),
(130,135,o),
(130,178,cs),
(130,281,o),
(178,329,o),
(243,329,cs),
(333,329,l),
(333,368,l),
(228,368,ls),
(131,368,o),
(64,292,o),
(64,178,cs),
(64,109,o),
(106,0,o),
(220,0,cs)
);
},
{
closed = 1;
nodes = (
(566,-200,l),
(566,-136,l),
(202,-136,ls),
(163,-136,o),
(154,-112,o),
(154,-86,c),
(86,-86,l),
(86,-144,o),
(118,-200,o),
(199,-200,cs)
);
},
{
closed = 1;
nodes = (
(621,-200,l),
(621,129,l),
(570,93,l),
(557,25,l),
(557,-200,l)
);
},
{
closed = 1;
nodes = (
(380,329,l),
(380,389,l),
(40,389,l),
(40,329,l)
);
},
{
closed = 1;
nodes = (
(380,329,l),
(410,444,o),
(366,535,o),
(242,535,cs),
(175,535,o),
(104,499,o),
(104,425,c),
(166,425,l),
(166,449,o),
(194,473,o),
(242,473,cs),
(333,473,o),
(333,406,o),
(324,374,c),
(340,329,l)
);
},
{
closed = 1;
nodes = (
(531,471,o),
(555,476,o),
(569,478,c),
(546,535,l),
(536,533,o),
(513,531,o),
(497,531,cs),
(436,531,o),
(400,557,o),
(390,621,cs),
(388,637,o),
(381,661,o),
(364,674,c),
(328,715,l),
(293,679,l),
(311,677,o),
(326,658,o),
(335,596,cs),
(348,508,o),
(418,471,o),
(497,471,cs)
);
}
);
userData = {
com.fontlab.hintData = {
hhints = (
{
position = -200;
width = 64;
},
{
position = 0;
width = 68;
},
{
position = 329;
width = 39;
},
{
position = 329;
width = 60;
},
{
position = 471;
width = 60;
}
);
vhints = (
{
position = 64;
width = 66;
},
{
position = 104;
width = 62;
},
{
position = 305;
width = 74;
},
{
position = 558;
width = 64;
},
{
position = 558;
width = 9;
},
{
position = 588;
width = 68;
}
);
};
};
width = 696;
}
);
}
{
glyphname = sinDh;
layers = (
{
layerId = m001;
shapes = (
{
closed = 1;
nodes = (
(288,0,o),
(319,61,o),
(330,98,c),
(341,61,o),
(373,0,o),
(460,0,cs),
(622,0,o),
(643,174,o),
(643,301,cs),
(643,550,o),
(492,658,o),
(303,658,cs),
(207,658,o),
(133,632,o),
(94,606,c),
(128,550,l),
(158,568,o),
(201,590,o),
(303,590,cs),
(452,590,o),
(575,509,o),
(575,301,cs),
(575,198,o),
(559,68,o),
(460,68,cs),
(392,68,o),
(366,132,o),
(366,224,c),
(292,224,l),
(292,132,o),
(266,68,o),
(207,68,cs),
(133,68,o),
(108,138,o),
(108,210,cs),
(108,292,o),
(158,367,o),
(224,367,cs),
(261,367,o),
(279,355,o),
(289,348,c),
(325,403,l),
(308,417,o),
(278,435,o),
(224,435,cs),
(117,435,o),
(40,340,o),
(40,210,cs),
(40,118,o),
(85,0,o),
(207,0,cs)
);
},
{
closed = 1;
nodes = (
(548,585,o),
(606,617,o),
(606,673,cs),
(606,740,o),
(558,800,o),
(348,800,cs),
(144,800,o),
(85,755,o),
(85,698,cs),
(85,674,o),
(108,642,o),
(152,623,c),
(198,642,l),
(175,660,o),
(157,672,o),
(157,690,cs),
(157,708,o),
(175,732,o),
(348,732,cs),
(501,732,o),
(538,712,o),
(538,673,cs),
(538,644,o),
(512,627,o),
(457,610,c),
(504,573,l)
);
}
);
userData = {
com.fontlab.hintData = {
hhints = (
{
position = 0;
width = 68;
},
{
position = 367;
width = 68;
},
{
position = 573;
width = 21;
},
{
position = 590;
width = 68;
},
{
position = 732;
width = 68;
}
);
vhints = (
{
position = 40;
width = 68;
},
{
position = 85;
width = 72;
},
{
position = 292;
width = 74;
},
{
position = 538;
width = 68;
},
{
position = 575;
width = 68;
}
);
};
};
width = 683;
}
);
}
{
glyphname = sinDhI;
layers = (
{
layerId = m001;
shapes = (
{
closed = 1;
nodes = (
(288,0,o),
(319,61,o),
(330,98,c),
(341,61,o),
(373,0,o),
(460,0,cs),
(622,0,o),
(643,174,o),
(643,301,cs),
(643,540,o),
(499,644,o),
(318,644,c),
(318,576,l),
(458,576,o),
(575,499,o),
(575,301,cs),
(575,198,o),
(559,68,o),
(460,68,cs),
(392,68,o),
(366,132,o),
(366,224,c),
(292,224,l),
(292,132,o),
(266,68,o),
(207,68,cs),
(133,68,o),
(108,138,o),
(108,210,cs),
(108,292,o),
(158,367,o),
(224,367,cs),
(261,367,o),
(279,355,o),
(289,348,c),
(325,403,l),
(308,417,o),
(278,435,o),
(224,435,cs),
(117,435,o),
(40,340,o),
(40,210,cs),
(40,118,o),
(85,0,o),
(207,0,cs)
);
},
{
closed = 1;
nodes = (
(244,572,o),
(250,576,o),
(318,576,c),
(336,614,l),
(318,644,l),
(269,644,o),
(239,640,o),
(192,640,cs),
(148,640,o),
(130,651,o),
(130,674,cs),
(130,718,o),
(197,734,o),
(327,734,cs),
(487,734,o),
(539,706,o),
(539,672,cs),
(539,659,o),
(537,649,o),
(533,640,c),
(601,640,l),
(604,649,o),
(607,659,o),
(607,672,cs),
(607,744,o),
(547,800,o),
(327,800,cs),
(153,800,o),
(62,764,o),
(62,674,cs),
(62,594,o),
(130,572,o),
(192,572,cs)
);
}
);
userData = {
com.fontlab.hintData = {
hhints = (
{
position = 0;
width = 68;
},
{
position = 367;
width = 68;
},
{
position = 669;
width = 68;
}
);
vhints = (
{
position = 40;
width = 68;
},
{
position = 66;
width = 68;
},
{
position = 292;
width = 74;
},
{
position = 575;
width = 68;
}
);
};
};
width = 683;
}
);
}
{
glyphname = sinDhIi;
layers = (
{
layerId = m001;
shapes = (
{
closed = 1;
nodes = (
(288,0,o),
(319,61,o),
(330,98,c),
(341,61,o),
(373,0,o),
(460,0,cs),
(622,0,o),
(643,174,o),
(643,301,cs),
(643,540,o),
(499,644,o),
(318,644,c),
(318,576,l),
(458,576,o),
(575,499,o),
(575,301,cs),
(575,198,o),
(559,68,o),
(460,68,cs),
(392,68,o),
(366,132,o),
(366,224,c),
(292,224,l),
(292,132,o),
(266,68,o),
(207,68,cs),
(133,68,o),
(108,138,o),
(108,210,cs),
(108,292,o),
(158,367,o),
(224,367,cs),
(261,367,o),
(279,355,o),
(289,348,c),
(325,403,l),
(308,417,o),
(278,435,o),
(224,435,cs),
(117,435,o),
(40,340,o),
(40,210,cs),
(40,118,o),
(85,0,o),
(207,0,cs)
);
},
{
closed = 1;
nodes = (
(244,572,o),
(250,576,o),
(318,576,c),
(336,614,l),
(318,644,l),
(269,644,o),
(239,640,o),
(192,640,cs),
(148,640,o),
(130,651,o),
(130,674,cs),
(130,718,o),
(197,734,o),
(327,734,cs),
(398,734,o),
(448,732,o),
(482,723,c),
(552,734,o),
(556,712,o),
(556,693,cs),
(556,680,o),
(566,674,o),
(539,642,c),
(579,642,l),
(582,651,o),
(602,678,o),
(602,692,cs),
(602,752,o),
(547,800,o),
(327,800,cs),
(153,800,o),
(62,764,o),
(62,674,cs),
(62,594,o),
(130,572,o),
(192,572,cs)
);
},
{
closed = 1;
nodes = (
(567,612,o),
(602,649,o),
(602,692,cs),
(602,720,o),
(576,753,o),
(533,753,c),
(491,767,o),
(445,735,o),
(445,692,cs),
(445,649,o),
(481,612,o),
(524,612,cs)
);
},
{
closed = 1;
nodes = (
(510,666,o),
(498,678,o),
(498,691,cs),
(498,704,o),
(510,716,o),
(523,716,cs),
(536,716,o),
(548,704,o),
(548,691,cs),
(548,678,o),
(536,666,o),
(523,666,cs)
);
}
);
userData = {
com.fontlab.hintData = {
hhints = (
{
position = 0;
width = 68;
},
{
position = 367;
width = 68;
},
{
position = 669;
width = 68;
}
);
vhints = (
{
position = 40;
width = 68;
},
{
position = 66;
width = 68;
},
{
position = 292;
width = 74;
},
{
position = 575;
width = 68;
}
);
};
};
width = 683;
}
);
}
{
glyphname = sinDhUu;
layers = (
{
layerId = m001;
shapes = (
{
closed = 1;
nodes = (
(288,0,o),
(319,61,o),
(330,98,c),
(341,61,o),
(373,0,o),
(460,0,cs),
(622,0,o),
(643,174,o),
(643,301,cs),
(643,605,o),
(499,737,o),
(318,737,cs),
(164,737,o),
(66,653,o),
(66,585,c),
(134,585,l),
(134,615,o),
(190,669,o),
(318,669,cs),
(458,669,o),
(575,566,o),
(575,301,cs),
(575,198,o),
(559,68,o),
(460,68,cs),
(392,68,o),
(366,132,o),
(366,224,c),
(292,224,l),
(292,132,o),
(266,68,o),
(207,68,cs),
(133,68,o),
(108,138,o),
(108,210,cs),
(108,292,o),
(158,367,o),
(224,367,cs),
(261,367,o),
(279,355,o),
(289,348,c),
(325,403,l),
(308,417,o),
(278,435,o),
(224,435,cs),
(117,435,o),
(40,340,o),
(40,210,cs),
(40,118,o),
(85,0,o),
(207,0,cs)
);
},
{
closed = 1;
nodes = (
(254,-200,o),
(320,-127,o),
(400,-127,cs),
(420,-127,o),
(476,-127,o),
(532,-200,c),
(556,-151,l),
(517,-100,o),
(465,-63,o),
(400,-63,cs),
(312,-63,o),
(257,-135,o),
(184,-135,cs),
(135,-135,o),
(138,-114,o),
(144,-69,c),
(82,-69,l),
(71,-108,o),
(57,-200,o),
(176,-200,cs)
);
},
{
closed = 1;
nodes = (
(596,-200,l),
(596,129,l),
(545,93,l),
(532,25,l),
(532,-200,l)
);
}
);
userData = {
com.fontlab.hintData = {
hhints = (
{
position = 0;
width = 68;
},
{
position = 367;
width = 68;
},
{
position = 669;
width = 68;
}
);
vhints = (
{
position = 40;
width = 68;
},
{
position = 66;
width = 68;
},
{
position = 292;
width = 74;
},
{
position = 575;
width = 68;
}
);
};
};
width = 683;
}
);
}
{
glyphname = sinF;
layers = (
{
layerId = m001;
shapes = (
{
closed = 1;
nodes = (
(489,500,l),
(489,737,l),
(422,737,l),
(422,500,l)
);
},
{
ref = sinFa;
}
);
userData = {
com.fontlab.hintData = {
hhints = (
{
position = 1;
width = 66;
},
{
position = 468;
width = 67;
}
);
vhints = (
{
position = 40;
width = 66;
},
{
position = 294;
width = 75;
},
{
position = 422;
width = 67;
},
{
position = 557;
width = 66;
}
);
};
};
width = 662;
}
);
}
{
glyphname = sinFU;
layers = (
{
layerId = m001;
shapes = (
{
closed = 1;
nodes = (
(230,1,o),
(238,1,o),
(247,2,c),
(247,68,l),
(240,67,o),
(234,67,o),
(228,67,cs),
(135,67,o),
(106,135,o),
(106,281,cs),
(106,401,o),
(125,468,o),
(197,468,cs),
(285,468,o),
(290,375,o),
(294,311,c),
(369,311,l),
(372,375,o),
(378,468,o),
(466,468,cs),
(538,468,o),
(557,401,o),
(557,281,cs),
(557,135,o),
(527,67,o),
(435,67,cs),
(429,67,o),
(422,67,o),
(416,68,c),
(416,2,l),
(425,1,o),
(433,1,o),
(441,1,cs),
(572,1,o),
(623,104,o),
(623,281,cs),
(623,417,o),
(591,535,o),
(466,535,cs),
(357,535,o),
(336,449,o),
(331,418,c),
(327,449,o),
(306,535,o),
(197,535,cs),
(72,535,o),
(40,417,o),
(40,281,cs),
(40,104,o),
(91,1,o),
(222,1,cs)
);
},
{
closed = 1;
nodes = (
(533,-200,l),
(533,-136,l),
(189,-136,ls),
(150,-136,o),
(141,-112,o),
(141,-86,c),
(73,-86,l),
(73,-144,o),
(105,-200,o),
(186,-200,cs)
);
},
{
closed = 1;
nodes = (
(588,-200,l),
(588,129,l),
(537,93,l),
(524,25,l),
(524,-200,l)
);
}
);
userData = {
com.fontlab.hintData = {
hhints = (
{
position = -200;
width = 64;
}
);
vhints = (
{
position = -118;
width = 9;
},
{
position = -105;
width = 51;
}
);
};
};
width = 662;
}
);
}
{
glyphname = sinGU;
layers = (
{
layerId = m001;
shapes = (
{
closed = 1;
nodes = (
(683,34,o),
(727,140,o),
(727,257,cs),
(727,415,o),
(633,535,o),
(497,535,cs),
(365,535,o),
(265,442,o),
(265,245,c),
(333,245,l),
(333,392,o),
(395,467,o),
(497,467,cs),
(594,467,o),
(659,376,o),
(659,257,cs),
(659,163,o),
(634,92,o),
(580,69,c),
(580,0,l)
);
},
{
closed = 1;
nodes = (
(705,-200,o),
(729,-125,o),
(729,-54,c),
(665,-54,l),
(665,-80,o),
(663,-136,o),
(603,-136,cs),
(552,-136,o),
(539,-105,o),
(539,-70,cs),
(539,-37,o),
(554,-10,o),
(580,0,c),
(596,41,l),
(580,69,l),
(507,37,o),
(476,0,o),
(476,-70,cs),
(476,-180,o),
(549,-200,o),
(603,-200,cs)
);
},
{
closed = 1;
nodes = (
(421,0,o),
(472,93,o),
(472,182,cs),
(472,303,o),
(374,348,o),
(311,313,c),
(331,255,l),
(363,273,o),
(404,236,o),
(404,182,cs),
(404,130,o),
(378,68,o),
(269,68,cs),
(172,68,o),
(108,154,o),
(108,273,cs),
(108,396,o),
(178,489,o),
(298,462,c),
(298,530,l),
(125,564,o),
(40,417,o),
(40,273,cs),
(40,114,o),
(133,0,o),
(269,0,cs)
);
}
);
userData = {
com.fontlab.hintData = {
hhints = (
{
position = -200;
width = 64;
},
{
position = 0;
width = 68;
},
{
position = 467;
width = 68;
}
);
vhints = (
{
position = 40;
width = 68;
},
{
position = 265;
width = 68;
},
{
position = 404;
width = 68;
},
{
position = 476;
width = 63;
},
{
position = 659;
width = 68;
}
);
};
};
width = 768;
}
);
}
{
glyphname = sinGUu;
layers = (
{
layerId = m001;
shapes = (
{
closed = 1;
nodes = (
(421,0,o),
(472,93,o),
(472,182,cs),
(472,303,o),
(374,348,o),
(311,313,c),
(331,255,l),
(363,273,o),
(404,236,o),
(404,182,cs),
(404,130,o),
(378,68,o),
(269,68,cs),
(172,68,o),
(108,154,o),
(108,273,cs),
(108,396,o),
(178,489,o),
(298,462,c),
(298,530,l),
(125,564,o),
(40,417,o),
(40,273,cs),
(40,114,o),
(133,0,o),
(269,0,cs)
);
},
{
closed = 1;
nodes = (
(707,-200,o),
(727,-133,o),
(727,-69,c),
(671,-69,l),
(671,-94,o),
(670,-146,o),
(619,-146,cs),
(588,-146,o),
(574,-123,o),
(574,-97,cs),
(574,-62,o),
(617,-22,o),
(684,-22,c),
(684,8,l),
(588,8,o),
(521,-33,o),
(521,-108,cs),
(521,-180,o),
(585,-200,o),
(619,-200,cs)
);
},
{
closed = 1;
nodes = (
(691,-22,l),
(691,24,l),
(524,24,l),
(524,-22,l)
);
},
{
closed = 1;
nodes = (
(593,24,l),
(673,67,l),
(703,67,l),
(703,111,l),
(530,111,l),
(530,65,l),
(599,65,l),
(524,24,l)
);
},
{
closed = 1;
nodes = (
(667,69,o),
(727,192,o),
(727,295,cs),
(727,432,o),
(633,535,o),
(497,535,cs),
(365,535,o),
(265,442,o),
(265,245,c),
(333,245,l),
(333,392,o),
(395,467,o),
(497,467,cs),
(594,467,o),
(659,392,o),
(659,295,cs),
(659,203,o),
(618,111,o),
(530,111,c),
(530,69,l)
);
}
);
userData = {
com.fontlab.hintData = {
hhints = (
{
position = -200;
width = 64;
},
{
position = 0;
width = 68;
},
{
position = 467;
width = 68;
}
);
vhints = (
{
position = 40;
width = 68;
},
{
position = 265;
width = 68;
},
{
position = 404;
width = 68;
},
{
position = 476;
width = 63;
},
{
position = 659;
width = 68;
}
);
};
};
width = 768;
}
);
}
{
glyphname = sinGa.reph;
layers = (
{
layerId = m001;
shapes = (
{
closed = 1;
nodes = (
(643,-29,o),
(727,118,o),
(727,262,cs),
(727,421,o),
(633,535,o),
(497,535,cs),
(365,535,o),
(265,442,o),
(265,245,c),
(333,245,l),
(333,392,o),
(395,467,o),
(497,467,cs),
(594,467,o),
(659,381,o),
(659,262,cs),
(659,139,o),
(589,46,o),
(469,73,c),
(469,5,l)
);
},
{
closed = 1;
nodes = (
(421,0,o),
(472,93,o),
(472,182,cs),
(472,303,o),
(374,348,o),
(311,313,c),
(331,255,l),
(363,273,o),
(404,236,o),
(404,182,cs),
(404,130,o),
(378,68,o),
(269,68,cs),
(172,68,o),
(108,154,o),
(108,273,cs),
(108,396,o),
(178,489,o),
(298,462,c),
(298,530,l),
(125,564,o),
(40,417,o),
(40,273,cs),
(40,114,o),
(133,0,o),
(269,0,cs)
);
},
{
closed = 1;
nodes = (
(430,478,o),
(501,520,o),
(501,619,cs),
(501,744,o),
(400,800,o),
(296,800,cs),
(168,800,o),
(90,716,o),
(90,622,cs),
(90,571,o),
(109,511,o),
(173,484,c),
(239,507,l),
(187,534,o),
(147,550,o),
(147,622,cs),
(147,691,o),
(212,738,o),
(294,738,cs),
(321,738,o),
(434,736,o),
(434,620,cs),
(434,590,o),
(424,546,o),
(375,520,c),
(408,467,l)
);
},
{
closed = 1;
nodes = (
(287,475,o),
(337,536,o),
(337,596,cs),
(337,660,o),
(285,707,o),
(222,707,cs),
(201,707,o),
(181,702,o),
(163,693,cs),
(141,681,o),
(101,653,o),
(101,596,cs),
(101,533,o),
(148,475,o),
(215,475,cs)
);
},
{
closed = 1;
nodes = (
(183,535,o),
(154,560,o),
(154,596,cs),
(154,632,o),
(183,658,o),
(215,658,cs),
(250,658,o),
(277,631,o),
(277,596,cs),
(277,562,o),
(250,535,o),
(215,535,cs)
);
}
);
userData = {
com.fontlab.hintData = {
hhints = (
{
position = 0;
width = 68;
},
{
position = 467;
width = 68;
}
);
vhints = (
{
position = 40;
width = 68;
},
{
position = 265;
width = 68;
},
{
position = 404;
width = 68;
},
{
position = 659;
width = 68;
}
);
};
};
width = 766;
}
);
}
{
glyphname = sinGh;
layers = (
{
layerId = m001;
shapes = (
{
closed = 1;
nodes = (
(489,500,l),
(489,737,l),
(422,737,l),
(422,500,l)
);
},
{
ref = sinGha;
}
);
userData = {
com.fontlab.hintData = {
hhints = (
{
position = 0;
width = 67;
},
{
position = 165;
width = 60;
},
{
position = 323;
width = 66;
},
{
position = 473;
width = 62;
}
);
vhints = (
{
position = 52;
width = 68;
},
{
position = 97;
width = 62;
},
{
position = 231;
width = 63;
},
{
position = 247;
width = 61;
},
{
position = 378;
width = 61;
},
{
position = 392;
width = 63;
},
{
position = 422;
width = 67;
},
{
position = 527;
width = 62;
},
{
position = 566;
width = 68;
}
);
};
};
width = 673;
}
);
}
{
glyphname = sinGha.reph;
layers = (
{
layerId = m001;
shapes = (
{
closed = 1;
nodes = (
(280,0,o),
(308,36,o),
(308,82,cs),
(308,116,o),
(294,119,o),
(294,139,cs),
(294,154,o),
(302,165,o),
(343,165,cs),
(384,165,o),
(392,154,o),
(392,139,cs),
(392,119,o),
(378,116,o),
(378,82,cs),
(378,36,o),
(406,0,o),
(477,0,cs),
(604,0,o),
(634,131,o),
(634,200,cs),
(634,331,o),
(566,389,o),
(487,389,cs),
(40,389,l),
(40,329,l),
(109,329,l),
(73,301,o),
(52,249,o),
(52,178,cs),
(52,109,o),
(82,0,o),
(209,0,cs)
);
},
{
closed = 1;
nodes = (
(137,67,o),
(120,134,o),
(120,178,cs),
(120,246,o),
(155,323,o),
(218,323,cs),
(485,323,ls),
(541,323,o),
(566,259,o),
(566,200,cs),
(566,156,o),
(549,67,o),
(477,67,cs),
(452,67,o),
(439,77,o),
(439,92,cs),
(439,111,o),
(455,127,o),
(455,162,cs),
(455,219,o),
(387,225,o),
(343,225,cs),
(299,225,o),
(231,219,o),
(231,162,cs),
(231,127,o),
(247,111,o),
(247,92,cs),
(247,77,o),
(234,67,o),
(209,67,cs)
);
},
{
closed = 1;
nodes = (
(368,323,l),
(385,430,o),
(352,535,o),
(232,535,cs),
(166,535,o),
(97,499,o),
(97,425,c),
(159,425,l),
(159,449,o),
(188,473,o),
(235,473,cs),
(318,473,o),
(319,397,o),
(308,373,c),
(328,323,l)
);
},
{
closed = 1;
nodes = (
(334,477,o),
(384,538,o),
(384,598,cs),
(384,662,o),
(332,709,o),
(269,709,cs),
(248,709,o),
(228,704,o),
(210,695,cs),
(188,683,o),
(148,655,o),
(148,598,cs),
(148,535,o),
(195,477,o),
(262,477,cs)
);
},
{
closed = 1;
nodes = (
(230,537,o),
(201,562,o),
(201,598,cs),
(201,634,o),
(230,660,o),
(262,660,cs),
(297,660,o),
(324,633,o),
(324,598,cs),
(324,564,o),
(297,537,o),
(262,537,cs)
);
},
{
closed = 1;
nodes = (
(358,323,l),
(377,373,l),
(366,397,o),
(368,473,o),
(451,473,cs),
(498,473,o),
(527,449,o),
(527,425,c),
(589,425,l),
(589,499,o),
(520,535,o),
(454,535,cs),
(333,535,o),
(301,430,o),
(317,323,c)
);
},
{
closed = 1;
nodes = (
(477,480,o),
(548,522,o),
(548,621,cs),
(548,746,o),
(447,802,o),
(343,802,cs),
(215,802,o),
(137,718,o),
(137,624,cs),
(137,573,o),
(156,513,o),
(220,486,c),
(286,509,l),
(234,536,o),
(194,552,o),
(194,624,cs),
(194,693,o),
(259,740,o),
(341,740,cs),
(368,740,o),
(481,738,o),
(481,622,cs),
(481,592,o),
(471,548,o),
(422,522,c),
(455,469,l)
);
}
);
userData = {
com.fontlab.hintData = {
hhints = (
{
position = 0;
width = 67;
},
{
position = 165;
width = 60;
},
{
position = 323;
width = 66;
},
{
position = 473;
width = 62;
}
);
vhints = (
{
position = 52;
width = 68;
},
{
position = 97;
width = 62;
},
{
position = 231;
width = 63;
},
{
position = 247;
width = 61;
},
{
position = 378;
width = 61;
},
{
position = 392;
width = 63;
},
{
position = 527;
width = 62;
},
{
position = 566;
width = 68;
}
);
};
};
width = 673;
}
);
}
{
glyphname = sinHU;
layers = (
{
layerId = m001;
shapes = (
{
closed = 1;
nodes = (
(621,-200,l),
(621,-136,l),
(86,-136,l),
(86,-200,l)
);
},
{
closed = 1;
nodes = (
(676,-200,l),
(676,129,l),
(625,93,l),
(612,25,l),
(612,-200,l)
);
},
{
ref = sinHa;
}
);
userData = {
com.fontlab.hintData = {
hhints = (
{
position = -200;
width = 64;
},
{
position = 0;
width = 68;
},
{
position = 323;
width = 66;
},
{
position = 473;
width = 62;
}
);
vhints = (
{
position = 40;
width = 66;
},
{
position = 76;
width = 62;
},
{
position = 270;
width = 62;
},
{
position = 414;
width = 68;
},
{
position = 612;
width = 9;
},
{
position = 625;
width = 51;
},
{
position = 669;
width = 68;
}
);
};
};
width = 777;
}
);
}
{
glyphname = sinHa.reph;
layers = (
{
layerId = m001;
shapes = (
{
closed = 1;
nodes = (
(653,-29,o),
(737,118,o),
(737,262,cs),
(737,421,o),
(643,535,o),
(507,535,cs),
(372,535,o),
(270,442,o),
(270,245,c),
(338,245,l),
(338,392,o),
(402,467,o),
(507,467,cs),
(604,467,o),
(669,381,o),
(669,262,cs),
(669,139,o),
(599,46,o),
(479,73,c),
(479,5,l)
);
},
{
closed = 1;
nodes = (
(424,0,o),
(482,93,o),
(482,182,cs),
(482,303,o),
(381,348,o),
(315,313,c),
(335,264,l),
(369,285,o),
(414,243,o),
(414,182,cs),
(414,130,o),
(380,68,o),
(271,68,cs),
(175,68,o),
(106,106,o),
(106,209,cs),
(106,268,o),
(142,323,o),
(196,323,cs),
(332,323,l),
(332,389,l),
(194,389,ls),
(89,389,o),
(40,289,o),
(40,209,cs),
(40,82,o),
(135,0,o),
(271,0,cs)
);
},
{
closed = 1;
nodes = (
(347,323,l),
(364,430,o),
(331,535,o),
(211,535,cs),
(145,535,o),
(76,499,o),
(76,425,c),
(138,425,l),
(138,449,o),
(167,473,o),
(214,473,cs),
(297,473,o),
(298,397,o),
(287,373,c),
(307,323,l)
);
}
);
userData = {
com.fontlab.hintData = {
hhints = (
{
position = 0;
width = 68;
},
{
position = 323;
width = 66;
},
{
position = 473;
width = 62;
}
);
vhints = (
{
position = 40;
width = 66;
},
{
position = 76;
width = 62;
},
{
position = 270;
width = 62;
},
{
position = 414;
width = 68;
},
{
position = 669;
width = 68;
}
);
};
};
width = 777;
}
);
}
{
glyphname = sinJIi;
layers = (
{
layerId = m001;
shapes = (
{
closed = 1;
nodes = (
(517,0,o),
(594,118,o),
(594,215,cs),
(594,328,o),
(516,389,o),
(420,389,cs),
(214,389,ls),
(118,389,o),
(40,328,o),
(40,215,cs),
(40,118,o),
(117,0,o),
(317,0,cs)
);
},
{
closed = 1;
nodes = (
(150,66,o),
(106,148,o),
(106,215,cs),
(106,293,o),
(154,323,o),
(214,323,cs),
(420,323,ls),
(480,323,o),
(528,293,o),
(528,215,cs),
(528,148,o),
(484,66,o),
(317,66,cs)
);
},
{
closed = 1;
nodes = (
(342,323,l),
(359,430,o),
(326,535,o),
(206,535,cs),
(140,535,o),
(71,499,o),
(71,425,c),
(133,425,l),
(133,449,o),
(162,473,o),
(209,473,cs),
(292,473,o),
(293,397,o),
(282,373,c),
(302,323,l)
);
},
{
closed = 1;
nodes = (
(332,323,l),
(352,373,l),
(341,397,o),
(342,473,o),
(425,473,cs),
(472,473,o),
(501,449,o),
(501,425,c),
(563,425,l),
(563,499,o),
(494,535,o),
(428,535,cs),
(308,535,o),
(275,430,o),
(292,323,c)
);
},
{
closed = 1;
nodes = (
(140,628,l),
(125,701,o),
(201,734,o),
(291,734,cs),
(360,734,o),
(425,722,o),
(453,691,c),
(482,680,o),
(486,655,o),
(486,628,c),
(526,628,l),
(526,640,o),
(524,651,o),
(524,662,cs),
(524,755,o),
(413,800,o),
(291,800,cs),
(169,800,o),
(57,744,o),
(74,628,c)
);
},
{
closed = 1;
nodes = (
(441,625,o),
(429,637,o),
(429,650,cs),
(429,663,o),
(441,675,o),
(454,675,cs),
(467,675,o),
(478,663,o),
(478,650,cs),
(478,637,o),
(467,625,o),
(454,625,cs)
);
},
{
closed = 1;
nodes = (
(494,580,o),
(526,613,o),
(526,651,cs),
(526,694,o),
(502,712,o),
(463,712,c),
(411,728,o),
(375,694,o),
(375,651,cs),
(375,613,o),
(411,580,o),
(454,580,cs)
);
},
{
closed = 1;
nodes = (
(467,516,l),
(467,554,o),
(499,579,o),
(537,618,cs),
(590,673,o),
(592,682,o),
(592,737,c),
(532,737,l),
(532,695,o),
(531,686,o),
(483,639,cs),
(405,563,o),
(401,559,o),
(401,516,c)
);
}
);
userData = {
com.fontlab.hintData = {
hhints = (
{
position = 0;
width = 66;
},
{
position = 323;
width = 66;
},
{
position = 473;
width = 62;
},
{
position = 516;
width = 19;
},
{
position = 580;
width = 95;
},
{
position = 734;
width = 66;
}
);
vhints = (
{
position = 40;
width = 66;
},
{
position = 71;
width = 62;
},
{
position = 74;
width = 66;
},
{
position = 375;
width = 54;
},
{
position = 401;
width = 66;
},
{
position = 478;
width = 114;
},
{
position = 486;
width = 40;
},
{
position = 501;
width = 62;
},
{
position = 528;
width = 66;
}
);
};
};
width = 634;
}
);
}
{
glyphname = sinJa.reph;
layers = (
{
layerId = m001;
shapes = (
{
closed = 1;
nodes = (
(517,0,o),
(594,118,o),
(594,215,cs),
(594,328,o),
(516,389,o),
(420,389,cs),
(214,389,ls),
(118,389,o),
(40,328,o),
(40,215,cs),
(40,118,o),
(117,0,o),
(317,0,cs)
);
},
{
closed = 1;
nodes = (
(150,66,o),
(106,148,o),
(106,215,cs),
(106,293,o),
(154,323,o),
(214,323,cs),
(420,323,ls),
(480,323,o),
(528,293,o),
(528,215,cs),
(528,148,o),
(484,66,o),
(317,66,cs)
);
},
{
closed = 1;
nodes = (
(342,323,l),
(359,430,o),
(326,535,o),
(206,535,cs),
(140,535,o),
(71,499,o),
(71,425,c),
(133,425,l),
(133,449,o),
(162,473,o),
(209,473,cs),
(292,473,o),
(293,397,o),
(282,373,c),
(302,323,l)
);
},
{
closed = 1;
nodes = (
(332,323,l),
(352,373,l),
(341,397,o),
(342,473,o),
(425,473,cs),
(472,473,o),
(501,449,o),
(501,425,c),
(563,425,l),
(563,499,o),
(494,535,o),
(428,535,cs),
(308,535,o),
(275,430,o),
(292,323,c)
);
},
{
closed = 1;
nodes = (
(422,478,o),
(492,520,o),
(492,619,cs),
(492,744,o),
(392,800,o),
(287,800,cs),
(160,800,o),
(81,716,o),
(81,622,cs),
(81,571,o),
(101,511,o),
(164,484,c),
(230,507,l),
(178,534,o),
(138,550,o),
(138,622,cs),
(138,691,o),
(204,738,o),
(285,738,cs),
(313,738,o),
(425,736,o),
(425,620,cs),
(425,590,o),
(415,546,o),
(367,520,c),
(399,467,l)
);
},
{
closed = 1;
nodes = (
(278,475,o),
(329,536,o),
(329,596,cs),
(329,660,o),
(276,707,o),
(214,707,cs),
(193,707,o),
(173,702,o),
(154,693,cs),
(132,681,o),
(93,653,o),
(93,596,cs),
(93,533,o),
(140,475,o),
(207,475,cs)
);
},
{
closed = 1;
nodes = (
(175,535,o),
(145,560,o),
(145,596,cs),
(145,632,o),
(175,658,o),
(207,658,cs),
(242,658,o),
(269,631,o),
(269,596,cs),
(269,562,o),
(242,535,o),
(207,535,cs)
);
},
{
closed = 1;
nodes = (
(467,516,l),
(467,554,o),
(499,579,o),
(537,618,cs),
(590,673,o),
(592,682,o),
(592,737,c),
(526,737,l),
(526,696,o),
(525,688,o),
(482,642,cs),
(407,563,o),
(401,560,o),
(401,516,c)
);
}
);
userData = {
com.fontlab.hintData = {
hhints = (
{
position = 0;
width = 66;
},
{
position = 323;
width = 66;
},
{
position = 473;
width = 62;
},
{
position = 516;
width = 19;
}
);
vhints = (
{
position = 40;
width = 66;
},
{
position = 71;
width = 62;
},
{
position = 401;
width = 66;
},
{
position = 501;
width = 62;
},
{
position = 528;
width = 66;
}
);
};
};
width = 634;
}
);
}
{
glyphname = sinJhIi;
layers = (
{
layerId = m001;
shapes = (
{
closed = 1;
nodes = (
(820,0,o),
(851,61,o),
(862,98,c),
(873,61,o),
(905,0,o),
(992,0,cs),
(1154,0,o),
(1175,174,o),
(1175,301,cs),
(1175,540,o),
(1031,644,o),
(850,644,c),
(850,576,l),
(991,576,o),
(1107,499,o),
(1107,301,cs),
(1107,198,o),
(1091,68,o),
(992,68,cs),
(924,68,o),
(898,132,o),
(898,224,c),
(824,224,l),
(824,132,o),
(798,68,o),
(739,68,cs),
(665,68,o),
(640,138,o),
(640,210,cs),
(640,292,o),
(690,367,o),
(756,367,cs),
(793,367,o),
(811,355,o),
(821,348,c),
(857,403,l),
(840,417,o),
(810,435,o),
(756,435,cs),
(649,435,o),
(572,340,o),
(572,210,cs),
(572,118,o),
(617,0,o),
(739,0,cs)
);
},
{
closed = 1;
nodes = (
(278,0,o),
(295,49,o),
(301,85,c),
(307,48,o),
(335,0,o),
(400,0,cs),
(507,0,o),
(533,85,o),
(533,183,cs),
(533,269,o),
(487,366,o),
(372,366,cs),
(314,366,o),
(261,330,o),
(261,330,c),
(211,260,l),
(257,307,o),
(301,313,o),
(341,313,cs),
(439,313,o),
(465,244,o),
(465,183,cs),
(465,124,o),
(454,66,o),
(400,66,cs),
(349,66,o),
(330,112,o),
(330,169,c),
(264,169,l),
(264,116,o),
(250,66,o),
(207,66,cs),
(174,66,o),
(167,92,o),
(167,118,cs),
(167,151,o),
(161,184,o),
(129,183,c),
(83,130,ls),
(86,134,o),
(89,136,o),
(95,136,cs),
(106,136,o),
(112,115,o),
(112,77,cs),
(112,44,o),
(135,0,o),
(207,0,cs)
);
},
{
closed = 1;
nodes = (
(178,226,o),
(271,325,o),
(325,373,cs),
(396,437,o),
(425,469,o),
(508,469,cs),
(579,469,o),
(618,429,o),
(640,381,c),
(712,381,l),
(685,466,o),
(624,535,o),
(508,535,cs),
(422,535,o),
(348,496,o),
(294,435,cs),
(235,369,o),
(188,317,o),
(40,172,c),
(83,130,l)
);
},
{
closed = 1;
nodes = (
(283,354,l),
(292,380,o),
(296,404,o),
(296,426,cs),
(296,491,o),
(259,535,o),
(188,535,cs),
(134,535,o),
(63,498,o),
(78,389,c),
(141,389,l),
(127,448,o),
(159,472,o),
(191,472,cs),
(224,472,o),
(246,442,o),
(246,409,cs),
(246,393,o),
(240,375,o),
(228,361,c),
(268,321,l)
);
},
{
closed = 1;
nodes = (
(776,572,o),
(783,576,o),
(850,576,c),
(868,614,l),
(850,644,l),
(801,644,o),
(772,640,o),
(724,640,cs),
(680,640,o),
(662,651,o),
(662,674,cs),
(662,718,o),
(729,734,o),
(859,734,cs),
(931,734,o),
(981,732,o),
(1014,723,c),
(1084,734,o),
(1088,712,o),
(1088,693,cs),
(1088,680,o),
(1098,674,o),
(1071,642,c),
(1111,642,l),
(1114,651,o),
(1134,678,o),
(1134,692,cs),
(1134,752,o),
(1079,800,o),
(859,800,cs),
(685,800,o),
(594,764,o),
(594,674,cs),
(594,594,o),
(662,572,o),
(724,572,cs)
);
},
{
closed = 1;
nodes = (
(1099,612,o),
(1134,649,o),
(1134,692,cs),
(1134,720,o),
(1108,753,o),
(1065,753,c),
(1023,767,o),
(977,735,o),
(977,692,cs),
(977,649,o),
(1013,612,o),
(1056,612,cs)
);
},
{
closed = 1;
nodes = (
(1043,666,o),
(1030,678,o),
(1030,691,cs),
(1030,704,o),
(1043,716,o),
(1055,716,cs),
(1068,716,o),
(1080,704,o),
(1080,691,cs),
(1080,678,o),
(1068,666,o),
(1055,666,cs)
);
}
);
userData = {
com.fontlab.hintData = {
hhints = (
{
position = 0;
width = 66;
},
{
position = 313;
width = 53;
},
{
position = 367;
width = 68;
},
{
position = 469;
width = 66;
},
{
position = 669;
width = 68;
}
);
vhints = (
{
position = 78;
width = 63;
},
{
position = 112;
width = 55;
},
{
position = 264;
width = 66;
},
{
position = 465;
width = 68;
},
{
position = 572;
width = 68;
},
{
position = 598;
width = 68;
},
{
position = 824;
width = 74;
},
{
position = 1107;
width = 68;
}
);
};
};
width = 1215;
}
);
}
{
glyphname = sinJha.reph;
layers = (
{
layerId = m001;
shapes = (
{
closed = 1;
nodes = (
(820,0,o),
(851,61,o),
(862,98,c),
(873,61,o),
(905,0,o),
(992,0,cs),
(1154,0,o),
(1175,174,o),
(1175,301,cs),
(1175,605,o),
(1031,737,o),
(850,737,cs),
(696,737,o),
(598,653,o),
(598,585,c),
(666,585,l),
(666,615,o),
(723,669,o),
(850,669,cs),
(991,669,o),
(1107,566,o),
(1107,301,cs),
(1107,198,o),
(1091,68,o),
(992,68,cs),
(924,68,o),
(898,132,o),
(898,224,c),
(824,224,l),
(824,132,o),
(798,68,o),
(739,68,cs),
(665,68,o),
(640,138,o),
(640,210,cs),
(640,292,o),
(690,367,o),
(756,367,cs),
(793,367,o),
(811,355,o),
(821,348,c),
(857,403,l),
(840,417,o),
(810,435,o),
(756,435,cs),
(649,435,o),
(572,340,o),
(572,210,cs),
(572,118,o),
(617,0,o),
(739,0,cs)
);
},
{
closed = 1;
nodes = (
(278,0,o),
(295,49,o),
(301,85,c),
(307,48,o),
(335,0,o),
(400,0,cs),
(507,0,o),
(533,85,o),
(533,183,cs),
(533,269,o),
(487,366,o),
(372,366,cs),
(314,366,o),
(261,330,o),
(261,330,c),
(211,260,l),
(257,307,o),
(301,313,o),
(341,313,cs),
(439,313,o),
(465,244,o),
(465,183,cs),
(465,124,o),
(454,66,o),
(400,66,cs),
(349,66,o),
(330,112,o),
(330,169,c),
(264,169,l),
(264,116,o),
(250,66,o),
(207,66,cs),
(174,66,o),
(167,92,o),
(167,118,cs),
(167,151,o),
(161,184,o),
(129,183,c),
(83,130,ls),
(86,134,o),
(89,136,o),
(95,136,cs),
(106,136,o),
(112,115,o),
(112,77,cs),
(112,44,o),
(135,0,o),
(207,0,cs)
);
},
{
closed = 1;
nodes = (
(178,226,o),
(271,325,o),
(325,373,cs),
(396,437,o),
(425,469,o),
(508,469,cs),
(579,469,o),
(618,429,o),
(640,381,c),
(712,381,l),
(685,466,o),
(624,535,o),
(508,535,cs),
(422,535,o),
(348,496,o),
(294,435,cs),
(235,369,o),
(188,317,o),
(40,172,c),
(83,130,l)
);
},
{
closed = 1;
nodes = (
(283,354,l),
(292,380,o),
(296,404,o),
(296,426,cs),
(296,491,o),
(259,535,o),
(188,535,cs),
(134,535,o),
(63,498,o),
(78,389,c),
(141,389,l),
(127,448,o),
(159,472,o),
(191,472,cs),
(224,472,o),
(246,442,o),
(246,409,cs),
(246,393,o),
(240,375,o),
(228,361,c),
(268,321,l)
);
}
);
userData = {
com.fontlab.hintData = {
hhints = (
{
position = 0;
width = 66;
},
{
position = 313;
width = 53;
},
{
position = 367;
width = 68;
},
{
position = 469;
width = 66;
},
{
position = 669;
width = 68;
}
);
vhints = (
{
position = 78;
width = 63;
},
{
position = 112;
width = 55;
},
{
position = 264;
width = 66;
},
{
position = 465;
width = 68;
},
{
position = 572;
width = 68;
},
{
position = 598;
width = 68;
},
{
position = 824;
width = 74;
},
{
position = 1107;
width = 68;
}
);
};
};
width = 1215;
}
);
}
